{
.appVersion = "3525";
DisplayStrings = (
ODCGQ,
DPRB,
HHNHOHOSOO,
"BDEFHIKLMNPR/N.001",
"AVWXYZ/V.001/W.001",
"RHODES/space phones/space nnsnosoo",
"/R.003 R/R.001/R.002",
CGJSacegjr
);
copyright = "Copyright 2026 Disney Enterprises Inc. This font may not be used without the express permission of The Walt Disney Company.\012";
customParameters = (
{
name = Axes;
value = (
{
Name = Weight;
Tag = wght;
},
{
Name = Width;
Tag = wdth;
}
);
}
);
date = "2026-02-23 22:22:13 +0000";
designer = "Beat Baudenbacher with Dyana Weissman";
designerURL = "https://www.loyalkaspar.com/";
familyName = "Elias Prototype";
featurePrefixes = (
{
automatic = 1;
code = "languagesystem DFLT dflt;\012";
name = Languagesystems;
}
);
features = (
{
automatic = 1;
code = "sub f f by f_f.liga;\012sub f t by f_t.liga;\012sub t f by t_f.liga;\012sub t t by t_t.liga;\012";
name = liga;
},
{
code = "sub R by R.001;\012\012";
name = ss01;
notes = "Name: 001";
},
{
code = "sub R by R.002;\012";
name = ss02;
notes = "Name: 002";
},
{
code = "sub R by R.003;";
name = ss03;
notes = "Name: 003";
}
);
fontMaster = (
{
alignmentZones = (
"{720, 11}",
"{554, 11}",
"{0, -11}",
"{-209, -5}"
);
ascender = 960;
capHeight = 720;
custom = "Cond Regular";
descender = -240;
iconName = Condensed;
id = "A498EE73-B8E0-478F-AD48-BB28716BB127";
weightValue = 400;
widthValue = 1;
xHeight = 554;
},
{
alignmentZones = (
"{720, 11}",
"{554, 11}",
"{0, -11}",
"{-209, -5}"
);
ascender = 960;
capHeight = 720;
custom = "Cond Black";
descender = -240;
iconName = Bold_Condensed;
id = "4050705C-5704-4184-B7B7-497C68798CAB";
visible = 1;
weightValue = 700;
widthValue = 1;
xHeight = 554;
},
{
alignmentZones = (
"{720, 11}",
"{554, 11}",
"{0, -11}",
"{-209, -5}"
);
ascender = 960;
capHeight = 720;
custom = "Ext Regular";
descender = -240;
iconName = Extended;
id = "04E65C73-A9C2-4E63-92BC-18A513B12E25";
visible = 1;
weightValue = 400;
widthValue = 200;
xHeight = 554;
},
{
alignmentZones = (
"{720, 11}",
"{554, 11}",
"{0, -11}",

glyphs = (
{
glyphname = A;
lastChange = "2026-05-28 22:11:58 +0000";
layers = (
{
layerId = m003;
paths = (
{
closed = 1;
nodes = (
"670 0 LINE",
"581 240 OFFCURVE",
"494 481 OFFCURVE",
"409 721 CURVE",
"256 721 LINE",
"171 481 OFFCURVE",
"85 240 OFFCURVE",
"-4 0 CURVE",
"179 0 LINE",
"188 34 OFFCURVE",
"198 67 OFFCURVE",
"209 101 CURVE",
"290 103 OFFCURVE",
"375 103 OFFCURVE",
"456 101 CURVE",
"467 67 OFFCURVE",
"477 34 OFFCURVE",
"487 0 CURVE"
);
},
{
closed = 1;
nodes = (
"279 325 OFFCURVE",
"306 403 OFFCURVE",
"333 481 CURVE",
"333 481 LINE",
"360 403 OFFCURVE",
"387 325 OFFCURVE",
"410 247 CURVE",
"360 245 OFFCURVE",
"306 245 OFFCURVE",
"256 247 CURVE"
);
}
);
width = 666;
},
{
layerId = "4050705C-5704-4184-B7B7-497C68798CAB";
paths = (
{
closed = 1;
nodes = (
"590 0 LINE",
"521 240 OFFCURVE",
"453 481 OFFCURVE",
"384 721 CURVE",
"202 721 LINE",
"135 481 OFFCURVE",
"67 240 OFFCURVE",
"-4 0 CURVE",
"209 0 LINE",
"214 31 OFFCURVE",
"218 61 OFFCURVE",
"223 92 CURVE",
"268 94 OFFCURVE",
"318 94 OFFCURVE",
"363 92 CURVE",
"368 61 OFFCURVE",
"372 31 OFFCURVE",
"377 0 CURVE"
);
},
{
closed = 1;
nodes = (
"264 317 OFFCURVE",
"277 383 OFFCURVE",
"289 450 CURVE",
"297 450 LINE",
"309 383 OFFCURVE",
"322 317 OFFCURVE",
"334 250 CURVE",
"308 248 OFFCURVE",
"278 248 OFFCURVE",
"252 250 CURVE"
);
}
);
width = 586;
},
{
layerId = "A498EE73-B8E0-478F-AD48-BB28716BB127";
paths = (
{
closed = 1;
nodes = (
"590 0 LINE",
"521 240 OFFCURVE",
"453 481 OFFCURVE",
"384 721 CURVE",
"202 721 LINE",
"135 481 OFFCURVE",
"67 240 OFFCURVE",
"-4 0 CURVE",
"209 0 LINE",
"214 31 OFFCURVE",
"218 61 OFFCURVE",
"223 92 CURVE",
"268 94 OFFCURVE",
"318 94 OFFCURVE",
"363 92 CURVE",
"368 61 OFFCURVE",
"372 31 OFFCURVE",
"377 0 CURVE"
);
},
{
closed = 1;
nodes = (
"264 317 OFFCURVE",
"277 383 OFFCURVE",
"289 450 CURVE",
"297 450 LINE",
"309 383 OFFCURVE",
"322 317 OFFCURVE",
"334 250 CURVE",
"308 248 OFFCURVE",
"278 248 OFFCURVE",
"252 250 CURVE"
);
}
);
width = 586;
},
{
layerId = "04E65C73-A9C2-4E63-92BC-18A513B12E25";
paths = (
{
closed = 1;
nodes = (
"670 0 LINE",
"581 240 OFFCURVE",
"494 481 OFFCURVE",
"409 721 CURVE",
"256 721 LINE",
"171 481 OFFCURVE",
"85 240 OFFCURVE",
"-4 0 CURVE",
"179 0 LINE",
"188 34 OFFCURVE",
"198 67 OFFCURVE",
"209 101 CURVE",
"290 103 OFFCURVE",
"375 103 OFFCURVE",
"456 101 CURVE",
"467 67 OFFCURVE",
"477 34 OFFCURVE",
"487 0 CURVE"
);
},
{
closed = 1;
nodes = (
"279 324.25 OFFCURVE",
"306 403.75 OFFCURVE",
"333 481 CURVE",
"333 481 LINE",
"360 403 OFFCURVE",
"387 325 OFFCURVE",
"410 247 CURVE",
"360 245 OFFCURVE",
"306 245 OFFCURVE",
"256 247 CURVE"
);
}
);
width = 666;
}
);
note = A;
rightKerningGroup = A;
unicode = 0041;
},
{
glyphname = B;
lastChange = "2026-05-28 22:11:58 +0000";
layers = (
{
layerId = m003;
paths = (
{
closed = 1;
nodes = (
"384 0 LINE SMOOTH",
"527 0 OFFCURVE",
"611 79 OFFCURVE",
"611 202 CURVE SMOOTH",
"611 292 OFFCURVE",
"559 354 OFFCURVE",
"490 375 CURVE",
"549 405 OFFCURVE",
"586 453 OFFCURVE",
"586 525 CURVE SMOOTH",
"586 648 OFFCURVE",
"503 721 OFFCURVE",
"359 721 CURVE SMOOTH",
"53 721 LINE",
"54 684 OFFCURVE",
"55 547 OFFCURVE",
"55 370 CURVE SMOOTH",
"55 187 OFFCURVE",
"54 33 OFFCURVE",
"53 0 CURVE"
);
},
{
closed = 1;
nodes = (
"228 194 OFFCURVE",
"228 241 OFFCURVE",
"229 289 CURVE",
"355 289 LINE SMOOTH",
"405 289 OFFCURVE",
"432 264 OFFCURVE",
"432 218 CURVE SMOOTH",
"432 170 OFFCURVE",
"406 146 OFFCURVE",
"355 146 CURVE SMOOTH",
"229 146 LINE"
);
},
{
closed = 1;
nodes = (
"228 480 OFFCURVE",
"228 527 OFFCURVE",
"229 575 CURVE",
"331 575 LINE SMOOTH",
"381 575 OFFCURVE",
"408 552 OFFCURVE",
"408 504 CURVE SMOOTH",
"408 457 OFFCURVE",
"380 432 OFFCURVE",
"331 432 CURVE SMOOTH",
"229 432 LINE"
);
}
);
width = 639;
},
{
associatedMasterId = m003;
layerId = "4FEB32F9-772C-44A7-BEEC-4633A4970EB8";
name = "May 7, 26 at 13:40";
paths = (
{
closed = 1;
nodes = (
"490 375 OFFCURVE",
"586 413 OFFCURVE",
"586 525 CURVE SMOOTH",
"586 648 OFFCURVE",
"503 721 OFFCURVE",
"359 721 CURVE SMOOTH",
"53 721 LINE",
"54 684 OFFCURVE",
"55 547 OFFCURVE",
"55 370 CURVE SMOOTH",
"55 187 OFFCURVE",
"54 33 OFFCURVE",
"53 0 CURVE",
"384 0 LINE SMOOTH",
"527 0 OFFCURVE",
"611 79 OFFCURVE",
"611 202 CURVE SMOOTH",
"611 347 OFFCURVE",
"490 375 OFFCURVE",
"490 375 CURVE SMOOTH"
);
},
{
closed = 1;
nodes = (
"381 575 OFFCURVE",
"408 552 OFFCURVE",
"408 504 CURVE SMOOTH",
"408 457 OFFCURVE",
"380 432 OFFCURVE",
"331 432 CURVE SMOOTH",
"229 432 LINE",
"228 480 OFFCURVE",
"228 527 OFFCURVE",
"229 575 CURVE",
"331 575 LINE SMOOTH"
);
},
{
closed = 1;
nodes = (
"229 146 LINE",
"228 194 OFFCURVE",
"228 241 OFFCURVE",
"229 289 CURVE",
"355 289 LINE SMOOTH",
"405 289 OFFCURVE",
"432 264 OFFCURVE",
"432 218 CURVE SMOOTH",
"432 170 OFFCURVE",
"406 146 OFFCURVE",
"355 146 CURVE SMOOTH"
);
}
);
width = 639;
},
{
layerId = "4050705C-5704-4184-B7B7-497C68798CAB";
paths = (
{
closed = 1;
nodes = (
"314 0 LINE SMOOTH",
"477 0 OFFCURVE",
"565 65 OFFCURVE",
"565 199 CURVE SMOOTH",
"565 275 OFFCURVE",
"526 334 OFFCURVE",
"453 370 CURVE",
"520 390 OFFCURVE",
"553 450 OFFCURVE",
"553 522 CURVE SMOOTH",
"553 653 OFFCURVE",
"467 721 OFFCURVE",
"308 721 CURVE SMOOTH",
"53 721 LINE",
"55 673 OFFCURVE",
"55 484 OFFCURVE",
"55 366 CURVE SMOOTH",
"55 244 OFFCURVE",
"54 42 OFFCURVE",
"53 0 CURVE"
);
},
{
closed = 1;
nodes = (
"249 301 LINE",
"294 301 LINE SMOOTH",
"341 301 OFFCURVE",
"365 271 OFFCURVE",
"365 230 CURVE SMOOTH",
"365 188 OFFCURVE",
"341 158 OFFCURVE",
"294 158 CURVE SMOOTH",
"249 158 LINE"
);
},
{
closed = 1;
nodes = (
"249 563 LINE",
"284 563 LINE SMOOTH",
"329 563 OFFCURVE",
"353 535 OFFCURVE",
"353 497 CURVE SMOOTH",
"353 459 OFFCURVE",
"329 431 OFFCURVE",
"284 431 CURVE SMOOTH",
"249 431 LINE"
);
}
);
width = 600;
},
{
layerId = "A498EE73-B8E0-478F-AD48-BB28716BB127";
paths = (
{
closed = 1;
nodes = (
"314 0 LINE SMOOTH",
"477 0 OFFCURVE",
"565 65 OFFCURVE",
"565 199 CURVE SMOOTH",
"565 275 OFFCURVE",
"526 334 OFFCURVE",
"453 370 CURVE",
"520 390 OFFCURVE",
"553 450 OFFCURVE",
"553 522 CURVE SMOOTH",
"553 653 OFFCURVE",
"467 721 OFFCURVE",
"308 721 CURVE SMOOTH",
"53 721 LINE",
"55 673 OFFCURVE",
"55 484 OFFCURVE",
"55 366 CURVE SMOOTH",
"55 244 OFFCURVE",
"54 42 OFFCURVE",
"53 0 CURVE"
);
},
{
closed = 1;
nodes = (
"249 301 LINE",
"294 301 LINE SMOOTH",
"341 301 OFFCURVE",
"365 271 OFFCURVE",
"365 230 CURVE SMOOTH",
"365 188 OFFCURVE",
"341 158 OFFCURVE",
"294 158 CURVE SMOOTH",
"249 158 LINE"
);
},
{
closed = 1;
nodes = (
"249 563 LINE",
"284 563 LINE SMOOTH",
"329 563 OFFCURVE",
"353 535 OFFCURVE",
"353 497 CURVE SMOOTH",
"353 459 OFFCURVE",
"329 431 OFFCURVE",
"284 431 CURVE SMOOTH",
"249 431 LINE"
);
}
);
width = 600;
},
{
layerId = "04E65C73-A9C2-4E63-92BC-18A513B12E25";
paths = (
{
closed = 1;
nodes = (
"323.25 0 LINE SMOOTH",
"466.25 0 OFFCURVE",
"548 85.75 OFFCURVE",
"543.5 208.75 CURVE SMOOTH",
"541.25 298.75 OFFCURVE",
"487 359.25 OFFCURVE",
"417.25 378 CURVE",
"471 402.75 OFFCURVE",
"511 459 OFFCURVE",
"508.75 531 CURVE SMOOTH",
"505 648 OFFCURVE",
"420.5 718.75 OFFCURVE",
"298.25 719.5 CURVE SMOOTH",
"53 721 LINE",
"54 684 OFFCURVE",
"55 547 OFFCURVE",
"55 370 CURVE SMOOTH",
"55 187 OFFCURVE",
"54 33 OFFCURVE",
"53 0 CURVE"
);
},
{
closed = 1;
nodes = (
"153 142.25 OFFCURVE",
"153 277 OFFCURVE",
"154 325 CURVE",
"308.5 325 LINE SMOOTH",
"391.5 325 OFFCURVE",
"443.25 279.75 OFFCURVE",
"443.25 207.5 CURVE SMOOTH",
"443.25 133.25 OFFCURVE",
"391 86 OFFCURVE",
"308.5 86 CURVE SMOOTH",
"154 86 LINE"
);
},
{
closed = 1;
nodes = (
"153 458.25 OFFCURVE",
"153 592.25 OFFCURVE",
"154 635 CURVE",
"284.5 635 LINE SMOOTH",
"358.5 635 OFFCURVE",
"408 596.25 OFFCURVE",
"408 526.5 CURVE SMOOTH",
"408 457 OFFCURVE",
"365.75 410.25 OFFCURVE",
"284.5 410.25 CURVE SMOOTH",
"154 410.25 LINE"
);
}
);
width = 564;
}
);
note = B;
rightKerningGroup = B;
unicode = 0042;
},
{
glyphname = C;
lastChange = "2026-05-28 22:11:58 +0000";
layers = (
{
layerId = m003;
paths = (
{
closed = 1;
nodes = (
"144 733 OFFCURVE",
"30 605 OFFCURVE",
"30 360 CURVE SMOOTH",
"30 115 OFFCURVE",
"144 -12 OFFCURVE",
"360 -12 CURVE SMOOTH",
"423 -12 OFFCURVE",
"484 -1 OFFCURVE",
"546 10 CURVE",
"545 65 OFFCURVE",
"545 121 OFFCURVE",
"546 176 CURVE",
"492 150 OFFCURVE",
"435 139 OFFCURVE",
"375 139 CURVE SMOOTH",
"256 139 OFFCURVE",
"215 232 OFFCURVE",
"215 360 CURVE SMOOTH",
"215 488 OFFCURVE",
"256 582 OFFCURVE",
"375 582 CURVE SMOOTH",
"435 582 OFFCURVE",
"489 564 OFFCURVE",
"546 545 CURVE",
"545 600 OFFCURVE",
"545 655 OFFCURVE",
"546 710 CURVE",
"485 728 OFFCURVE",
"423 733 OFFCURVE",
"360 733 CURVE SMOOTH"
);
}
);
width = 576;
},
{
layerId = "4050705C-5704-4184-B7B7-497C68798CAB";
paths = (
{
closed = 1;
nodes = (
"230 252 OFFCURVE",
"270 163 OFFCURVE",
"370 163 CURVE SMOOTH",
"415 163 OFFCURVE",
"453 180 OFFCURVE",
"494 199 CURVE",
"494 11 LINE",
"443 -7 OFFCURVE",
"389 -12 OFFCURVE",
"335 -12 CURVE SMOOTH",
"104 -12 OFFCURVE",
"30 167 OFFCURVE",
"30 357 CURVE SMOOTH",
"30 547 OFFCURVE",
"104 726 OFFCURVE",
"335 726 CURVE SMOOTH",
"389 726 OFFCURVE",
"441 715 OFFCURVE",
"494 703 CURVE",
"494 515 LINE",
"457 541 OFFCURVE",
"415 551 OFFCURVE",
"370 551 CURVE SMOOTH",
"270 551 OFFCURVE",
"230 462 OFFCURVE",
"230 357 CURVE SMOOTH"
);
}
);
width = 524;
},
{
layerId = "A498EE73-B8E0-478F-AD48-BB28716BB127";
paths = (
{
closed = 1;
nodes = (
"230 252 OFFCURVE",
"270 163 OFFCURVE",
"370 163 CURVE SMOOTH",
"415 163 OFFCURVE",
"453 180 OFFCURVE",
"494 199 CURVE",
"494 11 LINE",
"443 -7 OFFCURVE",
"389 -12 OFFCURVE",
"335 -12 CURVE SMOOTH",
"104 -12 OFFCURVE",
"30 167 OFFCURVE",
"30 357 CURVE SMOOTH",
"30 547 OFFCURVE",
"104 726 OFFCURVE",
"335 726 CURVE SMOOTH",
"389 726 OFFCURVE",
"441 715 OFFCURVE",
"494 703 CURVE",
"494 515 LINE",
"457 541 OFFCURVE",
"415 551 OFFCURVE",
"370 551 CURVE SMOOTH",
"270 551 OFFCURVE",
"230 462 OFFCURVE",
"230 357 CURVE SMOOTH"
);
}
);
width = 524;
},
{
layerId = "04E65C73-A9C2-4E63-92BC-18A513B12E25";
paths = (
{
closed = 1;
nodes = (
"144 733 OFFCURVE",
"30 605 OFFCURVE",
"30 360 CURVE SMOOTH",
"30 115 OFFCURVE",
"144 -12 OFFCURVE",
"360 -12 CURVE SMOOTH",
"423 -12 OFFCURVE",
"484 -1 OFFCURVE",
"546 10 CURVE",
"545 65 OFFCURVE",
"545 121 OFFCURVE",
"546 176 CURVE",
"492 150 OFFCURVE",
"435 139 OFFCURVE",
"375 139 CURVE SMOOTH",
"256 139 OFFCURVE",
"215 232 OFFCURVE",
"215 360 CURVE SMOOTH",
"215 488 OFFCURVE",
"256 582 OFFCURVE",
"375 582 CURVE SMOOTH",
"435 582 OFFCURVE",
"489 564 OFFCURVE",
"546 545 CURVE",
"545 600 OFFCURVE",
"545 655 OFFCURVE",
"546 710 CURVE",
"485 728 OFFCURVE",
"423 733 OFFCURVE",
"360 733 CURVE SMOOTH"
);
}
);
width = 576;
}
);
leftKerningGroup = C;
note = C;
rightKerningGroup = C;
unicode = 0043;
},
{
glyphname = D;
lastChange = "2026-05-29 16:16:10 +0000";
layers = (
{
layerId = m003;
paths = (
{
closed = 1;
nodes = (
"369 0 LINE SMOOTH",
"620 0 OFFCURVE",
"768 121 OFFCURVE",
"768 360 CURVE SMOOTH",
"768 600 OFFCURVE",
"620 720 OFFCURVE",
"369 720 CURVE SMOOTH",
"40 720 LINE",
"41 683 OFFCURVE",
"42 547 OFFCURVE",
"42 370 CURVE SMOOTH",
"42 187 OFFCURVE",
"41 33 OFFCURVE",
"40 0 CURVE"
);
},
{
closed = 1;
nodes = (
"276 232 OFFCURVE",
"274 269 OFFCURVE",
"274 372 CURVE SMOOTH",
"274 431 OFFCURVE",
"275 486 OFFCURVE",
"276 523 CURVE",
"357 523 LINE SMOOTH",
"470 523 OFFCURVE",
"523 467 OFFCURVE",
"523 360 CURVE SMOOTH",
"523 253 OFFCURVE",
"470 197 OFFCURVE",
"357 197 CURVE SMOOTH",
"276 197 LINE"
);
}
);
width = 788;
},
{
layerId = "4050705C-5704-4184-B7B7-497C68798CAB";
paths = (
{
closed = 1;
nodes = (
"243 0 LINE SMOOTH",
"477 0 OFFCURVE",
"568 163 OFFCURVE",
"568 361 CURVE SMOOTH",
"568 559 OFFCURVE",
"477 720 OFFCURVE",
"243 720 CURVE SMOOTH",
"40 720 LINE",
"42 672 OFFCURVE",
"42 484 OFFCURVE",
"42 366 CURVE SMOOTH",
"42 244 OFFCURVE",
"41 42 OFFCURVE",
"40 0 CURVE"
);
},
{
closed = 1;
nodes = (
"235 242 OFFCURVE",
"234 306 OFFCURVE",
"234 370 CURVE SMOOTH",
"234 428 OFFCURVE",
"235 484 OFFCURVE",
"236 542 CURVE",
"253 542 LINE SMOOTH",
"333 542 OFFCURVE",
"367 464 OFFCURVE",
"367 361 CURVE SMOOTH",
"367 257 OFFCURVE",
"333 178 OFFCURVE",
"253 178 CURVE SMOOTH",
"236 178 LINE"
);
}
);
width = 588;
},
{
layerId = "A498EE73-B8E0-478F-AD48-BB28716BB127";
paths = (
{
closed = 1;
nodes = (
"197.25 0 LINE SMOOTH",
"386.25 0 OFFCURVE",
"481.75 120.25 OFFCURVE",
"481.75 361 CURVE SMOOTH",
"481.75 607 OFFCURVE",
"386 720 OFFCURVE",
"197 720 CURVE SMOOTH",
"36 720 LINE",
"38 672 OFFCURVE",
"38.25 484 OFFCURVE",
"38.25 366 CURVE SMOOTH",
"38.25 244 OFFCURVE",
"37.25 42 OFFCURVE",
"36.25 0 CURVE"
);
},
{
closed = 1;
nodes = (
"141 186 OFFCURVE",
"140.25 278.25 OFFCURVE",
"140.25 370 CURVE SMOOTH",
"140.25 454.25 OFFCURVE",
"141 540 OFFCURVE",
"142 625 CURVE",
"195 625 LINE SMOOTH",
"318 625 OFFCURVE",
"375.25 543.5 OFFCURVE",
"375.25 361 CURVE SMOOTH",
"375.25 177.5 OFFCURVE",
"323 97 OFFCURVE",
"206 96 CURVE SMOOTH",
"142 95 LINE"
);
}
);
width = 500.25;
},
{
layerId = "04E65C73-A9C2-4E63-92BC-18A513B12E25";
paths = (
{
closed = 1;
nodes = (
"331.5 0 LINE SMOOTH",
"537.5 0 OFFCURVE",
"696.75 121 OFFCURVE",
"696.75 360 CURVE SMOOTH",
"696.75 600 OFFCURVE",
"538 720 OFFCURVE",
"332 720 CURVE SMOOTH",
"36 720 LINE",
"37 683 OFFCURVE",
"38.25 547 OFFCURVE",
"38.25 370 CURVE SMOOTH",
"38.25 187 OFFCURVE",
"37.25 33 OFFCURVE",
"36.25 0 CURVE"
);
},
{
closed = 1;
nodes = (
"153.75 133.75 OFFCURVE",
"151.75 237.5 OFFCURVE",
"151.75 372 CURVE SMOOTH",
"151.75 459.5 OFFCURVE",
"153 584 OFFCURVE",
"154 621 CURVE",
"320 621 LINE SMOOTH",
"463 621 OFFCURVE",
"580 551.75 OFFCURVE",
"580 360 CURVE SMOOTH",
"580 160.75 OFFCURVE",
"462.5 98.75 OFFCURVE",
"319.5 98.75 CURVE SMOOTH",
"153.75 98.75 LINE"
);
}
);
width = 715.25;
}
);
leftMetricsKey = H;
note = D;
rightKerningGroup = D;
unicode = 0044;
},
{
glyphname = E;
lastChange = "2026-05-29 16:16:38 +0000";
layers = (
{
layerId = m003;
paths = (
{
closed = 1;
nodes = (
"236 2 OFFCURVE",
"435 2 OFFCURVE",
"620 0 CURVE",
"627 56 OFFCURVE",
"639 134 OFFCURVE",
"650 188 CURVE",
"540 187 OFFCURVE",
"394 187 OFFCURVE",
"266 188 CURVE",
"265 226 OFFCURVE",
"265 231 OFFCURVE",
"266 269 CURVE",
"383 270 OFFCURVE",
"518 270 OFFCURVE",
"617 269 CURVE",
"616 325 OFFCURVE",
"616 397 OFFCURVE",
"617 453 CURVE",
"518 452 OFFCURVE",
"383 452 OFFCURVE",
"266 453 CURVE",
"265 486 OFFCURVE",
"265 498 OFFCURVE",
"266 532 CURVE",
"391 533 OFFCURVE",
"533 533 OFFCURVE",
"640 532 CURVE",
"638 585 OFFCURVE",
"638 664 OFFCURVE",
"640 720 CURVE",
"451 718 OFFCURVE",
"240 718 OFFCURVE",
"40 720 CURVE",
"41 683 OFFCURVE",
"42 546 OFFCURVE",
"42 370 CURVE SMOOTH",
"42 187 OFFCURVE",
"41 33 OFFCURVE",
"40 0 CURVE"
);
}
);
width = 682;
},
{
layerId = "4050705C-5704-4184-B7B7-497C68798CAB";
paths = (
{
closed = 1;
nodes = (
"188 1 OFFCURVE",
"316 1 OFFCURVE",
"466 0 CURVE",
"470 58 OFFCURVE",
"477 118 OFFCURVE",
"485 178 CURVE",
"402 178 OFFCURVE",
"318 177 OFFCURVE",
"235 177 CURVE",
"234 208 OFFCURVE",
"234 246 OFFCURVE",
"234 277 CURVE",
"313 278 OFFCURVE",
"393 278 OFFCURVE",
"472 277 CURVE",
"471 337 OFFCURVE",
"471 388 OFFCURVE",
"472 448 CURVE",
"393 447 OFFCURVE",
"313 446 OFFCURVE",
"234 446 CURVE",
"234 476 OFFCURVE",
"234 511 OFFCURVE",
"235 542 CURVE",
"316 543 OFFCURVE",
"398 543 OFFCURVE",
"479 542 CURVE",
"478 601 OFFCURVE",
"478 661 OFFCURVE",
"479 720 CURVE",
"333 719 OFFCURVE",
"186 719 OFFCURVE",
"40 720 CURVE",
"42 672 OFFCURVE",
"42 483 OFFCURVE",
"42 366 CURVE SMOOTH",
"42 244 OFFCURVE",
"41 42 OFFCURVE",
"40 0 CURVE"
);
}
);
width = 517;
},
{
layerId = "A498EE73-B8E0-478F-AD48-BB28716BB127";
paths = (
{
closed = 1;
nodes = (
"184.25 1 OFFCURVE",
"245.5 1 OFFCURVE",
"394 0 CURVE",
"397 33 OFFCURVE",
"401 66 OFFCURVE",
"406.25 98.5 CURVE",
"323.25 98.5 OFFCURVE",
"194 98 OFFCURVE",
"141 98 CURVE",
"140 169 OFFCURVE",
"140.25 245.75 OFFCURVE",
"140.25 317.25 CURVE",
"219.25 318.25 OFFCURVE",
"314.25 318.25 OFFCURVE",
"393.25 317.25 CURVE",
"392.25 350.25 OFFCURVE",
"392.25 383.25 OFFCURVE",
"393.25 416.25 CURVE",
"314.25 415.25 OFFCURVE",
"219.25 415.25 OFFCURVE",
"140.25 416.25 CURVE",
"140 485 OFFCURVE",
"140 550 OFFCURVE",
"141 619 CURVE",
"222 620 OFFCURVE",
"319 620 OFFCURVE",
"400 619 CURVE",
"399 653 OFFCURVE",
"399 687 OFFCURVE",
"400 720 CURVE",
"254 719 OFFCURVE",
"182 719 OFFCURVE",
"36 720 CURVE",
"38 672 OFFCURVE",
"38 483 OFFCURVE",
"38 366 CURVE SMOOTH",
"38 244 OFFCURVE",
"37.25 42 OFFCURVE",
"36.25 0 CURVE"
);
}
);
width = 430;
},
{
layerId = "04E65C73-A9C2-4E63-92BC-18A513B12E25";
paths = (
{
closed = 1;
nodes = (
"128 2 OFFCURVE",
"385 2 OFFCURVE",
"554 0 CURVE",
"559 34 OFFCURVE",
"565 68 OFFCURVE",
"571.333 101.333 CURVE",
"464.333 100.333 OFFCURVE",
"262.667 100.333 OFFCURVE",
"151.333 101.333 CURVE",
"150.333 178.333 OFFCURVE",
"150.333 239.333 OFFCURVE",
"150.667 316.667 CURVE",
"252 317.667 OFFCURVE",
"442.333 317.667 OFFCURVE",
"538.333 316.667 CURVE",
"537.333 348 OFFCURVE",
"537.333 386.667 OFFCURVE",
"538.333 418 CURVE",
"442.333 417 OFFCURVE",
"251.667 417 OFFCURVE",
"150.667 418 CURVE",
"150 478 OFFCURVE",
"150 558 OFFCURVE",
"151 619 CURVE",
"260 620 OFFCURVE",
"457 620 OFFCURVE",
"561 619 CURVE",
"560 651 OFFCURVE",
"560 687 OFFCURVE",
"561 720 CURVE",
"391 718 OFFCURVE",
"129 718 OFFCURVE",
"36 720 CURVE",
"37 683 OFFCURVE",
"38 546 OFFCURVE",
"38.333 370 CURVE SMOOTH",
"39 187 OFFCURVE",
"37.333 33 OFFCURVE",
"36.333 0 CURVE"
);
}
);
width = 594.33333;
},
{
associatedMasterId = "04E65C73-A9C2-4E63-92BC-18A513B12E25";
layerId = "F9B72ED8-3486-4385-BCB8-7EADAD05EAC0";
name = "{600, 200}";
paths = (
{
closed = 1;
nodes = (
"200 2 OFFCURVE",
"418 2 OFFCURVE",
"598 0 CURVE",
"604 48 OFFCURVE",
"614 111 OFFCURVE",
"624 159 CURVE",
"515 158 OFFCURVE",
"350 158 OFFCURVE",
"228 159 CURVE",
"227 210 OFFCURVE",
"227 233 OFFCURVE",
"228 285 CURVE",
"340 286 OFFCURVE",
"493 286 OFFCURVE",
"591 285 CURVE",
"590 333 OFFCURVE",
"590 393 OFFCURVE",
"591 441 CURVE",
"493 440 OFFCURVE",
"340 440 OFFCURVE",
"228 441 CURVE",
"227 485 OFFCURVE",
"227 519 OFFCURVE",
"228 562 CURVE",
"347 563 OFFCURVE",
"508 563 OFFCURVE",
"614 562 CURVE",
"612 609 OFFCURVE",
"612 672 OFFCURVE",
"614 721 CURVE",
"431 719 OFFCURVE",
"203 719 OFFCURVE",
"39 721 CURVE",
"40 684 OFFCURVE",
"41 547 OFFCURVE",
"41 370 CURVE SMOOTH",
"41 187 OFFCURVE",
"40 33 OFFCURVE",
"39 0 CURVE"
);
}
);
width = 653;
}
);
leftMetricsKey = H;
note = E;
rightKerningGroup = E;
unicode = 0045;
},
{
glyphname = F;
lastChange = "2026-05-28 22:11:58 +0000";
layers = (
{
layerId = m003;
paths = (
{
closed = 1;
nodes = (
"499 340 OFFCURVE",
"499 392 OFFCURVE",
"500 445 CURVE",
"408 443 OFFCURVE",
"317 443 OFFCURVE",
"227 445 CURVE",
"228 484 OFFCURVE",
"228 524 OFFCURVE",
"229 563 CURVE",
"325 565 OFFCURVE",
"422 565 OFFCURVE",
"518 563 CURVE",
"521 616 OFFCURVE",
"525 668 OFFCURVE",
"530 721 CURVE",
"371 719 OFFCURVE",
"212 719 OFFCURVE",
"53 721 CURVE",
"54 684 OFFCURVE",
"55 547 OFFCURVE",
"55 370 CURVE SMOOTH",
"55 187 OFFCURVE",
"54 33 OFFCURVE",
"53 0 CURVE",
"229 0 LINE",
"227 96 OFFCURVE",
"227 191 OFFCURVE",
"227 287 CURVE",
"318 289 OFFCURVE",
"409 289 OFFCURVE",
"500 287 CURVE"
);
}
);
width = 553;
},
{
layerId = "4050705C-5704-4184-B7B7-497C68798CAB";
paths = (
{
closed = 1;
nodes = (
"396 543 OFFCURVE",
"331 543 OFFCURVE",
"248 543 CURVE",
"247 512 OFFCURVE",
"247 481 OFFCURVE",
"247 450 CURVE",
"326 449 OFFCURVE",
"406 449 OFFCURVE",
"485 450 CURVE",
"484 390 OFFCURVE",
"484 331 OFFCURVE",
"485 271 CURVE",
"406 271 OFFCURVE",
"326 271 OFFCURVE",
"247 271 CURVE",
"247 181 OFFCURVE",
"248 40 OFFCURVE",
"249 0 CURVE",
"53 0 LINE",
"54 42 OFFCURVE",
"55 244 OFFCURVE",
"55 366 CURVE SMOOTH",
"55 484 OFFCURVE",
"55 673 OFFCURVE",
"53 721 CURVE",
"201 720 OFFCURVE",
"350 720 OFFCURVE",
"498 721 CURVE",
"490 661 OFFCURVE",
"484 601 OFFCURVE",
"479 543 CURVE"
);
}
);
width = 521;
},
{
layerId = "A498EE73-B8E0-478F-AD48-BB28716BB127";
paths = (
{
closed = 1;
nodes = (
"317.25 622.5 OFFCURVE",
"241 622.5 OFFCURVE",
"158 622.5 CURVE",
"157 552.5 OFFCURVE",
"157 482.5 OFFCURVE",
"157 412.5 CURVE",
"236 411.5 OFFCURVE",
"323.5 411.5 OFFCURVE",
"402.5 412.5 CURVE",
"401.5 380.25 OFFCURVE",
"401.5 348.25 OFFCURVE",
"402.5 316 CURVE",
"323.5 316 OFFCURVE",
"236 316 OFFCURVE",
"157 316 CURVE",
"157 211 OFFCURVE",
"158 46.75 OFFCURVE",
"159 0 CURVE",
"53 0 LINE",
"54 42 OFFCURVE",
"55 244 OFFCURVE",
"55 366 CURVE SMOOTH",
"55 484 OFFCURVE",
"55 673 OFFCURVE",
"53 721 CURVE",
"194.25 720 OFFCURVE",
"274.25 720 OFFCURVE",
"415.5 721 CURVE",
"410.5 688 OFFCURVE",
"406.75 655.75 OFFCURVE",
"403.25 622.5 CURVE"
);
}
);
width = 438.5;
},
{
layerId = "04E65C73-A9C2-4E63-92BC-18A513B12E25";
paths = (
{
closed = 1;
nodes = (
"424 355 OFFCURVE",
"424 384.5 OFFCURVE",
"425 415 CURVE",
"333 413 OFFCURVE",
"242 413 OFFCURVE",
"152 415 CURVE",
"153 486.25 OFFCURVE",
"153 559.25 OFFCURVE",
"154 630.5 CURVE",
"250 632.5 OFFCURVE",
"348.5 632.5 OFFCURVE",
"444.5 630.5 CURVE",
"446.75 661 OFFCURVE",
"450 692.75 OFFCURVE",
"455 721 CURVE",
"296 719 OFFCURVE",
"137 719 OFFCURVE",
"53 721 CURVE",
"54 684 OFFCURVE",
"55 547 OFFCURVE",
"55 370 CURVE SMOOTH",
"55 187 OFFCURVE",
"54 33 OFFCURVE",
"53 0 CURVE",
"154 0 LINE",
"152 108.75 OFFCURVE",
"152 215.75 OFFCURVE",
"152 324.5 CURVE",
"243 326.5 OFFCURVE",
"334 326.5 OFFCURVE",
"425 324.5 CURVE"
);
}
);
width = 478;
}
);
note = F;
rightKerningGroup = F;
unicode = 0046;
},
{
glyphname = G;
lastChange = "2026-05-28 22:11:58 +0000";
layers = (
{
layerId = m003;
paths = (
{
closed = 1;
nodes = (
"567 430 OFFCURVE",
"468 430 OFFCURVE",
"368 432 CURVE",
"370 384 OFFCURVE",
"370 336 OFFCURVE",
"368 288 CURVE",
"415 289 OFFCURVE",
"451 289 OFFCURVE",
"498 288 CURVE",
"498 200 OFFCURVE",
"454 139 OFFCURVE",
"366 139 CURVE SMOOTH",
"257 139 OFFCURVE",
"220 222 OFFCURVE",
"220 360 CURVE SMOOTH",
"220 488 OFFCURVE",
"261 582 OFFCURVE",
"385 582 CURVE SMOOTH",
"447 582 OFFCURVE",
"506 571 OFFCURVE",
"576 545 CURVE",
"575 600 OFFCURVE",
"575 655 OFFCURVE",
"576 710 CURVE",
"516 726 OFFCURVE",
"457 732 OFFCURVE",
"379 732 CURVE SMOOTH",
"155 732 OFFCURVE",
"35 605 OFFCURVE",
"35 360 CURVE SMOOTH",
"35 119 OFFCURVE",
"143 -12 OFFCURVE",
"359 -12 CURVE SMOOTH",
"575 -12 OFFCURVE",
"671 128 OFFCURVE",
"671 360 CURVE SMOOTH",
"671 385 OFFCURVE",
"670 409 OFFCURVE",
"667 432 CURVE"
);
}
);
width = 703;
},
{
layerId = "4050705C-5704-4184-B7B7-497C68798CAB";
paths = (
{
closed = 1;
nodes = (
"235 462 OFFCURVE",
"281 551 OFFCURVE",
"395 551 CURVE SMOOTH",
"491 551 OFFCURVE",
"562 514 OFFCURVE",
"599 495 CURVE",
"599 683 LINE",
"542 709 OFFCURVE",
"466 726 OFFCURVE",
"370 726 CURVE SMOOTH",
"114 726 OFFCURVE",
"35 547 OFFCURVE",
"35 357 CURVE SMOOTH",
"35 113 OFFCURVE",
"141 -12 OFFCURVE",
"350 -12 CURVE SMOOTH",
"497 -12 OFFCURVE",
"575 69 OFFCURVE",
"603 129 CURVE",
"599 446 LINE",
"330 446 LINE",
"330 288 LINE",
"427 288 LINE",
"427 211 LINE",
"411 181 OFFCURVE",
"384 163 OFFCURVE",
"350 163 CURVE SMOOTH",
"270 163 OFFCURVE",
"235 232 OFFCURVE",
"235 357 CURVE SMOOTH"
);
}
);
width = 652;
},
{
associatedMasterId = "4050705C-5704-4184-B7B7-497C68798CAB";
layerId = "EE51A42A-8206-4998-88C3-496B6F0E4626";
name = "May 11, 26 at 08:55";
paths = (
{
closed = 1;
nodes = (
"235 462 OFFCURVE",
"275 551 OFFCURVE",
"375 551 CURVE SMOOTH",
"420 551 OFFCURVE",
"458 534 OFFCURVE",
"499 515 CURVE",
"499 703 LINE",
"448 721 OFFCURVE",
"394 726 OFFCURVE",
"340 726 CURVE SMOOTH",
"109 726 OFFCURVE",
"35 547 OFFCURVE",
"35 357 CURVE SMOOTH",
"35 159 OFFCURVE",
"102 -12 OFFCURVE",
"330 -12 CURVE SMOOTH",
"558 -12 OFFCURVE",
"622 159 OFFCURVE",
"622 357 CURVE SMOOTH",
"622 387 OFFCURVE",
"621 417 OFFCURVE",
"618 446 CURVE",
"330 446 LINE",
"330 288 LINE",
"427 288 LINE",
"424 215 OFFCURVE",
"391 163 OFFCURVE",
"334 163 CURVE SMOOTH",
"254 163 OFFCURVE",
"235 252 OFFCURVE",
"235 357 CURVE SMOOTH"
);
}
);
width = 652;
},
{
layerId = "A498EE73-B8E0-478F-AD48-BB28716BB127";
width = 652;
},
{
layerId = "04E65C73-A9C2-4E63-92BC-18A513B12E25";
paths = (
{
closed = 1;
nodes = (
"567 430 OFFCURVE",
"468 430 OFFCURVE",
"368 432 CURVE",
"367 384 OFFCURVE",
"364 336 OFFCURVE",
"359.75 288 CURVE",
"406.75 289 OFFCURVE",
"451 289 OFFCURVE",
"498 288 CURVE",
"498 200 OFFCURVE",
"454 139 OFFCURVE",
"366 139 CURVE SMOOTH",
"257 139 OFFCURVE",
"220 222 OFFCURVE",
"220 360 CURVE SMOOTH",
"220 488 OFFCURVE",
"261 582 OFFCURVE",
"381.25 582 CURVE SMOOTH",
"441.75 582 OFFCURVE",
"497 565.75 OFFCURVE",
"557.25 545 CURVE",
"556.25 600 OFFCURVE",
"556.25 655 OFFCURVE",
"557.25 710 CURVE",
"496.5 726.75 OFFCURVE",
"435.25 732 OFFCURVE",
"368.5 732 CURVE SMOOTH",
"155 732 OFFCURVE",
"35 605 OFFCURVE",
"35 360 CURVE SMOOTH",
"35 119 OFFCURVE",
"143 -12 OFFCURVE",
"359 -12 CURVE SMOOTH",
"575 -12 OFFCURVE",
"671 128 OFFCURVE",
"671 360 CURVE SMOOTH",
"671 385 OFFCURVE",
"670 409 OFFCURVE",
"667 432 CURVE"
);
}
);
width = 706;
}
);
leftKerningGroup = G;
note = G;
rightKerningGroup = G;
unicode = 0047;
},
{
glyphname = H;
lastChange = "2026-05-29 16:15:18 +0000";
layers = (
{
layerId = m003;
paths = (
{
closed = 1;
nodes = (
"275 0 LINE",
"273 32 OFFCURVE",
"273 72 OFFCURVE",
"273 260 CURVE",
"292 261 OFFCURVE",
"530 261 OFFCURVE",
"550 260 CURVE",
"550 72 OFFCURVE",
"550 32 OFFCURVE",
"548 0 CURVE",
"784 0 LINE",
"783 33 OFFCURVE",
"782 100 OFFCURVE",
"782 376 CURVE SMOOTH",
"782 637 OFFCURVE",
"782 688 OFFCURVE",
"784 720 CURVE",
"548 720 LINE",
"550 689 OFFCURVE",
"550 634 OFFCURVE",
"550 459 CURVE",
"529 457 OFFCURVE",
"291 458 OFFCURVE",
"273 459 CURVE",
"273 634 OFFCURVE",
"273 689 OFFCURVE",
"275 720 CURVE",
"40 720 LINE",
"41 683 OFFCURVE",
"42 637 OFFCURVE",
"42 370 CURVE SMOOTH",
"42 102 OFFCURVE",
"42 33 OFFCURVE",
"40 0 CURVE"
);
}
);
width = 824;
},
{
layerId = "4050705C-5704-4184-B7B7-497C68798CAB";
paths = (
{
closed = 1;
nodes = (
"236 0 LINE",
"235 40 OFFCURVE",
"234 191 OFFCURVE",
"234 281 CURVE",
"268 281 OFFCURVE",
"339 281 OFFCURVE",
"384 282 CURVE",
"384 192 OFFCURVE",
"384 40 OFFCURVE",
"383 0 CURVE",
"580 0 LINE",
"579 42 OFFCURVE",
"578 243 OFFCURVE",
"578 365 CURVE SMOOTH",
"578 484 OFFCURVE",
"580 672 OFFCURVE",
"580 720 CURVE",
"383 720 LINE",
"383 680 OFFCURVE",
"384 550 OFFCURVE",
"384 460 CURVE",
"334 459 OFFCURVE",
"257 459 OFFCURVE",
"234 459 CURVE",
"234 549 OFFCURVE",
"236 680 OFFCURVE",
"236 720 CURVE",
"40 720 LINE",
"42 672 OFFCURVE",
"42 484 OFFCURVE",
"42 366 CURVE SMOOTH",
"42 244 OFFCURVE",
"41 42 OFFCURVE",
"40 0 CURVE"
);
}
);
width = 620;
},
{
layerId = "A498EE73-B8E0-478F-AD48-BB28716BB127";
paths = (
{
closed = 1;
nodes = (
"141.5 0 LINE",
"140.5 40 OFFCURVE",
"140 228 OFFCURVE",
"140 318 CURVE",
"159 318 OFFCURVE",
"334 319 OFFCURVE",
"373 319 CURVE",
"373 229 OFFCURVE",
"372.75 40 OFFCURVE",
"371.75 0 CURVE",
"478 0 LINE",
"477 42 OFFCURVE",
"476 243 OFFCURVE",
"476 365 CURVE SMOOTH",
"476 484 OFFCURVE",
"478 672 OFFCURVE",
"478 720 CURVE",
"372 720 LINE",
"372 680 OFFCURVE",
"373 506 OFFCURVE",
"373 416 CURVE",
"333 415 OFFCURVE",
"154 415 OFFCURVE",
"140 415 CURVE",
"140 505 OFFCURVE",
"142 680 OFFCURVE",
"142 720 CURVE",
"36 720 LINE",
"38 672 OFFCURVE",
"38.25 484 OFFCURVE",
"38.25 366 CURVE SMOOTH",
"38.25 244 OFFCURVE",
"37.25 42 OFFCURVE",
"36.25 0 CURVE"
);
}
);
width = 514.25;
},
{
layerId = "04E65C73-A9C2-4E63-92BC-18A513B12E25";
paths = (
{
closed = 1;
nodes = (
"152.75 0 LINE",
"150.75 32.75 OFFCURVE",
"150.75 128.25 OFFCURVE",
"150.75 321.5 CURVE",
"169.75 322.5 OFFCURVE",
"539.75 322.5 OFFCURVE",
"559.75 321.5 CURVE",
"559.75 128.25 OFFCURVE",
"559.75 32.75 OFFCURVE",
"557.75 0 CURVE",
"675.25 0 LINE",
"674.25 33 OFFCURVE",
"673.25 100 OFFCURVE",
"673.25 376 CURVE SMOOTH",
"673.25 637 OFFCURVE",
"673 688 OFFCURVE",
"675 720 CURVE",
"558 720 LINE",
"560 688 OFFCURVE",
"559.75 601 OFFCURVE",
"559.75 420.75 CURVE",
"538.75 418.75 OFFCURVE",
"168.75 419.75 OFFCURVE",
"150.75 420.75 CURVE",
"150.75 601 OFFCURVE",
"151 688 OFFCURVE",
"153 720 CURVE",
"36 720 LINE",
"37 683 OFFCURVE",
"38.25 637 OFFCURVE",
"38.25 370 CURVE SMOOTH",
"38.25 102 OFFCURVE",
"38.25 33 OFFCURVE",
"36.25 0 CURVE"
);
}
);
width = 711.5;
}
);
note = H;
unicode = 0048;
},
{
glyphname = I;
lastChange = "2026-05-28 22:11:58 +0000";
layers = (
{
layerId = m003;
paths = (
{
closed = 1;
nodes = (
"275 0 LINE",
"273 32 OFFCURVE",
"273 154 OFFCURVE",
"273 372 CURVE SMOOTH",
"273 547 OFFCURVE",
"273 690 OFFCURVE",
"275 721 CURVE",
"40 721 LINE",
"41 684 OFFCURVE",
"42 547 OFFCURVE",
"42 370 CURVE SMOOTH",
"42 142 OFFCURVE",
"42 33 OFFCURVE",
"40 0 CURVE"
);
}
);
width = 315;
},
{
layerId = "4050705C-5704-4184-B7B7-497C68798CAB";
paths = (
{
closed = 1;
nodes = (
"249 0 LINE",
"246 42 OFFCURVE",
"247 244 OFFCURVE",
"247 366 CURVE SMOOTH",
"247 484 OFFCURVE",
"247 673 OFFCURVE",
"249 721 CURVE",
"53 721 LINE",
"55 673 OFFCURVE",
"55 484 OFFCURVE",
"55 366 CURVE SMOOTH",
"55 244 OFFCURVE",
"54 42 OFFCURVE",
"53 0 CURVE"
);
}
);
width = 302;
},
{
layerId = "A498EE73-B8E0-478F-AD48-BB28716BB127";
paths = (
{
closed = 1;
nodes = (
"148.5 0 LINE",
"147 40.5 OFFCURVE",
"146.5 243.25 OFFCURVE",
"146.5 363.75 CURVE SMOOTH",
"146.5 490.75 OFFCURVE",
"148 679 OFFCURVE",
"148.5 721 CURVE",
"43.25 721 LINE",
"45.25 673 OFFCURVE",
"45.25 484 OFFCURVE",
"45.25 366 CURVE SMOOTH",
"45.25 244 OFFCURVE",
"44.25 42 OFFCURVE",
"43.25 0 CURVE"
);
}
);
width = 191.75;
},
{
layerId = "04E65C73-A9C2-4E63-92BC-18A513B12E25";
paths = (
{
closed = 1;
nodes = (
"165.5 0 LINE",
"164.25 35.75 OFFCURVE",
"163.5 169 OFFCURVE",
"163.5 358.5 CURVE SMOOTH",
"163.5 537.25 OFFCURVE",
"164.25 688.5 OFFCURVE",
"165.5 721 CURVE",
"49.75 721 LINE",
"50.75 684 OFFCURVE",
"51.75 547 OFFCURVE",
"51.75 358.75 CURVE SMOOTH",
"51.75 175.75 OFFCURVE",
"51 33 OFFCURVE",
"49.75 0 CURVE"
);
}
);
width = 215.25;
}
);
note = I;
unicode = 0049;
},
{
glyphname = J;
lastChange = "2026-05-28 22:11:58 +0000";
layers = (
{
layerId = m003;
paths = (
{
closed = 1;
nodes = (
"279 745 LINE",
"279 241 LINE SMOOTH",
"279 166 OFFCURVE",
"256 144 OFFCURVE",
"196 144 CURVE SMOOTH",
"139 144 OFFCURVE",
"93 170 OFFCURVE",
"43 198 CURVE",
"30 24 LINE",
"91 0 OFFCURVE",
"155 -12 OFFCURVE",
"221 -12 CURVE SMOOTH",
"378 -12 OFFCURVE",
"457 56 OFFCURVE",
"457 225 CURVE SMOOTH",
"457 745 LINE"
);
}
);
width = 513;
},
{
layerId = "4050705C-5704-4184-B7B7-497C68798CAB";
paths = (
{
closed = 1;
nodes = (
"372 214 LINE SMOOTH",
"372 70 OFFCURVE",
"291 -9 OFFCURVE",
"124 -9 CURVE SMOOTH",
"94 -9 OFFCURVE",
"64 -6 OFFCURVE",
"34 -3 CURVE",
"20 180 LINE",
"47 174 OFFCURVE",
"75 170 OFFCURVE",
"103 170 CURVE SMOOTH",
"152 170 OFFCURVE",
"176 189 OFFCURVE",
"176 228 CURVE SMOOTH",
"176 721 LINE",
"372 721 LINE"
);
}
);
width = 407;
},
{
layerId = "A498EE73-B8E0-478F-AD48-BB28716BB127";
paths = (
{
closed = 1;
nodes = (
"372 214 LINE SMOOTH",
"372 70 OFFCURVE",
"291 -9 OFFCURVE",
"124 -9 CURVE SMOOTH",
"94 -9 OFFCURVE",
"64 -6 OFFCURVE",
"34 -3 CURVE",
"20 180 LINE",
"47 174 OFFCURVE",
"75 170 OFFCURVE",
"103 170 CURVE SMOOTH",
"152 170 OFFCURVE",
"176 189 OFFCURVE",
"176 228 CURVE SMOOTH",
"176 721 LINE",
"372 721 LINE"
);
}
);
width = 407;
},
{
layerId = "04E65C73-A9C2-4E63-92BC-18A513B12E25";
paths = (
{
closed = 1;
nodes = (
"279 745 LINE",
"279 241 LINE SMOOTH",
"279 166 OFFCURVE",
"256 144 OFFCURVE",
"196 144 CURVE SMOOTH",
"139 144 OFFCURVE",
"93 170 OFFCURVE",
"43 198 CURVE",
"30 24 LINE",
"91 0 OFFCURVE",
"155 -12 OFFCURVE",
"221 -12 CURVE SMOOTH",
"378 -12 OFFCURVE",
"457 56 OFFCURVE",
"457 225 CURVE SMOOTH",
"457 745 LINE"
);
}
);
width = 513;
}
);
leftKerningGroup = J;
note = J;
unicode = 004A;
},
{
glyphname = K;
lastChange = "2026-05-28 22:11:58 +0000";
layers = (
{
layerId = m003;
paths = (
{
closed = 1;
nodes = (
"701 0 LINE",
"597 148 OFFCURVE",
"491 298 OFFCURVE",
"393 446 CURVE",
"389 399 LINE",
"484 506 OFFCURVE",
"580 614 OFFCURVE",
"677 721 CURVE",
"464 721 LINE",
"389 631 OFFCURVE",
"306 530 OFFCURVE",
"227 441 CURVE",
"227 531 OFFCURVE",
"227 631 OFFCURVE",
"229 721 CURVE",
"53 721 LINE",
"54 684 OFFCURVE",
"55 547 OFFCURVE",
"55 370 CURVE SMOOTH",
"55 187 OFFCURVE",
"54 33 OFFCURVE",
"53 0 CURVE",
"229 0 LINE",
"229 71 OFFCURVE",
"228 170 OFFCURVE",
"228 241 CURVE",
"326 345 LINE",
"279 314 LINE",
"350 210 OFFCURVE",
"419 104 OFFCURVE",
"487 0 CURVE"
);
}
);
width = 695;
},
{
layerId = "4050705C-5704-4184-B7B7-497C68798CAB";
paths = (
{
closed = 1;
nodes = (
"530 603 OFFCURVE",
"475 484 OFFCURVE",
"421 366 CURVE",
"479 244 OFFCURVE",
"539 122 OFFCURVE",
"599 0 CURVE",
"371 0 LINE",
"334 96 OFFCURVE",
"296 192 OFFCURVE",
"257 288 CURVE",
"247 288 LINE",
"247 192 OFFCURVE",
"248 56 OFFCURVE",
"249 0 CURVE",
"53 0 LINE",
"54 42 OFFCURVE",
"55 244 OFFCURVE",
"55 366 CURVE SMOOTH",
"55 484 OFFCURVE",
"55 673 OFFCURVE",
"53 721 CURVE",
"249 721 LINE",
"248 675 OFFCURVE",
"247 529 OFFCURVE",
"247 433 CURVE",
"257 433 LINE",
"302 529 OFFCURVE",
"346 625 OFFCURVE",
"389 721 CURVE",
"586 721 LINE"
);
}
);
width = 595;
},
{
layerId = "A498EE73-B8E0-478F-AD48-BB28716BB127";
paths = (
{
closed = 1;
nodes = (
"530 603 OFFCURVE",
"475 484 OFFCURVE",
"421 366 CURVE",
"479 244 OFFCURVE",
"539 122 OFFCURVE",
"599 0 CURVE",
"371 0 LINE",
"334 96 OFFCURVE",
"296 192 OFFCURVE",
"257 288 CURVE",
"247 288 LINE",
"247 192 OFFCURVE",
"248 56 OFFCURVE",
"249 0 CURVE",
"53 0 LINE",
"54 42 OFFCURVE",
"55 244 OFFCURVE",
"55 366 CURVE SMOOTH",
"55 484 OFFCURVE",
"55 673 OFFCURVE",
"53 721 CURVE",
"249 721 LINE",
"248 675 OFFCURVE",
"247 529 OFFCURVE",
"247 433 CURVE",
"257 433 LINE",
"302 529 OFFCURVE",
"346 625 OFFCURVE",
"389 721 CURVE",
"586 721 LINE"
);
}
);
width = 595;
},
{
layerId = "04E65C73-A9C2-4E63-92BC-18A513B12E25";
paths = (
{
closed = 1;
nodes = (
"626 0 LINE",
"522 148 OFFCURVE",
"416 298 OFFCURVE",
"318 446 CURVE",
"314 399 LINE",
"409 506 OFFCURVE",
"505 614 OFFCURVE",
"602 721 CURVE",
"389 721 LINE",
"314 631 OFFCURVE",
"231 530 OFFCURVE",
"152 441 CURVE",
"152 531 OFFCURVE",
"152 631 OFFCURVE",
"154 721 CURVE",
"53 721 LINE",
"54 684 OFFCURVE",
"55 547 OFFCURVE",
"55 370 CURVE SMOOTH",
"55 187 OFFCURVE",
"54 33 OFFCURVE",
"53 0 CURVE",
"154 0 LINE",
"154 71 OFFCURVE",
"153 170 OFFCURVE",
"153 241 CURVE",
"251 345 LINE",
"204 314 LINE",
"275 210 OFFCURVE",
"344 104 OFFCURVE",
"412 0 CURVE"
);
}
);
width = 695;
}
);
note = K;
rightKerningGroup = K;
unicode = 004B;
},
{
glyphname = L;
lastChange = "2026-05-28 22:11:58 +0000";
layers = (
{
layerId = m003;
paths = (
{
closed = 1;
nodes = (
"53 721 LINE",
"54 684 OFFCURVE",
"55 547 OFFCURVE",
"55 370 CURVE SMOOTH",
"55 187 OFFCURVE",
"54 33 OFFCURVE",
"53 0 CURVE",
"193 2 OFFCURVE",
"332 2 OFFCURVE",
"472 0 CURVE",
"475 53 OFFCURVE",
"480 105 OFFCURVE",
"485 158 CURVE",
"400 156 OFFCURVE",
"314 156 OFFCURVE",
"229 158 CURVE",
"228 195 OFFCURVE",
"227 232 OFFCURVE",
"227 409 CURVE SMOOTH",
"227 592 OFFCURVE",
"228 686 OFFCURVE",
"229 719 CURVE"
);
}
);
width = 497;
},
{
layerId = "4050705C-5704-4184-B7B7-497C68798CAB";
paths = (
{
closed = 1;
nodes = (
"301 1 OFFCURVE",
"187 1 OFFCURVE",
"53 0 CURVE",
"54 42 OFFCURVE",
"55 244 OFFCURVE",
"55 366 CURVE SMOOTH",
"55 484 OFFCURVE",
"55 673 OFFCURVE",
"53 721 CURVE",
"249 721 LINE",
"248 628 OFFCURVE",
"247 536 OFFCURVE",
"247 443 CURVE SMOOTH",
"247 355 OFFCURVE",
"248 266 OFFCURVE",
"249 178 CURVE",
"317 177 OFFCURVE",
"386 177 OFFCURVE",
"454 178 CURVE",
"446 118 OFFCURVE",
"439 58 OFFCURVE",
"435 0 CURVE"
);
}
);
width = 466;
},
{
layerId = "A498EE73-B8E0-478F-AD48-BB28716BB127";
width = 466;
},
{
layerId = "04E65C73-A9C2-4E63-92BC-18A513B12E25";
paths = (
{
closed = 1;
nodes = (
"53 721 LINE",
"54 684 OFFCURVE",
"55 547 OFFCURVE",
"55 370 CURVE SMOOTH",
"55 187 OFFCURVE",
"54 33 OFFCURVE",
"53 0 CURVE",
"193 2 OFFCURVE",
"332 2 OFFCURVE",
"472 0 CURVE",
"475 53 OFFCURVE",
"480 105 OFFCURVE",
"485 158 CURVE",
"400 156 OFFCURVE",
"314 156 OFFCURVE",
"229 158 CURVE",
"228 195 OFFCURVE",
"227 232 OFFCURVE",
"227 409 CURVE SMOOTH",
"227 592 OFFCURVE",
"228 686 OFFCURVE",
"229 719 CURVE"
);
}
);
width = 497;
}
);
note = L;
rightKerningGroup = L;
unicode = 004C;
},
{
glyphname = M;
lastChange = "2026-05-28 22:11:58 +0000";
layers = (
{
layerId = m003;
paths = (
{
closed = 1;
nodes = (
"602 721 LINE",
"562 650 OFFCURVE",
"477 505 OFFCURVE",
"411 397 CURVE",
"346 505 OFFCURVE",
"266 641 OFFCURVE",
"220 721 CURVE",
"53 721 LINE",
"54 684 OFFCURVE",
"55 547 OFFCURVE",
"55 370 CURVE SMOOTH",
"55 187 OFFCURVE",
"54 33 OFFCURVE",
"53 0 CURVE",
"229 0 LINE",
"227 130 OFFCURVE",
"226 259 OFFCURVE",
"228 391 CURVE",
"290 286 OFFCURVE",
"351 183 OFFCURVE",
"411 80 CURVE",
"471 183 OFFCURVE",
"533 288 OFFCURVE",
"595 391 CURVE",
"597 261 OFFCURVE",
"595 130 OFFCURVE",
"593 0 CURVE",
"769 0 LINE",
"768 37 OFFCURVE",
"767 174 OFFCURVE",
"767 351 CURVE SMOOTH",
"767 534 OFFCURVE",
"768 688 OFFCURVE",
"769 721 CURVE"
);
}
);
width = 822;
},
{
layerId = "4050705C-5704-4184-B7B7-497C68798CAB";
paths = (
{
closed = 1;
nodes = (
"225 721 LINE",
"275 615 OFFCURVE",
"327 511 OFFCURVE",
"379 407 CURVE",
"432 511 OFFCURVE",
"483 615 OFFCURVE",
"534 721 CURVE",
"706 721 LINE",
"706 673 OFFCURVE",
"704 484 OFFCURVE",
"704 365 CURVE SMOOTH",
"704 243 OFFCURVE",
"705 42 OFFCURVE",
"706 0 CURVE",
"510 0 LINE",
"511 105 OFFCURVE",
"511 209 OFFCURVE",
"511 314 CURVE",
"466 227 OFFCURVE",
"422 138 OFFCURVE",
"379 49 CURVE",
"337 138 OFFCURVE",
"292 227 OFFCURVE",
"248 314 CURVE",
"248 209 OFFCURVE",
"248 105 OFFCURVE",
"249 0 CURVE",
"53 0 LINE",
"54 42 OFFCURVE",
"55 244 OFFCURVE",
"55 366 CURVE SMOOTH",
"55 484 OFFCURVE",
"55 673 OFFCURVE",
"53 721 CURVE"
);
}
);
width = 759;
},
{
layerId = "A498EE73-B8E0-478F-AD48-BB28716BB127";
paths = (
{
closed = 1;
nodes = (
"225 721 LINE",
"275 615 OFFCURVE",
"327 511 OFFCURVE",
"379 407 CURVE",
"432 511 OFFCURVE",
"483 615 OFFCURVE",
"534 721 CURVE",
"706 721 LINE",
"706 673 OFFCURVE",
"704 484 OFFCURVE",
"704 365 CURVE SMOOTH",
"704 243 OFFCURVE",
"705 42 OFFCURVE",
"706 0 CURVE",
"510 0 LINE",
"511 105 OFFCURVE",
"511 209 OFFCURVE",
"511 314 CURVE",
"466 227 OFFCURVE",
"422 138 OFFCURVE",
"379 49 CURVE",
"337 138 OFFCURVE",
"292 227 OFFCURVE",
"248 314 CURVE",
"248 209 OFFCURVE",
"248 105 OFFCURVE",
"249 0 CURVE",
"53 0 LINE",
"54 42 OFFCURVE",
"55 244 OFFCURVE",
"55 366 CURVE SMOOTH",
"55 484 OFFCURVE",
"55 673 OFFCURVE",
"53 721 CURVE"
);
}
);
width = 759;
},
{
layerId = "04E65C73-A9C2-4E63-92BC-18A513B12E25";
paths = (
{
closed = 1;
nodes = (
"602 721 LINE",
"562 650 OFFCURVE",
"477 505 OFFCURVE",
"411 397 CURVE",
"346.75 505.75 OFFCURVE",
"266.75 641.75 OFFCURVE",
"220 721 CURVE",
"53 721 LINE",
"54 684 OFFCURVE",
"55 547 OFFCURVE",
"55 370 CURVE SMOOTH",
"55 187 OFFCURVE",
"54 33 OFFCURVE",
"53 0 CURVE",
"229 0 LINE",
"227 130 OFFCURVE",
"226 259 OFFCURVE",
"228 391 CURVE",
"290 286 OFFCURVE",
"351 183 OFFCURVE",
"411 80 CURVE",
"471 183 OFFCURVE",
"533 288 OFFCURVE",
"595 391 CURVE",
"597 261 OFFCURVE",
"595 130 OFFCURVE",
"593 0 CURVE",
"769 0 LINE",
"768 37 OFFCURVE",
"767 174 OFFCURVE",
"767 351 CURVE SMOOTH",
"767 534 OFFCURVE",
"768 688 OFFCURVE",
"769 721 CURVE"
);
}
);
width = 822;
}
);
note = M;
unicode = 004D;
},
{
glyphname = N;
lastChange = "2026-05-28 22:11:58 +0000";
layers = (
{
layerId = m003;
paths = (
{
closed = 1;
nodes = (
"278 0 LINE",
"278 48 OFFCURVE",
"276 235 OFFCURVE",
"276 353 CURVE SMOOTH",
"276 631 LINE",
"105 552 LINE",
"266 372 OFFCURVE",
"431 184 OFFCURVE",
"572 0 CURVE",
"792 0 LINE",
"790 48 OFFCURVE",
"790 237 OFFCURVE",
"790 356 CURVE SMOOTH",
"790 478 OFFCURVE",
"791 679 OFFCURVE",
"792 721 CURVE",
"554 721 LINE",
"554 671 OFFCURVE",
"556 481 OFFCURVE",
"556 361 CURVE SMOOTH",
"556 118 LINE",
"567 336 LINE",
"462 459 OFFCURVE",
"359 588 OFFCURVE",
"258 721 CURVE",
"40 721 LINE",
"41 679 OFFCURVE",
"42 477 OFFCURVE",
"42 355 CURVE SMOOTH",
"42 237 OFFCURVE",
"41 48 OFFCURVE",
"40 0 CURVE"
);
}
);
width = 832;
},
{
layerId = "4050705C-5704-4184-B7B7-497C68798CAB";
paths = (
{
closed = 1;
nodes = (
"241 0 LINE",
"240 107 OFFCURVE",
"240 212 OFFCURVE",
"241 319 CURVE",
"241 329 LINE",
"227 325 LINE",
"285 218 OFFCURVE",
"340 110 OFFCURVE",
"396 0 CURVE",
"574 0 LINE",
"572 48 OFFCURVE",
"572 237 OFFCURVE",
"572 356 CURVE SMOOTH",
"572 478 OFFCURVE",
"573 679 OFFCURVE",
"574 721 CURVE",
"373 721 LINE",
"374 618 OFFCURVE",
"374 515 OFFCURVE",
"373 411 CURVE",
"373 391 LINE",
"387 395 LINE",
"329 502 OFFCURVE",
"274 611 OFFCURVE",
"218 721 CURVE",
"40 721 LINE",
"41 679 OFFCURVE",
"42 477 OFFCURVE",
"42 355 CURVE SMOOTH",
"42 237 OFFCURVE",
"41 48 OFFCURVE",
"40 0 CURVE"
);
}
);
width = 614;
},
{
layerId = "A498EE73-B8E0-478F-AD48-BB28716BB127";
paths = (
{
closed = 1;
nodes = (
"142.75 0 LINE",
"142.5 62.75 OFFCURVE",
"141 229.25 OFFCURVE",
"141.25 344.5 CURVE SMOOTH",
"141.25 533 LINE",
"131.75 517.75 LINE",
"219 350 OFFCURVE",
"306.25 170.75 OFFCURVE",
"390.75 0 CURVE",
"480.25 0 LINE",
"478.25 48 OFFCURVE",
"478.25 237 OFFCURVE",
"478.25 356 CURVE SMOOTH",
"478.25 478 OFFCURVE",
"479.25 679 OFFCURVE",
"480.25 721 CURVE",
"373.75 721 LINE",
"374 657.75 OFFCURVE",
"376.25 489.5 OFFCURVE",
"375.25 373.5 CURVE SMOOTH",
"374.5 216.25 LINE",
"384.75 230.75 LINE",
"302 390.25 OFFCURVE",
"219.25 560 OFFCURVE",
"139.25 721 CURVE",
"36.25 721 LINE",
"37.25 679 OFFCURVE",
"38.25 477 OFFCURVE",
"38.25 355 CURVE SMOOTH",
"38.25 237 OFFCURVE",
"37.25 48 OFFCURVE",
"36.25 0 CURVE"
);
}
);
width = 516.5;
},
{
layerId = "04E65C73-A9C2-4E63-92BC-18A513B12E25";
paths = (
{
closed = 1;
nodes = (
"154.25 0 LINE",
"154.25 48 OFFCURVE",
"152.25 235 OFFCURVE",
"152.25 353 CURVE SMOOTH",
"152.25 631 LINE",
"101.25 597 LINE",
"260 400.5 OFFCURVE",
"417.5 200.5 OFFCURVE",
"568.25 0 CURVE",
"668.25 0 LINE",
"666.25 48 OFFCURVE",
"666.25 237 OFFCURVE",
"666.25 356 CURVE SMOOTH",
"666.25 478 OFFCURVE",
"667.25 679 OFFCURVE",
"668.25 721 CURVE",
"550.25 721 LINE",
"550.25 671 OFFCURVE",
"552.25 481 OFFCURVE",
"552.25 361 CURVE SMOOTH",
"552.25 118 LINE",
"563.25 186 LINE",
"423 362.25 OFFCURVE",
"285.5 540.75 OFFCURVE",
"149.25 721 CURVE",
"36.25 721 LINE",
"37.25 679 OFFCURVE",
"38.25 477 OFFCURVE",
"38.25 355 CURVE SMOOTH",
"38.25 237 OFFCURVE",
"37.25 48 OFFCURVE",
"36.25 0 CURVE"
);
}
);
width = 704.5;
}
);
leftMetricsKey = H;
note = N;
rightMetricsKey = H;
unicode = 004E;
},
{
glyphname = O;
lastChange = "2026-05-29 16:15:49 +0000";
layers = (
{
layerId = m003;
paths = (
{
closed = 1;
nodes = (
"684 -12 OFFCURVE",
"858 132 OFFCURVE",
"858 360 CURVE SMOOTH",
"858 588 OFFCURVE",
"684 731 OFFCURVE",
"439 731 CURVE SMOOTH",
"194 731 OFFCURVE",
"20 588 OFFCURVE",
"20 360 CURVE SMOOTH",
"20 132 OFFCURVE",
"194 -12 OFFCURVE",
"439 -12 CURVE SMOOTH"
);
},
{
closed = 1;
nodes = (
"323 189 OFFCURVE",
"265 261 OFFCURVE",
"265 360 CURVE SMOOTH",
"265 458 OFFCURVE",
"323 531 OFFCURVE",
"439 531 CURVE SMOOTH",
"555 531 OFFCURVE",
"613 458 OFFCURVE",
"613 360 CURVE SMOOTH",
"613 261 OFFCURVE",
"555 189 OFFCURVE",
"439 189 CURVE SMOOTH"
);
}
);
width = 878;
},
{
layerId = "4050705C-5704-4184-B7B7-497C68798CAB";
paths = (
{
closed = 1;
nodes = (
"549 -12 OFFCURVE",
"611 159 OFFCURVE",
"611 357 CURVE SMOOTH",
"611 558 OFFCURVE",
"549 731 OFFCURVE",
"315 731 CURVE SMOOTH",
"82 731 OFFCURVE",
"20 558 OFFCURVE",
"20 357 CURVE SMOOTH",
"20 159 OFFCURVE",
"82 -12 OFFCURVE",
"315 -12 CURVE SMOOTH"
);
},
{
closed = 1;
nodes = (
"241 163 OFFCURVE",
"221 252 OFFCURVE",
"221 357 CURVE SMOOTH",
"221 465 OFFCURVE",
"241 556 OFFCURVE",
"315 556 CURVE SMOOTH",
"389 556 OFFCURVE",
"410 465 OFFCURVE",
"410 357 CURVE SMOOTH",
"410 252 OFFCURVE",
"389 163 OFFCURVE",
"315 163 CURVE SMOOTH"
);
}
);
width = 631;
},
{
layerId = "A498EE73-B8E0-478F-AD48-BB28716BB127";
paths = (
{
closed = 1;
nodes = (
"438 -12 OFFCURVE",
"512 123.75 OFFCURVE",
"512 357 CURVE SMOOTH",
"512 593 OFFCURVE",
"438 731 OFFCURVE",
"265 731 CURVE SMOOTH",
"92 731 OFFCURVE",
"19 593 OFFCURVE",
"18.5 357 CURVE SMOOTH",
"18.5 123.75 OFFCURVE",
"91.75 -12 OFFCURVE",
"264.75 -12 CURVE SMOOTH"
);
},
{
closed = 1;
nodes = (
"169 81.25 OFFCURVE",
"125 180 OFFCURVE",
"125 357 CURVE SMOOTH",
"125 536 OFFCURVE",
"170 637 OFFCURVE",
"265 637 CURVE SMOOTH",
"361 637 OFFCURVE",
"406 536 OFFCURVE",
"405.5 357 CURVE SMOOTH",
"405.5 180.75 OFFCURVE",
"360.5 81.25 OFFCURVE",
"264.75 81.25 CURVE SMOOTH"
);
}
);
width = 530.5;
},
{
layerId = "04E65C73-A9C2-4E63-92BC-18A513B12E25";
paths = (
{
closed = 1;
nodes = (
"609 -12 OFFCURVE",
"762 124.5 OFFCURVE",
"762 360 CURVE SMOOTH",
"762 596 OFFCURVE",
"610 731 OFFCURVE",
"398 731 CURVE SMOOTH",
"176 731 OFFCURVE",
"19 596 OFFCURVE",
"18.5 360 CURVE SMOOTH",
"18.5 124.5 OFFCURVE",
"177.5 -12 OFFCURVE",
"397.75 -12 CURVE SMOOTH"
);
},
{
closed = 1;
nodes = (
"245.75 87.75 OFFCURVE",
"135.25 186.75 OFFCURVE",
"135.25 360 CURVE SMOOTH",
"135 533 OFFCURVE",
"246 632 OFFCURVE",
"398 632 CURVE SMOOTH",
"541 632 OFFCURVE",
"645 533 OFFCURVE",
"645.25 360 CURVE SMOOTH",
"645.25 186.75 OFFCURVE",
"540.75 87.75 OFFCURVE",
"397.75 87.75 CURVE SMOOTH"
);
}
);
width = 780.5;
}
);
leftKerningGroup = O;
note = O;
rightKerningGroup = O;
unicode = 004F;
},
{
glyphname = P;
lastChange = "2026-05-28 22:11:58 +0000";
layers = (
{
layerId = m003;
paths = (
{
closed = 1;
nodes = (
"229 0 LINE",
"227 38 OFFCURVE",
"227 156 OFFCURVE",
"227 234 CURVE",
"358 234 LINE SMOOTH",
"517 234 OFFCURVE",
"604 342 OFFCURVE",
"604 478 CURVE SMOOTH",
"604 613 OFFCURVE",
"517 721 OFFCURVE",
"358 721 CURVE SMOOTH",
"53 721 LINE",
"54 684 OFFCURVE",
"55 547 OFFCURVE",
"55 370 CURVE SMOOTH",
"55 187 OFFCURVE",
"54 33 OFFCURVE",
"53 0 CURVE"
);
},
{
closed = 1;
nodes = (
"227 425 OFFCURVE",
"227 540 OFFCURVE",
"229 575 CURVE",
"325 575 LINE SMOOTH",
"398 575 OFFCURVE",
"432 548 OFFCURVE",
"432 477 CURVE SMOOTH",
"432 409 OFFCURVE",
"397 380 OFFCURVE",
"325 380 CURVE SMOOTH",
"227 380 LINE"
);
}
);
width = 625;
},
{
layerId = "4050705C-5704-4184-B7B7-497C68798CAB";
paths = (
{
closed = 1;
nodes = (
"249 0 LINE",
"248 85 OFFCURVE",
"247 171 OFFCURVE",
"247 256 CURVE",
"309 256 LINE SMOOTH",
"504 256 OFFCURVE",
"565 367 OFFCURVE",
"565 489 CURVE SMOOTH",
"565 607 OFFCURVE",
"503 721 OFFCURVE",
"309 721 CURVE SMOOTH",
"53 721 LINE",
"55 673 OFFCURVE",
"55 484 OFFCURVE",
"55 366 CURVE SMOOTH",
"55 244 OFFCURVE",
"54 42 OFFCURVE",
"53 0 CURVE"
);
},
{
closed = 1;
nodes = (
"248 463 OFFCURVE",
"247 513 OFFCURVE",
"247 562 CURVE",
"294 562 LINE SMOOTH",
"341 562 OFFCURVE",
"365 531 OFFCURVE",
"365 489 CURVE SMOOTH",
"365 447 OFFCURVE",
"341 414 OFFCURVE",
"294 414 CURVE SMOOTH",
"247 414 LINE"
);
}
);
width = 570;
},
{
layerId = "A498EE73-B8E0-478F-AD48-BB28716BB127";
paths = (
{
closed = 1;
nodes = (
"249 0 LINE",
"248 85 OFFCURVE",
"247 171 OFFCURVE",
"247 256 CURVE",
"309 256 LINE SMOOTH",
"504 256 OFFCURVE",
"565 367 OFFCURVE",
"565 489 CURVE SMOOTH",
"565 607 OFFCURVE",
"503 721 OFFCURVE",
"309 721 CURVE SMOOTH",
"53 721 LINE",
"55 673 OFFCURVE",
"55 484 OFFCURVE",
"55 366 CURVE SMOOTH",
"55 244 OFFCURVE",
"54 42 OFFCURVE",
"53 0 CURVE"
);
},
{
closed = 1;
nodes = (
"248 463 OFFCURVE",
"247 513 OFFCURVE",
"247 562 CURVE",
"294 562 LINE SMOOTH",
"341 562 OFFCURVE",
"365 531 OFFCURVE",
"365 489 CURVE SMOOTH",
"365 447 OFFCURVE",
"341 414 OFFCURVE",
"294 414 CURVE SMOOTH",
"247 414 LINE"
);
}
);
width = 570;
},
{
layerId = "04E65C73-A9C2-4E63-92BC-18A513B12E25";
paths = (
{
closed = 1;
nodes = (
"229 0 LINE",
"227 38 OFFCURVE",
"227 156 OFFCURVE",
"227 234 CURVE",
"358 234 LINE SMOOTH",
"517 234 OFFCURVE",
"604 342 OFFCURVE",
"604 478 CURVE SMOOTH",
"604 613 OFFCURVE",
"517 721 OFFCURVE",
"358 721 CURVE SMOOTH",
"53 721 LINE",
"54 684 OFFCURVE",
"55 547 OFFCURVE",
"55 370 CURVE SMOOTH",
"55 187 OFFCURVE",
"54 33 OFFCURVE",
"53 0 CURVE"
);
},
{
closed = 1;
nodes = (
"227 425 OFFCURVE",
"227 540 OFFCURVE",
"229 575 CURVE",
"325 575 LINE SMOOTH",
"398 575 OFFCURVE",
"432 548 OFFCURVE",
"432 477 CURVE SMOOTH",
"432 409 OFFCURVE",
"397 380 OFFCURVE",
"325 380 CURVE SMOOTH",
"227 380 LINE"
);
}
);
width = 625;
}
);
note = P;
rightKerningGroup = P;
unicode = 0050;
},
{
glyphname = Q;
lastChange = "2026-05-28 22:11:58 +0000";
layers = (
{
layerId = m003;
paths = (
{
closed = 1;
nodes = (
"627 90 OFFCURVE",
"678 202 OFFCURVE",
"678 360 CURVE SMOOTH",
"678 598 OFFCURVE",
"560 732 OFFCURVE",
"354 732 CURVE SMOOTH",
"148 732 OFFCURVE",
"30 598 OFFCURVE",
"30 360 CURVE SMOOTH",
"30 121 OFFCURVE",
"148 -12 OFFCURVE",
"354 -12 CURVE SMOOTH",
"394 -12 OFFCURVE",
"431 -7 OFFCURVE",
"464 2 CURVE",
"467 -17 OFFCURVE",
"496 -132 OFFCURVE",
"657 -132 CURVE",
"660 -67 OFFCURVE",
"664 -1 OFFCURVE",
"671 64 CURVE",
"671 64 OFFCURVE",
"632 27 OFFCURVE",
"565 27 CURVE SMOOTH",
"553 27 OFFCURVE",
"541 29 OFFCURVE",
"532 32 CURVE"
);
},
{
closed = 1;
nodes = (
"254 138 OFFCURVE",
"215 232 OFFCURVE",
"215 360 CURVE SMOOTH",
"215 488 OFFCURVE",
"254 581 OFFCURVE",
"354 581 CURVE SMOOTH",
"454 581 OFFCURVE",
"493 488 OFFCURVE",
"493 360 CURVE SMOOTH",
"493 232 OFFCURVE",
"454 138 OFFCURVE",
"354 138 CURVE SMOOTH"
);
}
);
width = 708;
},
{
layerId = "4050705C-5704-4184-B7B7-497C68798CAB";
paths = (
{
closed = 1;
nodes = (
"589 86 OFFCURVE",
"620 214 OFFCURVE",
"620 357 CURVE SMOOTH",
"620 554 OFFCURVE",
"559 726 OFFCURVE",
"325 726 CURVE SMOOTH",
"91 726 OFFCURVE",
"30 554 OFFCURVE",
"30 357 CURVE SMOOTH",
"30 159 OFFCURVE",
"91 -12 OFFCURVE",
"325 -12 CURVE SMOOTH",
"357 -12 OFFCURVE",
"386 -9 OFFCURVE",
"412 -3 CURVE",
"413 -13 OFFCURVE",
"434 -160 OFFCURVE",
"566 -160 CURVE SMOOTH",
"582 -160 LINE",
"596 20 LINE",
"596 20 OFFCURVE",
"566 5 OFFCURVE",
"535 5 CURVE SMOOTH",
"502 5 OFFCURVE",
"486 22 OFFCURVE",
"484 25 CURVE"
);
},
{
closed = 1;
nodes = (
"251 163 OFFCURVE",
"230 251 OFFCURVE",
"230 357 CURVE SMOOTH",
"230 462 OFFCURVE",
"251 550 OFFCURVE",
"325 550 CURVE SMOOTH",
"399 550 OFFCURVE",
"420 462 OFFCURVE",
"420 357 CURVE SMOOTH",
"420 251 OFFCURVE",
"399 163 OFFCURVE",
"325 163 CURVE SMOOTH"
);
}
);
width = 650;
},
{
layerId = "A498EE73-B8E0-478F-AD48-BB28716BB127";
paths = (
{
closed = 1;
nodes = (
"589 86 OFFCURVE",
"620 214 OFFCURVE",
"620 357 CURVE SMOOTH",
"620 554 OFFCURVE",
"559 726 OFFCURVE",
"325 726 CURVE SMOOTH",
"91 726 OFFCURVE",
"30 554 OFFCURVE",
"30 357 CURVE SMOOTH",
"30 159 OFFCURVE",
"91 -12 OFFCURVE",
"325 -12 CURVE SMOOTH",
"357 -12 OFFCURVE",
"386 -9 OFFCURVE",
"412 -3 CURVE",
"413 -13 OFFCURVE",
"434 -160 OFFCURVE",
"566 -160 CURVE SMOOTH",
"582 -160 LINE",
"596 20 LINE",
"596 20 OFFCURVE",
"566 5 OFFCURVE",
"535 5 CURVE SMOOTH",
"502 5 OFFCURVE",
"486 22 OFFCURVE",
"484 25 CURVE"
);
},
{
closed = 1;
nodes = (
"251 163 OFFCURVE",
"230 251 OFFCURVE",
"230 357 CURVE SMOOTH",
"230 462 OFFCURVE",
"251 550 OFFCURVE",
"325 550 CURVE SMOOTH",
"399 550 OFFCURVE",
"420 462 OFFCURVE",
"420 357 CURVE SMOOTH",
"420 251 OFFCURVE",
"399 163 OFFCURVE",
"325 163 CURVE SMOOTH"
);
}
);
width = 650;
},
{
layerId = "04E65C73-A9C2-4E63-92BC-18A513B12E25";
paths = (
{
closed = 1;
nodes = (
"627 90 OFFCURVE",
"678 202 OFFCURVE",
"678 360 CURVE SMOOTH",
"678 598 OFFCURVE",
"560 732 OFFCURVE",
"354 732 CURVE SMOOTH",
"148 732 OFFCURVE",
"30 598 OFFCURVE",
"30 360 CURVE SMOOTH",
"30 121 OFFCURVE",
"148 -12 OFFCURVE",
"354 -12 CURVE SMOOTH",
"394 -12 OFFCURVE",
"431 -7 OFFCURVE",
"464 2 CURVE",
"467 -17 OFFCURVE",
"496 -132 OFFCURVE",
"657 -132 CURVE",
"660 -67 OFFCURVE",
"664 -1 OFFCURVE",
"671 64 CURVE",
"671 64 OFFCURVE",
"632 27 OFFCURVE",
"565 27 CURVE SMOOTH",
"553 27 OFFCURVE",
"541 29 OFFCURVE",
"532 32 CURVE"
);
},
{
closed = 1;
nodes = (
"254 138 OFFCURVE",
"215 232 OFFCURVE",
"215 360 CURVE SMOOTH",
"215 488 OFFCURVE",
"254 581 OFFCURVE",
"354 581 CURVE SMOOTH",
"454 581 OFFCURVE",
"493 488 OFFCURVE",
"493 360 CURVE SMOOTH",
"493 232 OFFCURVE",
"454 138 OFFCURVE",
"354 138 CURVE SMOOTH"
);
}
);
width = 708;
}
);
unicode = 0051;
},
{
glyphname = R;
lastChange = "2026-05-29 16:15:07 +0000";
layers = (
{
layerId = m003;
paths = (
{
closed = 1;
nodes = (
"276 0 LINE",
"274 35 OFFCURVE",
"274 145 OFFCURVE",
"274 186 CURVE",
"490 186 LINE SMOOTH",
"668 186 OFFCURVE",
"766 301 OFFCURVE",
"766 458 CURVE SMOOTH",
"766 615 OFFCURVE",
"663 720 OFFCURVE",
"489 720 CURVE SMOOTH",
"348 720 OFFCURVE",
"172 720 OFFCURVE",
"40 720 CURVE",
"41 683 OFFCURVE",
"42 546 OFFCURVE",
"42 369 CURVE SMOOTH",
"42 186 OFFCURVE",
"41 33 OFFCURVE",
"40 0 CURVE"
);
},
{
closed = 1;
nodes = (
"774 0 LINE",
"734 45 OFFCURVE",
"659 179 OFFCURVE",
"600 338 CURVE",
"385 284 LINE",
"439 128 OFFCURVE",
"480 45 OFFCURVE",
"520 0 CURVE"
);
},
{
closed = 1;
nodes = (
"274 398 OFFCURVE",
"274 494 OFFCURVE",
"276 544 CURVE",
"316 544 OFFCURVE",
"376 544 OFFCURVE",
"416 544 CURVE SMOOTH",
"484 544 OFFCURVE",
"527 515 OFFCURVE",
"527 452 CURVE SMOOTH",
"527 384 OFFCURVE",
"484 358 OFFCURVE",
"416 358 CURVE SMOOTH",
"377 358 OFFCURVE",
"306 358 OFFCURVE",
"274 359 CURVE"
);
}
);
width = 788;
},
{
associatedMasterId = m003;
layerId = "8A7E0FDB-B377-4F0B-8006-E49868B5AB9B";
name = "May 7, 26 at 10:23";
paths = (
{
closed = 1;
nodes = (
"570 283 OFFCURVE",
"540 322 OFFCURVE",
"495 339 CURVE",
"512 345 OFFCURVE",
"599 379 OFFCURVE",
"599 508 CURVE SMOOTH",
"599 638 OFFCURVE",
"515 721 OFFCURVE",
"372 721 CURVE SMOOTH",
"53 721 LINE",
"53 0 LINE",
"229 0 LINE",
"229 267 LINE",
"272 267 LINE SMOOTH",
"365 267 OFFCURVE",
"405 235 OFFCURVE",
"421 146 CURVE SMOOTH",
"441 38 OFFCURVE",
"448 18 OFFCURVE",
"457 0 CURVE",
"652 0 LINE",
"628 30 OFFCURVE",
"598 136 OFFCURVE",
"584 208 CURVE SMOOTH"
);
},
{
closed = 1;
nodes = (
"229 575 LINE",
"339 575 LINE SMOOTH",
"389 575 OFFCURVE",
"420 549 OFFCURVE",
"420 493 CURVE SMOOTH",
"420 432 OFFCURVE",
"389 410 OFFCURVE",
"339 410 CURVE SMOOTH",
"229 410 LINE"
);
}
);
width = 640;
},
{
associatedMasterId = m003;
layerId = "2A4B25B0-188B-4BEF-9FD7-4540C8E8852A";
name = "May 7, 26 at 13:17";
paths = (
{
closed = 1;
nodes = (
"567 282 OFFCURVE",
"540 322 OFFCURVE",
"495 339 CURVE",
"512 345 OFFCURVE",
"599 379 OFFCURVE",
"599 508 CURVE SMOOTH",
"599 638 OFFCURVE",
"515 721 OFFCURVE",
"372 721 CURVE SMOOTH",
"266 721 OFFCURVE",
"159 721 OFFCURVE",
"53 721 CURVE",
"54 684 OFFCURVE",
"55 547 OFFCURVE",
"55 370 CURVE SMOOTH",
"55 187 OFFCURVE",
"54 33 OFFCURVE",
"53 0 CURVE",
"229 0 LINE",
"227 49 OFFCURVE",
"227 208 OFFCURVE",
"227 267 CURVE",
"272 267 LINE SMOOTH",
"364 267 OFFCURVE",
"404 236 OFFCURVE",
"419 153 CURVE SMOOTH",
"428 102 LINE SMOOTH",
"439 38 OFFCURVE",
"447 12 OFFCURVE",
"456 0 CURVE",
"642 0 LINE",
"633 12 OFFCURVE",
"619 59 OFFCURVE",
"603 126 CURVE SMOOTH",
"584 208 LINE SMOOTH"
);
},
{
closed = 1;
nodes = (
"227 445 OFFCURVE",
"227 530 OFFCURVE",
"229 575 CURVE",
"266 575 OFFCURVE",
"302 575 OFFCURVE",
"339 575 CURVE SMOOTH",
"389 575 OFFCURVE",
"420 549 OFFCURVE",
"420 493 CURVE SMOOTH",
"420 432 OFFCURVE",
"389 409 OFFCURVE",
"339 409 CURVE SMOOTH",
"302 409 OFFCURVE",
"264 409 OFFCURVE",
"227 410 CURVE"
);
}
);
width = 640;
},
{
layerId = "4050705C-5704-4184-B7B7-497C68798CAB";
paths = (
{
closed = 1;
nodes = (
"236 0 LINE",
"235 93 OFFCURVE",
"235 173 OFFCURVE",
"234 266 CURVE",
"296 267 LINE SMOOTH",
"462 270 OFFCURVE",
"552 347 OFFCURVE",
"552 485 CURVE SMOOTH",
"552 645 OFFCURVE",
"464 720 OFFCURVE",
"301 720 CURVE SMOOTH",
"214 720 OFFCURVE",
"127 720 OFFCURVE",
"40 720 CURVE",
"42 678 OFFCURVE",
"42 476 OFFCURVE",
"42 354 CURVE SMOOTH",
"42 236 OFFCURVE",
"42 48 OFFCURVE",
"40 0 CURVE"
);
},
{
closed = 1;
nodes = (
"574 0 LINE",
"558 37 OFFCURVE",
"486 201 OFFCURVE",
"444 338 CURVE",
"276 284 LINE",
"314 148 OFFCURVE",
"358 31 OFFCURVE",
"370 0 CURVE"
);
},
{
closed = 1;
nodes = (
"235 456 OFFCURVE",
"234 514 OFFCURVE",
"235 562 CURVE",
"250 562 OFFCURVE",
"266 562 OFFCURVE",
"281 562 CURVE SMOOTH",
"328 562 OFFCURVE",
"352 527 OFFCURVE",
"352 485 CURVE SMOOTH",
"352 443 OFFCURVE",
"328 409 OFFCURVE",
"281 409 CURVE SMOOTH",
"265 409 OFFCURVE",
"250 408 OFFCURVE",
"234 408 CURVE"
);
}
);
width = 588;
},
{
associatedMasterId = "4050705C-5704-4184-B7B7-497C68798CAB";
layerId = "99D74035-CB04-4A62-8090-C94C65E98FFE";
name = "May 6, 26 at 13:26";
paths = (
{
closed = 1;
nodes = (
"539 300 OFFCURVE",
"484 327 OFFCURVE",
"463 335 CURVE",
"463 343 LINE",
"489 357 OFFCURVE",
"565 405 OFFCURVE",
"565 517 CURVE SMOOTH",
"565 651 OFFCURVE",
"477 721 OFFCURVE",
"314 721 CURVE SMOOTH",
"53 721 LINE",
"53 0 LINE",
"249 0 LINE",
"249 288 LINE",
"260 288 LINE SMOOTH",
"332 288 OFFCURVE",
"357 285 OFFCURVE",
"365 198 CURVE SMOOTH",
"379 0 LINE",
"589 0 LINE",
"556 199 LINE SMOOTH"
);
},
{
closed = 1;
nodes = (
"249 420 LINE",
"249 563 LINE",
"294 563 LINE SMOOTH",
"341 563 OFFCURVE",
"365 533 OFFCURVE",
"365 491 CURVE SMOOTH",
"365 450 OFFCURVE",
"341 420 OFFCURVE",
"294 420 CURVE SMOOTH"
);
}
);
width = 601;
},
{
associatedMasterId = "4050705C-5704-4184-B7B7-497C68798CAB";
layerId = "F29B49F5-FF9A-44B5-A81B-EF32FFA92833";
name = "May 8, 26 at 10:05";
paths = (
{
closed = 0;
nodes = (
"365 198 LINE",
"373 132 OFFCURVE",
"374 66 OFFCURVE",
"381 0 CURVE",
"585 0 LINE",
"573 66 OFFCURVE",
"565 133 OFFCURVE",
"556 199 CURVE SMOOTH"
);
},
{
closed = 1;
nodes = (
"248 468 OFFCURVE",
"247 515 OFFCURVE",
"248 563 CURVE",
"294 563 LINE SMOOTH",
"341 563 OFFCURVE",
"365 533 OFFCURVE",
"365 491 CURVE SMOOTH",
"365 450 OFFCURVE",
"341 420 OFFCURVE",
"294 420 CURVE SMOOTH",
"247 420 LINE"
);
},
{
closed = 1;
nodes = (
"565 651 OFFCURVE",
"477 721 OFFCURVE",
"314 721 CURVE SMOOTH",
"53 721 LINE",
"55 679 OFFCURVE",
"55 477 OFFCURVE",
"55 355 CURVE SMOOTH",
"55 237 OFFCURVE",
"55 48 OFFCURVE",
"53 0 CURVE",
"249 0 LINE",
"248 93 OFFCURVE",
"248 185 OFFCURVE",
"247 278 CURVE",
"309 278 LINE SMOOTH",
"504 278 OFFCURVE",
"565 389 OFFCURVE",
"565 514 CURVE SMOOTH"
);
},
{
closed = 1;
nodes = (
"647 0 LINE",
"612 45 OFFCURVE",
"556 165 OFFCURVE",
"493 339 CURVE",
"318 285 LINE",
"364 129 OFFCURVE",
"399 45 OFFCURVE",
"433 0 CURVE"
);
}
);
width = 601;
},
{
layerId = "A498EE73-B8E0-478F-AD48-BB28716BB127";
paths = (
{
closed = 1;
nodes = (
"141.5 0 LINE",
"140.5 95.25 OFFCURVE",
"141 183 OFFCURVE",
"140 279 CURVE",
"238 281 LINE SMOOTH",
"377 283 OFFCURVE",
"458 356 OFFCURVE",
"458 501 CURVE SMOOTH",
"458 650 OFFCURVE",
"378 720 OFFCURVE",
"245 720 CURVE SMOOTH",
"210 720 OFFCURVE",
"123 720 OFFCURVE",
"36 720 CURVE",
"38 678 OFFCURVE",
"38 476 OFFCURVE",
"38 354 CURVE SMOOTH",
"38 236 OFFCURVE",
"38.25 48 OFFCURVE",
"36.25 0 CURVE"
);
},
{
closed = 1;
nodes = (
"466 0 LINE",
"447.75 42.25 OFFCURVE",
"392 182 OFFCURVE",
"341 346 CURVE",
"255 299 LINE",
"303 136 OFFCURVE",
"339.25 36.25 OFFCURVE",
"353.5 0 CURVE"
);
},
{
closed = 1;
nodes = (
"141 449 OFFCURVE",
"140 546 OFFCURVE",
"141 630 CURVE",
"156 630 OFFCURVE",
"217 630 OFFCURVE",
"232 630 CURVE SMOOTH",
"315 630 OFFCURVE",
"352 582 OFFCURVE",
"352 501 CURVE SMOOTH",
"352 424 OFFCURVE",
"327 367 OFFCURVE",
"232 367 CURVE SMOOTH",
"216 367 OFFCURVE",
"156 366 OFFCURVE",
"140 366 CURVE"
);
}
);
width = 480;
},
{
layerId = "04E65C73-A9C2-4E63-92BC-18A513B12E25";
paths = (
{
closed = 1;
nodes = (
"152.25 0 LINE",
"151 32.75 OFFCURVE",
"150 136 OFFCURVE",
"150 254 CURVE",
"366 254 LINE SMOOTH",
"566 254 OFFCURVE",
"642 349 OFFCURVE",
"642 487 CURVE SMOOTH",
"642 638 OFFCURVE",
"550 720 OFFCURVE",
"366 720 CURVE SMOOTH",
"301 720 OFFCURVE",
"126 720 OFFCURVE",
"36 720 CURVE",
"37 679 OFFCURVE",
"38 532 OFFCURVE",
"38 369 CURVE SMOOTH",
"38 198 OFFCURVE",
"37.25 35.25 OFFCURVE",
"36.25 0 CURVE"
);
},
{
closed = 1;
nodes = (
"657.75 0 LINE",
"605 57 OFFCURVE",
"526 191 OFFCURVE",
"464 339 CURVE",
"366 297 LINE",
"422 161 OFFCURVE",
"477.75 59.25 OFFCURVE",
"528.25 0 CURVE"
);
},
{
closed = 1;
nodes = (
"150 466 OFFCURVE",
"151 571 OFFCURVE",
"152 624 CURVE",
"179 624 OFFCURVE",
"322 624 OFFCURVE",
"345 624 CURVE SMOOTH",
"466 624 OFFCURVE",
"527 580 OFFCURVE",
"527 486 CURVE SMOOTH",
"527 389 OFFCURVE",
"470 348 OFFCURVE",
"345 348 CURVE SMOOTH",
"289 348 OFFCURVE",
"167 348 OFFCURVE",
"150 349 CURVE"
);
}
);
width = 671.75;
}
);
leftMetricsKey = H;
note = R;
rightKerningGroup = R;
unicode = 0052;
},
{
glyphname = S;
lastChange = "2026-05-29 16:17:22 +0000";
layers = (
{
layerId = m003;
paths = (
{
closed = 1;
nodes = (
"566 -12 OFFCURVE",
"696 58 OFFCURVE",
"696 220 CURVE SMOOTH",
"696 502 OFFCURVE",
"263 440 OFFCURVE",
"263 507 CURVE SMOOTH",
"263 526 OFFCURVE",
"277 542 OFFCURVE",
"372 542 CURVE SMOOTH",
"472 542 OFFCURVE",
"557 526 OFFCURVE",
"647 502 CURVE",
"647 707 LINE",
"576 724 OFFCURVE",
"494 732 OFFCURVE",
"395 732 CURVE SMOOTH",
"120 732 OFFCURVE",
"30 627 OFFCURVE",
"30 497 CURVE SMOOTH",
"30 225 OFFCURVE",
"461 300 OFFCURVE",
"461 216 CURVE SMOOTH",
"461 193 OFFCURVE",
"439 178 OFFCURVE",
"345 178 CURVE SMOOTH",
"238 178 OFFCURVE",
"132 195 OFFCURVE",
"32 226 CURVE",
"32 21 LINE",
"110 0 OFFCURVE",
"218 -12 OFFCURVE",
"325 -12 CURVE SMOOTH"
);
}
);
width = 722;
},
{
associatedMasterId = m003;
layerId = "3CEFD013-749E-47C9-801D-22D705E1B321";
name = "May 6, 26 at 20:17";
paths = (
{
closed = 1;
nodes = (
"143 732 OFFCURVE",
"34 654 OFFCURVE",
"34 527 CURVE SMOOTH",
"34 425 OFFCURVE",
"86 361 OFFCURVE",
"250 285 CURVE SMOOTH",
"301 261 OFFCURVE",
"335 237 OFFCURVE",
"335 201 CURVE SMOOTH",
"336 164 OFFCURVE",
"292 142 OFFCURVE",
"219 142 CURVE SMOOTH",
"168 142 OFFCURVE",
"101 154 OFFCURVE",
"26 191 CURVE",
"26 21 LINE",
"85 -3 OFFCURVE",
"160 -12 OFFCURVE",
"229 -12 CURVE SMOOTH",
"417 -12 OFFCURVE",
"520 70 OFFCURVE",
"520 197 CURVE SMOOTH",
"520 303 OFFCURVE",
"474 367 OFFCURVE",
"359 416 CURVE SMOOTH",
"256 460 OFFCURVE",
"218 481 OFFCURVE",
"217 523 CURVE SMOOTH",
"216 559 OFFCURVE",
"259 582 OFFCURVE",
"326 582 CURVE SMOOTH",
"390 582 OFFCURVE",
"444 568 OFFCURVE",
"501 545 CURVE",
"501 710 LINE",
"439 731 OFFCURVE",
"374 732 OFFCURVE",
"309 732 CURVE SMOOTH"
);
}
);
width = 545;
},
{
layerId = "4050705C-5704-4184-B7B7-497C68798CAB";
paths = (
{
closed = 1;
nodes = (
"373 -12 OFFCURVE",
"478 52 OFFCURVE",
"478 201 CURVE SMOOTH",
"478 413 OFFCURVE",
"226 438 OFFCURVE",
"226 510 CURVE SMOOTH",
"226 537 OFFCURVE",
"251 552 OFFCURVE",
"311 552 CURVE SMOOTH",
"356 552 OFFCURVE",
"398 546 OFFCURVE",
"452 529 CURVE",
"452 714 LINE",
"389 722 OFFCURVE",
"336 726 OFFCURVE",
"291 726 CURVE SMOOTH",
"131 726 OFFCURVE",
"26 660 OFFCURVE",
"26 514 CURVE SMOOTH",
"26 300 OFFCURVE",
"277 291 OFFCURVE",
"277 205 CURVE SMOOTH",
"277 179 OFFCURVE",
"257 163 OFFCURVE",
"204 163 CURVE SMOOTH",
"144 163 OFFCURVE",
"85 174 OFFCURVE",
"27 190 CURVE",
"27 1 LINE",
"72 -7 OFFCURVE",
"150 -12 OFFCURVE",
"210 -12 CURVE SMOOTH"
);
}
);
width = 501;
},
{
associatedMasterId = "4050705C-5704-4184-B7B7-497C68798CAB";
layerId = "EE0D6FC1-0F5F-4FE5-A1F7-907EE5F9725D";
name = "May 6, 26 at 12:56";
paths = (
{
closed = 1;
nodes = (
"367 726 OFFCURVE",
"464 714 OFFCURVE",
"464 714 CURVE",
"464 529 LINE",
"464 529 OFFCURVE",
"384 551 OFFCURVE",
"300 551 CURVE SMOOTH",
"239 551 OFFCURVE",
"226 525 OFFCURVE",
"226 505 CURVE SMOOTH",
"226 467 OFFCURVE",
"275 453 OFFCURVE",
"345 413 CURVE SMOOTH",
"451 355 OFFCURVE",
"478 289 OFFCURVE",
"478 201 CURVE SMOOTH",
"478 52 OFFCURVE",
"373 -12 OFFCURVE",
"230 -12 CURVE SMOOTH",
"115 -12 OFFCURVE",
"27 0 OFFCURVE",
"27 0 CURVE",
"27 190 LINE",
"27 190 OFFCURVE",
"122 163 OFFCURVE",
"204 163 CURVE SMOOTH",
"257 163 OFFCURVE",
"277 184 OFFCURVE",
"277 210 CURVE SMOOTH",
"277 248 OFFCURVE",
"222 266 OFFCURVE",
"159 302 CURVE SMOOTH",
"71 351 OFFCURVE",
"26 410 OFFCURVE",
"26 514 CURVE SMOOTH",
"26 660 OFFCURVE",
"130 726 OFFCURVE",
"273 726 CURVE SMOOTH"
);
}
);
width = 505;
},
{
layerId = "A498EE73-B8E0-478F-AD48-BB28716BB127";
paths = (
{
closed = 1;
nodes = (
"338.5 -12 OFFCURVE",
"421 60 OFFCURVE",
"421 181 CURVE SMOOTH",
"421 416 OFFCURVE",
"128.5 400.75 OFFCURVE",
"128.5 534.75 CURVE SMOOTH",
"128.5 600.5 OFFCURVE",
"174 633 OFFCURVE",
"249.75 633.5 CURVE SMOOTH",
"298 634 OFFCURVE",
"345 627 OFFCURVE",
"393 604 CURVE",
"393 707 LINE",
"351 720 OFFCURVE",
"296 726 OFFCURVE",
"247.25 726 CURVE SMOOTH",
"103.75 726 OFFCURVE",
"24.5 655.5 OFFCURVE",
"24.5 535 CURVE SMOOTH",
"24.5 316.5 OFFCURVE",
"316 348 OFFCURVE",
"316 181 CURVE SMOOTH",
"316 117 OFFCURVE",
"269 80.5 OFFCURVE",
"181.5 80.5 CURVE SMOOTH",
"132 80.5 OFFCURVE",
"78.25 90 OFFCURVE",
"25.5 112.75 CURVE",
"25.5 8.5 LINE",
"75.75 -4.75 OFFCURVE",
"133.5 -12 OFFCURVE",
"183 -12 CURVE SMOOTH"
);
}
);
width = 443;
},
{
layerId = "04E65C73-A9C2-4E63-92BC-18A513B12E25";
paths = (
{
closed = 1;
nodes = (
"486 -11 OFFCURVE",
"615 52 OFFCURVE",
"615 203 CURVE SMOOTH",
"615 477 OFFCURVE",
"134 372 OFFCURVE",
"134 531 CURVE SMOOTH",
"134 594 OFFCURVE",
"198 633 OFFCURVE",
"324 633 CURVE SMOOTH",
"409 633 OFFCURVE",
"497 617 OFFCURVE",
"573 590 CURVE",
"573 691 LINE",
"503 719 OFFCURVE",
"430 730 OFFCURVE",
"324 730 CURVE SMOOTH",
"134 730 OFFCURVE",
"23 658 OFFCURVE",
"23 527 CURVE SMOOTH",
"23 268 OFFCURVE",
"503 383 OFFCURVE",
"503 198 CURVE SMOOTH",
"503 135 OFFCURVE",
"450 86 OFFCURVE",
"299 86 CURVE SMOOTH",
"207 86 OFFCURVE",
"115 103 OFFCURVE",
"28 137 CURVE",
"28 31 LINE",
"110 4 OFFCURVE",
"202 -11 OFFCURVE",
"294 -11 CURVE SMOOTH"
);
}
);
width = 641;
}
);
leftKerningGroup = S;
note = S;
rightKerningGroup = S;
unicode = 0053;
},
{
glyphname = T;
lastChange = "2026-05-28 22:11:58 +0000";
layers = (
{
layerId = m003;
paths = (
{
closed = 1;
nodes = (
"9 721 LINE",
"9 563 LINE",
"203 563 LINE",
"203 0 LINE",
"379 0 LINE",
"379 563 LINE",
"577 563 LINE",
"577 721 LINE"
);
}
);
width = 586;
},
{
layerId = "4050705C-5704-4184-B7B7-497C68798CAB";
paths = (
{
closed = 1;
nodes = (
"9 721 LINE",
"9 543 LINE",
"161 543 LINE",
"161 0 LINE",
"357 0 LINE",
"357 543 LINE",
"508 543 LINE",
"508 721 LINE"
);
}
);
width = 517;
},
{
layerId = "A498EE73-B8E0-478F-AD48-BB28716BB127";
paths = (
{
closed = 1;
nodes = (
"9 721 LINE",
"9 543 LINE",
"161 543 LINE",
"161 0 LINE",
"357 0 LINE",
"357 543 LINE",
"508 543 LINE",
"508 721 LINE"
);
}
);
width = 517;
},
{
layerId = "04E65C73-A9C2-4E63-92BC-18A513B12E25";
paths = (
{
closed = 1;
nodes = (
"9 721 LINE",
"9 563 LINE",
"203 563 LINE",
"203 0 LINE",
"379 0 LINE",
"379 563 LINE",
"577 563 LINE",
"577 721 LINE"
);
}
);
width = 586;
}
);
leftKerningGroup = T;
note = T;
rightKerningGroup = T;
unicode = 0054;
},
{
glyphname = U;
lastChange = "2026-05-28 22:11:58 +0000";
layers = (
{
layerId = m003;
paths = (
{
closed = 1;
nodes = (
"691 -12 OFFCURVE",
"777 98 OFFCURVE",
"777 355 CURVE SMOOTH",
"777 616 OFFCURVE",
"777 689 OFFCURVE",
"779 721 CURVE",
"543 721 LINE",
"545 690 OFFCURVE",
"545 535 OFFCURVE",
"545 360 CURVE SMOOTH",
"545 236 OFFCURVE",
"498 189 OFFCURVE",
"407 189 CURVE SMOOTH",
"316 189 OFFCURVE",
"268 236 OFFCURVE",
"268 360 CURVE SMOOTH",
"268 499 OFFCURVE",
"268 696 OFFCURVE",
"270 721 CURVE",
"35 721 LINE",
"36 692 OFFCURVE",
"37 565 OFFCURVE",
"37 355 CURVE SMOOTH",
"37 98 OFFCURVE",
"123 -12 OFFCURVE",
"407 -12 CURVE SMOOTH"
);
}
);
width = 814;
},
{
layerId = "4050705C-5704-4184-B7B7-497C68798CAB";
paths = (
{
closed = 1;
nodes = (
"473 -12 OFFCURVE",
"555 68 OFFCURVE",
"555 255 CURVE SMOOTH",
"555 409 OFFCURVE",
"556 564 OFFCURVE",
"557 718 CURVE",
"361 718 LINE",
"362 557 OFFCURVE",
"363 395 OFFCURVE",
"363 234 CURVE SMOOTH",
"363 183 OFFCURVE",
"340 164 OFFCURVE",
"296 164 CURVE SMOOTH",
"252 164 OFFCURVE",
"229 183 OFFCURVE",
"229 234 CURVE SMOOTH",
"229 395 OFFCURVE",
"230 557 OFFCURVE",
"231 718 CURVE",
"35 718 LINE",
"36 564 OFFCURVE",
"37 409 OFFCURVE",
"37 255 CURVE SMOOTH",
"37 68 OFFCURVE",
"119 -12 OFFCURVE",
"296 -12 CURVE SMOOTH"
);
}
);
width = 592;
},
{
layerId = "A498EE73-B8E0-478F-AD48-BB28716BB127";
paths = (
{
closed = 1;
nodes = (
"398 -12 OFFCURVE",
"468 50.75 OFFCURVE",
"468 241.5 CURVE SMOOTH",
"468 398.5 OFFCURVE",
"469.75 633.75 OFFCURVE",
"470 720.25 CURVE",
"364 720.25 LINE",
"364.25 640.25 OFFCURVE",
"365.25 396.5 OFFCURVE",
"365.25 236.25 CURVE SMOOTH",
"365.25 114.75 OFFCURVE",
"328.75 81.5 OFFCURVE",
"257 81.5 CURVE SMOOTH",
"178.5 81.5 OFFCURVE",
"136 114 OFFCURVE",
"136 236.25 CURVE SMOOTH",
"136 396.5 OFFCURVE",
"137.75 640.25 OFFCURVE",
"138 720.25 CURVE",
"32.75 720.25 LINE",
"34.5 633.75 OFFCURVE",
"34.75 397.75 OFFCURVE",
"34.75 241.5 CURVE SMOOTH",
"34.75 50.75 OFFCURVE",
"107.75 -12 OFFCURVE",
"257 -12 CURVE SMOOTH"
);
}
);
width = 502.75;
},
{
layerId = "04E65C73-A9C2-4E63-92BC-18A513B12E25";
paths = (
{
closed = 1;
nodes = (
"559 -12 OFFCURVE",
"680.25 71.75 OFFCURVE",
"680.25 326.5 CURVE SMOOTH",
"680.25 490.75 OFFCURVE",
"681.75 673.25 OFFCURVE",
"682.25 721 CURVE",
"566.25 721 LINE",
"566.75 680.25 OFFCURVE",
"567.5 472 OFFCURVE",
"567.5 327.75 CURVE SMOOTH",
"567.5 140.75 OFFCURVE",
"474.75 87.75 OFFCURVE",
"363.5 87.75 CURVE SMOOTH",
"252.25 87.75 OFFCURVE",
"145.75 139.25 OFFCURVE",
"145.75 327.75 CURVE SMOOTH",
"145.75 463 OFFCURVE",
"147.25 681.75 OFFCURVE",
"147.75 721 CURVE",
"32.75 721 LINE",
"34.5 674 OFFCURVE",
"34.75 477.25 OFFCURVE",
"34.75 326.5 CURVE SMOOTH",
"34.75 71.75 OFFCURVE",
"165 -12 OFFCURVE",
"363.5 -12 CURVE SMOOTH"
);
}
);
width = 715;
}
);
leftKerningGroup = U;
note = U;
rightKerningGroup = U;
unicode = 0055;
},
{
glyphname = V;
lastChange = "2026-05-28 22:11:58 +0000";
layers = (
{
layerId = m003;
paths = (
{
closed = 1;
nodes = (
"257 0 LINE",
"171 241 OFFCURVE",
"84 482 OFFCURVE",
"-4 721 CURVE",
"179 721 LINE",
"229 563 OFFCURVE",
"281 406 OFFCURVE",
"333 250 CURVE",
"385 406 OFFCURVE",
"437 563 OFFCURVE",
"487 721 CURVE",
"670 721 LINE",
"581 481 OFFCURVE",
"495 240 OFFCURVE",
"410 0 CURVE"
);
}
);
width = 666;
},
{
layerId = "4050705C-5704-4184-B7B7-497C68798CAB";
paths = (
{
closed = 1;
nodes = (
"297 271 LINE",
"289 271 LINE",
"209 721 LINE",
"-4 721 LINE",
"202 0 LINE",
"384 0 LINE",
"590 721 LINE",
"377 721 LINE"
);
}
);
width = 586;
},
{
layerId = "A498EE73-B8E0-478F-AD48-BB28716BB127";
paths = (
{
closed = 1;
nodes = (
"297 271 LINE",
"289 271 LINE",
"209 721 LINE",
"-4 721 LINE",
"202 0 LINE",
"384 0 LINE",
"590 721 LINE",
"377 721 LINE"
);
}
);
width = 586;
},
{
layerId = "04E65C73-A9C2-4E63-92BC-18A513B12E25";
paths = (
{
closed = 1;
nodes = (
"257 0 LINE",
"171 241 OFFCURVE",
"84 482 OFFCURVE",
"-4 721 CURVE",
"179 721 LINE",
"229 563 OFFCURVE",
"281 406 OFFCURVE",
"333 250 CURVE",
"385 406 OFFCURVE",
"437 563 OFFCURVE",
"487 721 CURVE",
"670 721 LINE",
"581 481 OFFCURVE",
"495 240 OFFCURVE",
"410 0 CURVE"
);
}
);
width = 666;
}
);
leftKerningGroup = V;
note = V;
rightKerningGroup = V;
unicode = 0056;
},
{
glyphname = W;
lastChange = "2026-05-28 22:11:58 +0000";
layers = (
{
layerId = m003;
paths = (
{
closed = 1;
nodes = (
"451 0 LINE",
"594 537 LINE",
"520 537 LINE",
"683 0 LINE",
"909 0 LINE",
"1134 721 LINE",
"905 721 LINE",
"753 177 LINE",
"832 177 LINE",
"676 721 LINE",
"455 721 LINE",
"302 173 LINE",
"380 173 LINE",
"225 721 LINE",
"-4 721 LINE",
"225 0 LINE"
);
}
);
width = 1130;
},
{
layerId = "4050705C-5704-4184-B7B7-497C68798CAB";
paths = (
{
closed = 1;
nodes = (
"377 0 LINE",
"441 404 LINE",
"426 404 LINE",
"499 0 LINE",
"704 0 LINE",
"880 721 LINE",
"674 721 LINE",
"593 282 LINE",
"608 282 LINE",
"537 721 LINE",
"339 721 LINE",
"268 282 LINE",
"283 282 LINE",
"202 721 LINE",
"-4 721 LINE",
"172 0 LINE"
);
}
);
width = 876;
},
{
layerId = "A498EE73-B8E0-478F-AD48-BB28716BB127";
paths = (
{
closed = 1;
nodes = (
"264.5 0 LINE",
"381 617.75 LINE",
"345 617.75 LINE",
"461.5 0 LINE",
"576.5 0 LINE",
"730 721 LINE",
"620 721 LINE",
"503 87.75 LINE",
"536.75 87 LINE",
"417.75 721 LINE",
"308.25 721 LINE",
"189.25 85.5 LINE",
"223 85.5 LINE",
"106 721 LINE",
"-4 721 LINE",
"149.5 0 LINE"
);
}
);
width = 726;
},
{
layerId = "04E65C73-A9C2-4E63-92BC-18A513B12E25";
paths = (
{
closed = 1;
nodes = (
"345.25 0 LINE",
"533.25 651 LINE",
"482.5 651 LINE",
"675.5 0 LINE",
"795.75 0 LINE",
"1020.75 721 LINE",
"905 721 LINE",
"711 61.5 LINE",
"760.75 60.75 LINE",
"566.5 721 LINE",
"451.25 721 LINE",
"260 58.25 LINE",
"309.5 58.25 LINE",
"111.75 721 LINE",
"-4 721 LINE",
"225 0 LINE"
);
}
);
width = 1016.75;
}
);
unicode = 0057;
},
{
glyphname = X;
lastChange = "2026-05-28 22:11:58 +0000";
layers = (
{
layerId = m003;
paths = (
{
closed = 1;
nodes = (
"264 404 LINE",
"-4 0 LINE",
"199 0 LINE",
"358 266 LINE",
"417 332 LINE",
"673 721 LINE",
"474 721 LINE",
"323 470 LINE"
);
},
{
closed = 1;
nodes = (
"341 511 OFFCURVE",
"274 616 OFFCURVE",
"208 721 CURVE",
"9 721 LINE",
"95 591 OFFCURVE",
"186 462 OFFCURVE",
"271 332 CURVE SMOOTH",
"343 222 OFFCURVE",
"411 111 OFFCURVE",
"482 0 CURVE",
"685 0 LINE",
"593 135 OFFCURVE",
"500 271 OFFCURVE",
"410 406 CURVE"
);
}
);
width = 681;
},
{
layerId = "4050705C-5704-4184-B7B7-497C68798CAB";
paths = (
{
closed = 1;
nodes = (
"592 0 LINE",
"415 367 LINE",
"580 721 LINE",
"380 721 LINE",
"299 510 LINE",
"291 510 LINE",
"209 721 LINE",
"8 721 LINE",
"174 367 LINE",
"-4 0 LINE",
"204 0 LINE",
"291 228 LINE",
"299 228 LINE",
"385 0 LINE"
);
}
);
width = 588;
},
{
layerId = "A498EE73-B8E0-478F-AD48-BB28716BB127";
paths = (
{
closed = 1;
nodes = (
"592 0 LINE",
"415 367 LINE",
"580 721 LINE",
"380 721 LINE",
"299 510 LINE",
"291 510 LINE",
"209 721 LINE",
"8 721 LINE",
"174 367 LINE",
"-4 0 LINE",
"204 0 LINE",
"291 228 LINE",
"299 228 LINE",
"385 0 LINE"
);
}
);
width = 588;
},
{
layerId = "04E65C73-A9C2-4E63-92BC-18A513B12E25";
paths = (
{
closed = 1;
nodes = (
"264 404 LINE",
"-4 0 LINE",
"199 0 LINE",
"358 266 LINE",
"417 332 LINE",
"673 721 LINE",
"474 721 LINE",
"323 470 LINE"
);
},
{
closed = 1;
nodes = (
"341 511 OFFCURVE",
"274 616 OFFCURVE",
"208 721 CURVE",
"9 721 LINE",
"95 591 OFFCURVE",
"186 462 OFFCURVE",
"271 332 CURVE SMOOTH",
"343 222 OFFCURVE",
"411 111 OFFCURVE",
"482 0 CURVE",
"685 0 LINE",
"593 135 OFFCURVE",
"500 271 OFFCURVE",
"410 406 CURVE"
);
}
);
width = 681;
}
);
note = E;
rightKerningGroup = E;
unicode = 0058;
},
{
glyphname = Y;
lastChange = "2026-05-28 22:11:58 +0000";
layers = (
{
layerId = m003;
paths = (
{
closed = 1;
nodes = (
"519 0 LINE",
"519 278 LINE",
"806 721 LINE",
"557 721 LINE",
"287 291 LINE",
"516 292 LINE",
"254 721 LINE",
"-4 721 LINE",
"283 278 LINE",
"283 0 LINE"
);
}
);
width = 802;
},
{
associatedMasterId = m003;
layerId = "4C3AF044-A9BE-4905-A0FB-E859B51C2CA9";
name = "May 7, 26 at 11:35";
paths = (
{
closed = 1;
nodes = (
"458 721 LINE",
"320 426 LINE",
"182 721 LINE",
"-4 721 LINE",
"204 324 LINE SMOOTH",
"223 288 OFFCURVE",
"232 249 OFFCURVE",
"232 209 CURVE SMOOTH",
"232 0 LINE",
"408 0 LINE",
"408 209 LINE SMOOTH",
"408 249 OFFCURVE",
"418 288 OFFCURVE",
"436 324 CURVE SMOOTH",
"644 721 LINE"
);
}
);
width = 640;
},
{
layerId = "4050705C-5704-4184-B7B7-497C68798CAB";
paths = (
{
closed = 1;
nodes = (
"375 0 LINE",
"375 244 LINE",
"560 721 LINE",
"364 721 LINE",
"267 404 LINE",
"294 404 LINE",
"192 721 LINE",
"-4 721 LINE",
"181 244 LINE",
"181 0 LINE"
);
}
);
width = 556;
},
{
layerId = "A498EE73-B8E0-478F-AD48-BB28716BB127";
paths = (
{
closed = 1;
nodes = (
"292.5 0 LINE",
"292.5 299.5 LINE",
"485 721 LINE",
"379 721 LINE",
"217.5 349.25 LINE",
"265.5 350 LINE",
"102 721 LINE",
"-4 721 LINE",
"188.5 299.5 LINE",
"188.5 0 LINE"
);
}
);
width = 481;
},
{
layerId = "04E65C73-A9C2-4E63-92BC-18A513B12E25";
paths = (
{
closed = 1;
nodes = (
"397.5 0 LINE",
"397.5 308 LINE",
"684.5 721 LINE",
"560.75 721 LINE",
"287 321 LINE",
"394.5 322 LINE",
"122 721 LINE",
"-4 721 LINE",
"283 308 LINE",
"283 0 LINE"
);
}
);
width = 680.5;
}
);
leftKerningGroup = Y;
note = Y;
rightKerningGroup = Y;
unicode = 0059;
},
{
glyphname = Z;
lastChange = "2026-05-28 22:11:58 +0000";
layers = (
{
layerId = m003;
paths = (
{
closed = 1;
nodes = (
"398 719 OFFCURVE",
"220 719 OFFCURVE",
"43 721 CURVE",
"45 668 OFFCURVE",
"45 614 OFFCURVE",
"43 561 CURVE",
"146 563 OFFCURVE",
"249 563 OFFCURVE",
"352 563 CURVE",
"241 424 OFFCURVE",
"130 284 OFFCURVE",
"19 145 CURVE",
"21 97 OFFCURVE",
"21 48 OFFCURVE",
"19 0 CURVE",
"200 2 OFFCURVE",
"380 2 OFFCURVE",
"561 0 CURVE",
"564 53 OFFCURVE",
"567 107 OFFCURVE",
"573 160 CURVE",
"462 158 OFFCURVE",
"352 158 OFFCURVE",
"241 158 CURVE",
"352 297 OFFCURVE",
"464 437 OFFCURVE",
"575 576 CURVE",
"574 624 OFFCURVE",
"574 673 OFFCURVE",
"575 721 CURVE"
);
}
);
width = 594;
},
{
layerId = "4050705C-5704-4184-B7B7-497C68798CAB";
paths = (
{
closed = 1;
nodes = (
"19 0 LINE",
"19 178 LINE",
"306 543 LINE",
"43 543 LINE",
"43 721 LINE",
"534 721 LINE",
"534 543 LINE",
"237 178 LINE",
"553 178 LINE",
"546 118 OFFCURVE",
"541 58 OFFCURVE",
"538 0 CURVE"
);
}
);
width = 572;
},
{
layerId = "A498EE73-B8E0-478F-AD48-BB28716BB127";
width = 572;
},
{
layerId = "04E65C73-A9C2-4E63-92BC-18A513B12E25";
paths = (
{
closed = 1;
nodes = (
"398 719 OFFCURVE",
"220 719 OFFCURVE",
"43 721 CURVE",
"45 668 OFFCURVE",
"45 614 OFFCURVE",
"43 561 CURVE",
"146 563 OFFCURVE",
"249 563 OFFCURVE",
"352 563 CURVE",
"241 424 OFFCURVE",
"130 284 OFFCURVE",
"19 145 CURVE",
"21 97 OFFCURVE",
"21 48 OFFCURVE",
"19 0 CURVE",
"200 2 OFFCURVE",
"380 2 OFFCURVE",
"561 0 CURVE",
"564 53 OFFCURVE",
"567 107 OFFCURVE",
"573 160 CURVE",
"462 158 OFFCURVE",
"352 158 OFFCURVE",
"241 158 CURVE",
"352 297 OFFCURVE",
"464 437 OFFCURVE",
"575 576 CURVE",
"574 624 OFFCURVE",
"574 673 OFFCURVE",
"575 721 CURVE"
);
}
);
width = 594;
}
);
leftKerningGroup = Z;
note = Z;
rightKerningGroup = Z;
unicode = 005A;
},
{
glyphname = N.001;
lastChange = "2026-05-28 22:11:58 +0000";
layers = (
{
layerId = m003;
paths = (
{
closed = 1;
nodes = (
"469 721 LINE",
"470 661 OFFCURVE",
"471 541 OFFCURVE",
"471 451 CURVE",
"387 537 OFFCURVE",
"304 627 OFFCURVE",
"220 721 CURVE",
"53 721 LINE",
"54 670 OFFCURVE",
"55 482 OFFCURVE",
"55 363 CURVE SMOOTH",
"55 242 OFFCURVE",
"54 41 OFFCURVE",
"53 0 CURVE",
"229 0 LINE",
"228 38 OFFCURVE",
"228 221 OFFCURVE",
"229 373 CURVE SMOOTH",
"229 408 OFFCURVE",
"229 441 OFFCURVE",
"229 471 CURVE",
"310 391 OFFCURVE",
"391 305 OFFCURVE",
"471 218 CURVE",
"471 145 OFFCURVE",
"470 33 OFFCURVE",
"469 0 CURVE",
"645 0 LINE",
"644 35 OFFCURVE",
"643 243 OFFCURVE",
"643 365 CURVE SMOOTH",
"643 484 OFFCURVE",
"644 663 OFFCURVE",
"645 721 CURVE"
);
}
);
width = 698;
},
{
layerId = "4050705C-5704-4184-B7B7-497C68798CAB";
paths = (
{
closed = 1;
nodes = (
"392 721 LINE",
"393 670 OFFCURVE",
"393 578 OFFCURVE",
"393 497 CURVE",
"337 571 OFFCURVE",
"280 647 OFFCURVE",
"224 721 CURVE",
"53 721 LINE",
"54 670 OFFCURVE",
"55 482 OFFCURVE",
"55 363 CURVE SMOOTH",
"55 242 OFFCURVE",
"54 41 OFFCURVE",
"53 0 CURVE",
"249 0 LINE",
"248 48 OFFCURVE",
"247 212 OFFCURVE",
"247 361 CURVE SMOOTH",
"247 373 OFFCURVE",
"247 386 OFFCURVE",
"247 398 CURVE",
"296 335 OFFCURVE",
"344 272 OFFCURVE",
"393 208 CURVE",
"393 135 OFFCURVE",
"393 33 OFFCURVE",
"392 0 CURVE",
"588 0 LINE",
"587 35 OFFCURVE",
"586 243 OFFCURVE",
"586 365 CURVE SMOOTH",
"586 484 OFFCURVE",
"587 663 OFFCURVE",
"588 721 CURVE"
);
}
);
width = 641;
},
{
associatedMasterId = "4050705C-5704-4184-B7B7-497C68798CAB";
layerId = "47C917EF-768D-4AAC-952A-4B6CD71285DE";
name = "May 8, 26 at 10:11";
paths = (
{
closed = 1;
nodes = (
"409 0 LINE",
"587 0 LINE",
"587 721 LINE",
"386 721 LINE",
"386 421 LINE",
"231 721 LINE",
"53 721 LINE",
"53 0 LINE",
"254 0 LINE",
"254 299 LINE"
);
}
);
visible = 1;
width = 622;
},
{
layerId = "A498EE73-B8E0-478F-AD48-BB28716BB127";
paths = (
{
closed = 1;
nodes = (
"392 721 LINE",
"393 670 OFFCURVE",
"393 578 OFFCURVE",
"393 497 CURVE",
"337 571 OFFCURVE",
"280 647 OFFCURVE",
"224 721 CURVE",
"53 721 LINE",
"54 670 OFFCURVE",
"55 482 OFFCURVE",
"55 363 CURVE SMOOTH",
"55 242 OFFCURVE",
"54 41 OFFCURVE",
"53 0 CURVE",
"249 0 LINE",
"248 48 OFFCURVE",
"247 212 OFFCURVE",
"247 361 CURVE SMOOTH",
"247 373 OFFCURVE",
"247 386 OFFCURVE",
"247 398 CURVE",
"296 335 OFFCURVE",
"344 272 OFFCURVE",
"393 208 CURVE",
"393 135 OFFCURVE",
"393 33 OFFCURVE",
"392 0 CURVE",
"588 0 LINE",
"587 35 OFFCURVE",
"586 243 OFFCURVE",
"586 365 CURVE SMOOTH",
"586 484 OFFCURVE",
"587 663 OFFCURVE",
"588 721 CURVE"
);
}
);
width = 641;
},
{
layerId = "04E65C73-A9C2-4E63-92BC-18A513B12E25";
paths = (
{
closed = 1;
nodes = (
"469 721 LINE",
"470 661 OFFCURVE",
"471 541 OFFCURVE",
"471 451 CURVE",
"387 537 OFFCURVE",
"304 627 OFFCURVE",
"220 721 CURVE",
"53 721 LINE",
"54 670 OFFCURVE",
"55 482 OFFCURVE",
"55 363 CURVE SMOOTH",
"55 242 OFFCURVE",
"54 41 OFFCURVE",
"53 0 CURVE",
"229 0 LINE",
"228 38 OFFCURVE",
"228 218.75 OFFCURVE",
"229 370 CURVE SMOOTH",
"229 405.75 OFFCURVE",
"229 440.25 OFFCURVE",
"229 471 CURVE",
"310 391 OFFCURVE",
"391 305 OFFCURVE",
"471 218 CURVE",
"471 145 OFFCURVE",
"470 33 OFFCURVE",
"469 0 CURVE",
"645 0 LINE",
"644 35 OFFCURVE",
"643 243 OFFCURVE",
"643 365 CURVE SMOOTH",
"643 484 OFFCURVE",
"644 663 OFFCURVE",
"645 721 CURVE"
);
}
);
width = 698;
}
);
note = N;
},
{
glyphname = R.001;
lastChange = "2026-05-28 22:11:58 +0000";
layers = (
{
background = {
paths = (
{
closed = 1;
nodes = (
"229 0 LINE",
"227 49 OFFCURVE",
"227 208 OFFCURVE",
"227 267 CURVE",
"353 267 LINE SMOOTH",
"512 267 OFFCURVE",
"599 375 OFFCURVE",
"599 509 CURVE SMOOTH",
"599 638 OFFCURVE",
"515 721 OFFCURVE",
"372 721 CURVE SMOOTH",
"266 721 OFFCURVE",
"159 721 OFFCURVE",
"53 721 CURVE",
"54 684 OFFCURVE",
"55 547 OFFCURVE",
"55 370 CURVE SMOOTH",
"55 187 OFFCURVE",
"54 33 OFFCURVE",
"53 0 CURVE"
);
},
{
closed = 1;
nodes = (
"617 0 LINE",
"582 45 OFFCURVE",
"526 165 OFFCURVE",
"463 339 CURVE",
"318 285 LINE",
"364 129 OFFCURVE",
"399 45 OFFCURVE",
"433 0 CURVE"
);
},
{
closed = 1;
nodes = (
"227 445 OFFCURVE",
"227 530 OFFCURVE",
"229 575 CURVE",
"266 575 OFFCURVE",
"302 575 OFFCURVE",
"339 575 CURVE SMOOTH",
"389 575 OFFCURVE",
"420 549 OFFCURVE",
"420 493 CURVE SMOOTH",
"420 432 OFFCURVE",
"389 409 OFFCURVE",
"339 409 CURVE SMOOTH",
"302 409 OFFCURVE",
"264 409 OFFCURVE",
"227 410 CURVE"
);
}
);
};
layerId = m003;
paths = (
{
closed = 1;
nodes = (
"276 0 LINE",
"274 35 OFFCURVE",
"274 146 OFFCURVE",
"274 187 CURVE",
"485 190 LINE SMOOTH",
"663 193 OFFCURVE",
"766 302 OFFCURVE",
"766 459 CURVE SMOOTH",
"766 616 OFFCURVE",
"663 721 OFFCURVE",
"489 721 CURVE SMOOTH",
"348 721 OFFCURVE",
"172 721 OFFCURVE",
"40 721 CURVE",
"41 684 OFFCURVE",
"42 547 OFFCURVE",
"42 370 CURVE SMOOTH",
"42 187 OFFCURVE",
"41 33 OFFCURVE",
"40 0 CURVE"
);
},
{
closed = 1;
nodes = (
"774 0 LINE",
"691 93 OFFCURVE",
"630 211 OFFCURVE",
"600 339 CURVE",
"395 285 LINE",
"431 137 OFFCURVE",
"475 56 OFFCURVE",
"525 0 CURVE"
);
},
{
closed = 1;
nodes = (
"274 399 OFFCURVE",
"274 495 OFFCURVE",
"276 545 CURVE",
"316 545 OFFCURVE",
"376 545 OFFCURVE",
"416 545 CURVE SMOOTH",
"484 545 OFFCURVE",
"527 516 OFFCURVE",
"527 453 CURVE SMOOTH",
"527 385 OFFCURVE",
"484 359 OFFCURVE",
"416 359 CURVE SMOOTH",
"377 359 OFFCURVE",
"306 359 OFFCURVE",
"274 360 CURVE"
);
}
);
width = 788;
},
{
associatedMasterId = m003;
layerId = "8A7E0FDB-B377-4F0B-8006-E49868B5AB9B";
name = "May 7, 26 at 10:23";
paths = (
{
closed = 1;
nodes = (
"570 283 OFFCURVE",
"540 322 OFFCURVE",
"495 339 CURVE",
"512 345 OFFCURVE",
"599 379 OFFCURVE",
"599 508 CURVE SMOOTH",
"599 638 OFFCURVE",
"515 721 OFFCURVE",
"372 721 CURVE SMOOTH",
"53 721 LINE",
"53 0 LINE",
"229 0 LINE",
"229 267 LINE",
"272 267 LINE SMOOTH",
"365 267 OFFCURVE",
"405 235 OFFCURVE",
"421 146 CURVE SMOOTH",
"441 38 OFFCURVE",
"448 18 OFFCURVE",
"457 0 CURVE",
"652 0 LINE",
"628 30 OFFCURVE",
"598 136 OFFCURVE",
"584 208 CURVE SMOOTH"
);
},
{
closed = 1;
nodes = (
"229 575 LINE",
"339 575 LINE SMOOTH",
"389 575 OFFCURVE",
"420 549 OFFCURVE",
"420 493 CURVE SMOOTH",
"420 432 OFFCURVE",
"389 410 OFFCURVE",
"339 410 CURVE SMOOTH",
"229 410 LINE"
);
}
);
width = 640;
},
{
associatedMasterId = m003;
layerId = "2A4B25B0-188B-4BEF-9FD7-4540C8E8852A";
name = "May 7, 26 at 13:17";
paths = (
{
closed = 1;
nodes = (
"567 282 OFFCURVE",
"540 322 OFFCURVE",
"495 339 CURVE",
"512 345 OFFCURVE",
"599 379 OFFCURVE",
"599 508 CURVE SMOOTH",
"599 638 OFFCURVE",
"515 721 OFFCURVE",
"372 721 CURVE SMOOTH",
"266 721 OFFCURVE",
"159 721 OFFCURVE",
"53 721 CURVE",
"54 684 OFFCURVE",
"55 547 OFFCURVE",
"55 370 CURVE SMOOTH",
"55 187 OFFCURVE",
"54 33 OFFCURVE",
"53 0 CURVE",
"229 0 LINE",
"227 49 OFFCURVE",
"227 208 OFFCURVE",
"227 267 CURVE",
"272 267 LINE SMOOTH",
"364 267 OFFCURVE",
"404 236 OFFCURVE",
"419 153 CURVE SMOOTH",
"428 102 LINE SMOOTH",
"439 38 OFFCURVE",
"447 12 OFFCURVE",
"456 0 CURVE",
"642 0 LINE",
"633 12 OFFCURVE",
"619 59 OFFCURVE",
"603 126 CURVE SMOOTH",
"584 208 LINE SMOOTH"
);
},
{
closed = 1;
nodes = (
"227 445 OFFCURVE",
"227 530 OFFCURVE",
"229 575 CURVE",
"266 575 OFFCURVE",
"302 575 OFFCURVE",
"339 575 CURVE SMOOTH",
"389 575 OFFCURVE",
"420 549 OFFCURVE",
"420 493 CURVE SMOOTH",
"420 432 OFFCURVE",
"389 409 OFFCURVE",
"339 409 CURVE SMOOTH",
"302 409 OFFCURVE",
"264 409 OFFCURVE",
"227 410 CURVE"
);
}
);
width = 640;
},
{
background = {
paths = (
{
closed = 1;
nodes = (
"587 0 LINE",
"571 37 OFFCURVE",
"499 202 OFFCURVE",
"457 339 CURVE",
"289 285 LINE",
"327 149 OFFCURVE",
"371 31 OFFCURVE",
"383 0 CURVE"
);
},
{
closed = 1;
nodes = (
"617 0 LINE",
"560 61 OFFCURVE",
"498 188 OFFCURVE",
"453 349 CURVE",
"289 295 LINE",
"327 142 OFFCURVE",
"367 44 OFFCURVE",
"413 0 CURVE"
);
}
);
};
layerId = "4050705C-5704-4184-B7B7-497C68798CAB";
paths = (
{
closed = 1;
nodes = (
"249 0 LINE",
"248 93 OFFCURVE",
"248 185 OFFCURVE",
"247 278 CURVE",
"309 278 LINE SMOOTH",
"475 278 OFFCURVE",
"565 353 OFFCURVE",
"565 491 CURVE SMOOTH",
"565 651 OFFCURVE",
"477 721 OFFCURVE",
"314 721 CURVE SMOOTH",
"227 721 OFFCURVE",
"140 721 OFFCURVE",
"53 721 CURVE",
"55 679 OFFCURVE",
"55 477 OFFCURVE",
"55 355 CURVE SMOOTH",
"55 237 OFFCURVE",
"55 48 OFFCURVE",
"53 0 CURVE"
);
},
{
closed = 1;
nodes = (
"602 0 LINE",
"565 50 OFFCURVE",
"499 195 OFFCURVE",
"454 344 CURVE",
"289 290 LINE",
"327 146 OFFCURVE",
"369 37 OFFCURVE",
"397 0 CURVE"
);
},
{
closed = 1;
nodes = (
"248 468 OFFCURVE",
"247 515 OFFCURVE",
"248 563 CURVE",
"263 563 OFFCURVE",
"279 563 OFFCURVE",
"294 563 CURVE SMOOTH",
"341 563 OFFCURVE",
"365 533 OFFCURVE",
"365 491 CURVE SMOOTH",
"365 450 OFFCURVE",
"341 420 OFFCURVE",
"294 420 CURVE SMOOTH",
"278 420 OFFCURVE",
"263 420 OFFCURVE",
"247 420 CURVE"
);
}
);
width = 601;
},
{
associatedMasterId = "4050705C-5704-4184-B7B7-497C68798CAB";
background = {
paths = (
{
closed = 1;
nodes = (
"587 0 LINE",
"571 37 OFFCURVE",
"499 202 OFFCURVE",
"457 339 CURVE",
"289 285 LINE",
"327 149 OFFCURVE",
"371 31 OFFCURVE",
"383 0 CURVE"
);
},
{
closed = 1;
nodes = (
"617 0 LINE",
"560 61 OFFCURVE",
"498 188 OFFCURVE",
"453 349 CURVE",
"289 295 LINE",
"327 142 OFFCURVE",
"367 44 OFFCURVE",
"413 0 CURVE"
);
}
);
};
layerId = "69819651-57DA-4D3A-A114-F745B36D5C35";
name = "May 13, 26 at 20:29";
paths = (
{
closed = 1;
nodes = (
"467 0 LINE",
"410 61 OFFCURVE",
"348 188 OFFCURVE",
"303 349 CURVE",
"139 295 LINE",
"177 142 OFFCURVE",
"217 44 OFFCURVE",
"263 0 CURVE"
);
},
{
closed = 1;
nodes = (
"437 0 LINE",
"421 37 OFFCURVE",
"349 202 OFFCURVE",
"307 339 CURVE",
"139 285 LINE",
"177 149 OFFCURVE",
"221 31 OFFCURVE",
"233 0 CURVE"
);
},
{
closed = 1;
nodes = (
"452 0 LINE",
"415 50 OFFCURVE",
"349 195 OFFCURVE",
"304 344 CURVE",
"139 290 LINE",
"177 146 OFFCURVE",
"219 37 OFFCURVE",
"247 0 CURVE"
);
}
);
width = 601;
},
{
layerId = "A498EE73-B8E0-478F-AD48-BB28716BB127";
paths = (
{
closed = 1;
nodes = (
"158.25 0 LINE",
"157.25 95.25 OFFCURVE",
"157.25 188.75 OFFCURVE",
"156.25 284 CURVE",
"254.25 284 LINE SMOOTH",
"394 284 OFFCURVE",
"475 358.25 OFFCURVE",
"475 503 CURVE SMOOTH",
"475 652.5 OFFCURVE",
"394.5 721 OFFCURVE",
"261.5 721 CURVE SMOOTH",
"227 721 OFFCURVE",
"140 721 OFFCURVE",
"53 721 CURVE",
"55 679 OFFCURVE",
"55 477 OFFCURVE",
"55 355 CURVE SMOOTH",
"55 237 OFFCURVE",
"55 48 OFFCURVE",
"53 0 CURVE"
);
},
{
closed = 1;
nodes = (
"501.5 0 LINE",
"448 89 OFFCURVE",
"406.75 182.25 OFFCURVE",
"356.5 347.75 CURVE",
"271.75 301.25 LINE",
"312 156.5 OFFCURVE",
"345.75 69.25 OFFCURVE",
"388.75 0 CURVE"
);
},
{
closed = 1;
nodes = (
"157.25 453.75 OFFCURVE",
"156.25 547.25 OFFCURVE",
"157.25 630.5 CURVE",
"172.25 630.5 OFFCURVE",
"234 630.5 OFFCURVE",
"249 630.5 CURVE SMOOTH",
"331.25 630.5 OFFCURVE",
"368.75 584 OFFCURVE",
"368.75 503 CURVE SMOOTH",
"368.75 426 OFFCURVE",
"344 370.5 OFFCURVE",
"249 370.5 CURVE SMOOTH",
"233 370.5 OFFCURVE",
"172.25 370.5 OFFCURVE",
"156.25 370.5 CURVE"
);
}
);
width = 518.5;
},
{
layerId = "04E65C73-A9C2-4E63-92BC-18A513B12E25";
paths = (
{
closed = 1;
nodes = (
"152.25 0 LINE",
"151 32.75 OFFCURVE",
"150.25 137 OFFCURVE",
"150.25 254.5 CURVE",
"365 255.25 LINE SMOOTH",
"564.75 256 OFFCURVE",
"642.25 350 OFFCURVE",
"642.25 488.25 CURVE SMOOTH",
"642.25 638.5 OFFCURVE",
"549.75 721 OFFCURVE",
"366 721 CURVE SMOOTH",
"300.75 721 OFFCURVE",
"125.5 721 OFFCURVE",
"36.25 721 CURVE",
"37.25 680.25 OFFCURVE",
"38.25 532.75 OFFCURVE",
"38.25 370 CURVE SMOOTH",
"38.25 199 OFFCURVE",
"37.25 35.25 OFFCURVE",
"36.25 0 CURVE"
);
},
{
closed = 1;
nodes = (
"657.75 0 LINE",
"564.25 90.75 OFFCURVE",
"497.25 222.25 OFFCURVE",
"464.25 339.75 CURVE",
"368.75 297.75 LINE",
"401.75 179 OFFCURVE",
"476.5 50.75 OFFCURVE",
"529.5 0 CURVE"
);
},
{
closed = 1;
nodes = (
"150.25 466.5 OFFCURVE",
"151 571.5 OFFCURVE",
"152.25 624.5 CURVE",
"178.75 624.5 OFFCURVE",
"322 624.5 OFFCURVE",
"344.75 624.5 CURVE SMOOTH",
"466 624.5 OFFCURVE",
"527 580.5 OFFCURVE",
"527 486.75 CURVE SMOOTH",
"527 389.5 OFFCURVE",
"469.75 348.5 OFFCURVE",
"344.75 348.5 CURVE SMOOTH",
"289.25 348.5 OFFCURVE",
"167.25 348.5 OFFCURVE",
"150.25 349.5 CURVE"
);
}
);
width = 671.75;
}
);
note = R;
rightKerningGroup = R;
},
{
glyphname = R.002;
lastChange = "2026-05-28 22:11:58 +0000";
layers = (
{
layerId = m003;
paths = (
{
closed = 1;
nodes = (
"276 0 LINE",
"274 35 OFFCURVE",
"274 146 OFFCURVE",
"274 187 CURVE",
"490 187 LINE SMOOTH",
"668 187 OFFCURVE",
"766 302 OFFCURVE",
"766 459 CURVE SMOOTH",
"766 616 OFFCURVE",
"663 721 OFFCURVE",
"489 721 CURVE SMOOTH",
"348 721 OFFCURVE",
"172 721 OFFCURVE",
"40 721 CURVE",
"41 684 OFFCURVE",
"42 547 OFFCURVE",
"42 370 CURVE SMOOTH",
"42 187 OFFCURVE",
"41 33 OFFCURVE",
"40 0 CURVE"
);
},
{
closed = 1;
nodes = (
"784 0 LINE",
"661 97 OFFCURVE",
"607 191 OFFCURVE",
"595 309 CURVE",
"387 255 LINE",
"408 126 OFFCURVE",
"454 51 OFFCURVE",
"515 0 CURVE"
);
},
{
closed = 1;
nodes = (
"274 399 OFFCURVE",
"274 495 OFFCURVE",
"276 545 CURVE",
"316 545 OFFCURVE",
"376 545 OFFCURVE",
"416 545 CURVE SMOOTH",
"484 545 OFFCURVE",
"527 516 OFFCURVE",
"527 453 CURVE SMOOTH",
"527 385 OFFCURVE",
"484 359 OFFCURVE",
"416 359 CURVE SMOOTH",
"377 359 OFFCURVE",
"306 359 OFFCURVE",
"274 360 CURVE"
);
}
);
width = 788;
},
{
associatedMasterId = m003;
layerId = "8A7E0FDB-B377-4F0B-8006-E49868B5AB9B";
name = "May 7, 26 at 10:23";
paths = (
{
closed = 1;
nodes = (
"570 283 OFFCURVE",
"540 322 OFFCURVE",
"495 339 CURVE",
"512 345 OFFCURVE",
"599 379 OFFCURVE",
"599 508 CURVE SMOOTH",
"599 638 OFFCURVE",
"515 721 OFFCURVE",
"372 721 CURVE SMOOTH",
"53 721 LINE",
"53 0 LINE",
"229 0 LINE",
"229 267 LINE",
"272 267 LINE SMOOTH",
"365 267 OFFCURVE",
"405 235 OFFCURVE",
"421 146 CURVE SMOOTH",
"441 38 OFFCURVE",
"448 18 OFFCURVE",
"457 0 CURVE",
"652 0 LINE",
"628 30 OFFCURVE",
"598 136 OFFCURVE",
"584 208 CURVE SMOOTH"
);
},
{
closed = 1;
nodes = (
"229 575 LINE",
"339 575 LINE SMOOTH",
"389 575 OFFCURVE",
"420 549 OFFCURVE",
"420 493 CURVE SMOOTH",
"420 432 OFFCURVE",
"389 410 OFFCURVE",
"339 410 CURVE SMOOTH",
"229 410 LINE"
);
}
);
width = 640;
},
{
associatedMasterId = m003;
layerId = "2A4B25B0-188B-4BEF-9FD7-4540C8E8852A";
name = "May 7, 26 at 13:17";
paths = (
{
closed = 1;
nodes = (
"567 282 OFFCURVE",
"540 322 OFFCURVE",
"495 339 CURVE",
"512 345 OFFCURVE",
"599 379 OFFCURVE",
"599 508 CURVE SMOOTH",
"599 638 OFFCURVE",
"515 721 OFFCURVE",
"372 721 CURVE SMOOTH",
"266 721 OFFCURVE",
"159 721 OFFCURVE",
"53 721 CURVE",
"54 684 OFFCURVE",
"55 547 OFFCURVE",
"55 370 CURVE SMOOTH",
"55 187 OFFCURVE",
"54 33 OFFCURVE",
"53 0 CURVE",
"229 0 LINE",
"227 49 OFFCURVE",
"227 208 OFFCURVE",
"227 267 CURVE",
"272 267 LINE SMOOTH",
"364 267 OFFCURVE",
"404 236 OFFCURVE",
"419 153 CURVE SMOOTH",
"428 102 LINE SMOOTH",
"439 38 OFFCURVE",
"447 12 OFFCURVE",
"456 0 CURVE",
"642 0 LINE",
"633 12 OFFCURVE",
"619 59 OFFCURVE",
"603 126 CURVE SMOOTH",
"584 208 LINE SMOOTH"
);
},
{
closed = 1;
nodes = (
"227 445 OFFCURVE",
"227 530 OFFCURVE",
"229 575 CURVE",
"266 575 OFFCURVE",
"302 575 OFFCURVE",
"339 575 CURVE SMOOTH",
"389 575 OFFCURVE",
"420 549 OFFCURVE",
"420 493 CURVE SMOOTH",
"420 432 OFFCURVE",
"389 409 OFFCURVE",
"339 409 CURVE SMOOTH",
"302 409 OFFCURVE",
"264 409 OFFCURVE",
"227 410 CURVE"
);
}
);
width = 640;
},
{
layerId = "4050705C-5704-4184-B7B7-497C68798CAB";
paths = (
{
closed = 1;
nodes = (
"249 0 LINE",
"248 93 OFFCURVE",
"248 185 OFFCURVE",
"247 278 CURVE",
"309 278 LINE SMOOTH",
"475 278 OFFCURVE",
"565 353 OFFCURVE",
"565 491 CURVE SMOOTH",
"565 651 OFFCURVE",
"477 721 OFFCURVE",
"314 721 CURVE SMOOTH",
"227 721 OFFCURVE",
"140 721 OFFCURVE",
"53 721 CURVE",
"55 679 OFFCURVE",
"55 477 OFFCURVE",
"55 355 CURVE SMOOTH",
"55 237 OFFCURVE",
"55 48 OFFCURVE",
"53 0 CURVE"
);
},
{
closed = 1;
nodes = (
"617 0 LINE",
"560 61 OFFCURVE",
"498 188 OFFCURVE",
"453 349 CURVE",
"289 295 LINE",
"327 142 OFFCURVE",
"367 44 OFFCURVE",
"413 0 CURVE"
);
},
{
closed = 1;
nodes = (
"248 475 OFFCURVE",
"247 518 OFFCURVE",
"248 563 CURVE",
"263 563 OFFCURVE",
"279 563 OFFCURVE",
"294 563 CURVE SMOOTH",
"341 563 OFFCURVE",
"365 536 OFFCURVE",
"365 499 CURVE SMOOTH",
"365 459 OFFCURVE",
"341 430 OFFCURVE",
"294 430 CURVE SMOOTH",
"278 430 OFFCURVE",
"263 430 OFFCURVE",
"247 430 CURVE"
);
}
);
width = 601;
},
{
associatedMasterId = "4050705C-5704-4184-B7B7-497C68798CAB";
layerId = "99D74035-CB04-4A62-8090-C94C65E98FFE";
name = "May 6, 26 at 13:26";
paths = (
{
closed = 1;
nodes = (
"539 300 OFFCURVE",
"484 327 OFFCURVE",
"463 335 CURVE",
"463 343 LINE",
"489 357 OFFCURVE",
"565 405 OFFCURVE",
"565 517 CURVE SMOOTH",
"565 651 OFFCURVE",
"477 721 OFFCURVE",
"314 721 CURVE SMOOTH",
"53 721 LINE",
"53 0 LINE",
"249 0 LINE",
"249 288 LINE",
"260 288 LINE SMOOTH",
"332 288 OFFCURVE",
"357 285 OFFCURVE",
"365 198 CURVE SMOOTH",
"379 0 LINE",
"589 0 LINE",
"556 199 LINE SMOOTH"
);
},
{
closed = 1;
nodes = (
"249 420 LINE",
"249 563 LINE",
"294 563 LINE SMOOTH",
"341 563 OFFCURVE",
"365 533 OFFCURVE",
"365 491 CURVE SMOOTH",
"365 450 OFFCURVE",
"341 420 OFFCURVE",
"294 420 CURVE SMOOTH"
);
}
);
width = 601;
},
{
associatedMasterId = "4050705C-5704-4184-B7B7-497C68798CAB";
layerId = "F29B49F5-FF9A-44B5-A81B-EF32FFA92833";
name = "May 8, 26 at 10:05";
paths = (
{
closed = 0;
nodes = (
"365 198 LINE",
"373 132 OFFCURVE",
"374 66 OFFCURVE",
"381 0 CURVE",
"585 0 LINE",
"573 66 OFFCURVE",
"565 133 OFFCURVE",
"556 199 CURVE SMOOTH"
);
},
{
closed = 1;
nodes = (
"248 468 OFFCURVE",
"247 515 OFFCURVE",
"248 563 CURVE",
"294 563 LINE SMOOTH",
"341 563 OFFCURVE",
"365 533 OFFCURVE",
"365 491 CURVE SMOOTH",
"365 450 OFFCURVE",
"341 420 OFFCURVE",
"294 420 CURVE SMOOTH",
"247 420 LINE"
);
},
{
closed = 1;
nodes = (
"565 651 OFFCURVE",
"477 721 OFFCURVE",
"314 721 CURVE SMOOTH",
"53 721 LINE",
"55 679 OFFCURVE",
"55 477 OFFCURVE",
"55 355 CURVE SMOOTH",
"55 237 OFFCURVE",
"55 48 OFFCURVE",
"53 0 CURVE",
"249 0 LINE",
"248 93 OFFCURVE",
"248 185 OFFCURVE",
"247 278 CURVE",
"309 278 LINE SMOOTH",
"504 278 OFFCURVE",
"565 389 OFFCURVE",
"565 514 CURVE SMOOTH"
);
},
{
closed = 1;
nodes = (
"647 0 LINE",
"612 45 OFFCURVE",
"556 165 OFFCURVE",
"493 339 CURVE",
"318 285 LINE",
"364 129 OFFCURVE",
"399 45 OFFCURVE",
"433 0 CURVE"
);
}
);
width = 601;
},
{
layerId = "A498EE73-B8E0-478F-AD48-BB28716BB127";
paths = (
{
closed = 1;
nodes = (
"158.25 0 LINE",
"157.25 95.25 OFFCURVE",
"157.25 188.75 OFFCURVE",
"156.25 284 CURVE",
"254.25 284 LINE SMOOTH",
"394 284 OFFCURVE",
"475 358.25 OFFCURVE",
"475 503 CURVE SMOOTH",
"475 652.5 OFFCURVE",
"394.5 721 OFFCURVE",
"261.5 721 CURVE SMOOTH",
"227 721 OFFCURVE",
"140 721 OFFCURVE",
"53 721 CURVE",
"55 679 OFFCURVE",
"55 477 OFFCURVE",
"55 355 CURVE SMOOTH",
"55 237 OFFCURVE",
"55 48 OFFCURVE",
"53 0 CURVE"
);
},
{
closed = 1;
nodes = (
"520.25 0 LINE",
"462.5 61 OFFCURVE",
"401.25 182.75 OFFCURVE",
"356.25 349 CURVE",
"271.75 302.5 LINE",
"309 163.75 OFFCURVE",
"358.75 52.25 OFFCURVE",
"407.75 0 CURVE"
);
},
{
closed = 1;
nodes = (
"157.25 455.5 OFFCURVE",
"156.25 548 OFFCURVE",
"157.25 630.5 CURVE",
"172.25 630.5 OFFCURVE",
"234 630.5 OFFCURVE",
"249 630.5 CURVE SMOOTH",
"331.25 630.5 OFFCURVE",
"368.75 584.75 OFFCURVE",
"368.75 505 CURVE SMOOTH",
"368.75 428.25 OFFCURVE",
"344 373 OFFCURVE",
"249 373 CURVE SMOOTH",
"233 373 OFFCURVE",
"172.25 373 OFFCURVE",
"156.25 373 CURVE"
);
}
);
width = 518.5;
},
{
layerId = "04E65C73-A9C2-4E63-92BC-18A513B12E25";
paths = (
{
closed = 1;
nodes = (
"152.25 0 LINE",
"151 32.75 OFFCURVE",
"150.25 137 OFFCURVE",
"150.25 254.5 CURVE",
"366.25 254.5 LINE SMOOTH",
"566 254.5 OFFCURVE",
"642.25 350 OFFCURVE",
"642.25 488.25 CURVE SMOOTH",
"642.25 638.5 OFFCURVE",
"549.75 721 OFFCURVE",
"366 721 CURVE SMOOTH",
"300.75 721 OFFCURVE",
"125.5 721 OFFCURVE",
"36.25 721 CURVE",
"37.25 680.25 OFFCURVE",
"38.25 532.75 OFFCURVE",
"38.25 370 CURVE SMOOTH",
"38.25 199 OFFCURVE",
"37.25 35.25 OFFCURVE",
"36.25 0 CURVE"
);
},
{
closed = 1;
nodes = (
"660.25 0 LINE",
"551.5 90.25 OFFCURVE",
"482.5 200.75 OFFCURVE",
"455.5 332.25 CURVE",
"359.25 290.25 LINE",
"385.5 168.75 OFFCURVE",
"444.25 67.5 OFFCURVE",
"523.25 0 CURVE"
);
},
{
closed = 1;
nodes = (
"150.25 466.5 OFFCURVE",
"151 571.5 OFFCURVE",
"152.25 624.5 CURVE",
"178.75 624.5 OFFCURVE",
"322 624.5 OFFCURVE",
"344.75 624.5 CURVE SMOOTH",
"466 624.5 OFFCURVE",
"527 580.5 OFFCURVE",
"527 486.75 CURVE SMOOTH",
"527 389.5 OFFCURVE",
"469.75 348.5 OFFCURVE",
"344.75 348.5 CURVE SMOOTH",
"289.25 348.5 OFFCURVE",
"167.25 348.5 OFFCURVE",
"150.25 349.5 CURVE"
);
}
);
width = 671.75;
}
);
note = R;
rightKerningGroup = R;
},
{
glyphname = R.003;
lastChange = "2026-05-28 22:11:58 +0000";
layers = (
{
layerId = m003;
paths = (
{
closed = 1;
nodes = (
"276 0 LINE",
"274 35 OFFCURVE",
"274 146 OFFCURVE",
"274 187 CURVE",
"490 187 LINE SMOOTH",
"668 187 OFFCURVE",
"766 302 OFFCURVE",
"766 459 CURVE SMOOTH",
"766 616 OFFCURVE",
"663 721 OFFCURVE",
"489 721 CURVE SMOOTH",
"348 721 OFFCURVE",
"172 721 OFFCURVE",
"40 721 CURVE",
"41 684 OFFCURVE",
"42 547 OFFCURVE",
"42 370 CURVE SMOOTH",
"42 187 OFFCURVE",
"41 33 OFFCURVE",
"40 0 CURVE"
);
},
{
closed = 1;
nodes = (
"774 0 LINE",
"600 339 LINE",
"395 285 LINE",
"530 0 LINE"
);
},
{
closed = 1;
nodes = (
"274 399 OFFCURVE",
"274 495 OFFCURVE",
"276 545 CURVE",
"316 545 OFFCURVE",
"376 545 OFFCURVE",
"416 545 CURVE SMOOTH",
"484 545 OFFCURVE",
"527 516 OFFCURVE",
"527 453 CURVE SMOOTH",
"527 385 OFFCURVE",
"484 359 OFFCURVE",
"416 359 CURVE SMOOTH",
"377 359 OFFCURVE",
"306 359 OFFCURVE",
"274 360 CURVE"
);
}
);
width = 788;
},
{
associatedMasterId = m003;
layerId = "8A7E0FDB-B377-4F0B-8006-E49868B5AB9B";
name = "May 7, 26 at 10:23";
paths = (
{
closed = 1;
nodes = (
"570 283 OFFCURVE",
"540 322 OFFCURVE",
"495 339 CURVE",
"512 345 OFFCURVE",
"599 379 OFFCURVE",
"599 508 CURVE SMOOTH",
"599 638 OFFCURVE",
"515 721 OFFCURVE",
"372 721 CURVE SMOOTH",
"53 721 LINE",
"53 0 LINE",
"229 0 LINE",
"229 267 LINE",
"272 267 LINE SMOOTH",
"365 267 OFFCURVE",
"405 235 OFFCURVE",
"421 146 CURVE SMOOTH",
"441 38 OFFCURVE",
"448 18 OFFCURVE",
"457 0 CURVE",
"652 0 LINE",
"628 30 OFFCURVE",
"598 136 OFFCURVE",
"584 208 CURVE SMOOTH"
);
},
{
closed = 1;
nodes = (
"229 575 LINE",
"339 575 LINE SMOOTH",
"389 575 OFFCURVE",
"420 549 OFFCURVE",
"420 493 CURVE SMOOTH",
"420 432 OFFCURVE",
"389 410 OFFCURVE",
"339 410 CURVE SMOOTH",
"229 410 LINE"
);
}
);
width = 640;
},
{
associatedMasterId = m003;
layerId = "2A4B25B0-188B-4BEF-9FD7-4540C8E8852A";
name = "May 7, 26 at 13:17";
paths = (
{
closed = 1;
nodes = (
"567 282 OFFCURVE",
"540 322 OFFCURVE",
"495 339 CURVE",
"512 345 OFFCURVE",
"599 379 OFFCURVE",
"599 508 CURVE SMOOTH",
"599 638 OFFCURVE",
"515 721 OFFCURVE",
"372 721 CURVE SMOOTH",
"266 721 OFFCURVE",
"159 721 OFFCURVE",
"53 721 CURVE",
"54 684 OFFCURVE",
"55 547 OFFCURVE",
"55 370 CURVE SMOOTH",
"55 187 OFFCURVE",
"54 33 OFFCURVE",
"53 0 CURVE",
"229 0 LINE",
"227 49 OFFCURVE",
"227 208 OFFCURVE",
"227 267 CURVE",
"272 267 LINE SMOOTH",
"364 267 OFFCURVE",
"404 236 OFFCURVE",
"419 153 CURVE SMOOTH",
"428 102 LINE SMOOTH",
"439 38 OFFCURVE",
"447 12 OFFCURVE",
"456 0 CURVE",
"642 0 LINE",
"633 12 OFFCURVE",
"619 59 OFFCURVE",
"603 126 CURVE SMOOTH",
"584 208 LINE SMOOTH"
);
},
{
closed = 1;
nodes = (
"227 445 OFFCURVE",
"227 530 OFFCURVE",
"229 575 CURVE",
"266 575 OFFCURVE",
"302 575 OFFCURVE",
"339 575 CURVE SMOOTH",
"389 575 OFFCURVE",
"420 549 OFFCURVE",
"420 493 CURVE SMOOTH",
"420 432 OFFCURVE",
"389 409 OFFCURVE",
"339 409 CURVE SMOOTH",
"302 409 OFFCURVE",
"264 409 OFFCURVE",
"227 410 CURVE"
);
}
);
width = 640;
},
{
layerId = "4050705C-5704-4184-B7B7-497C68798CAB";
paths = (
{
closed = 1;
nodes = (
"236 0 LINE",
"235 93 OFFCURVE",
"235 175 OFFCURVE",
"234 268 CURVE",
"296 268 LINE SMOOTH",
"462 268 OFFCURVE",
"552 348 OFFCURVE",
"552 486 CURVE SMOOTH",
"552 646 OFFCURVE",
"464 721 OFFCURVE",
"301 721 CURVE SMOOTH",
"214 721 OFFCURVE",
"127 721 OFFCURVE",
"40 721 CURVE",
"42 679 OFFCURVE",
"42 477 OFFCURVE",
"42 355 CURVE SMOOTH",
"42 237 OFFCURVE",
"42 48 OFFCURVE",
"40 0 CURVE"
);
},
{
closed = 1;
nodes = (
"574 0 LINE",
"444 339 LINE",
"276 285 LINE",
"370 0 LINE"
);
},
{
closed = 1;
nodes = (
"235 458 OFFCURVE",
"234 515 OFFCURVE",
"235 563 CURVE",
"250 563 OFFCURVE",
"266 563 OFFCURVE",
"281 563 CURVE SMOOTH",
"328 563 OFFCURVE",
"352 528 OFFCURVE",
"352 486 CURVE SMOOTH",
"352 444 OFFCURVE",
"328 410 OFFCURVE",
"281 410 CURVE SMOOTH",
"265 410 OFFCURVE",
"250 410 OFFCURVE",
"234 410 CURVE"
);
}
);
width = 588;
},
{
associatedMasterId = "4050705C-5704-4184-B7B7-497C68798CAB";
layerId = "99D74035-CB04-4A62-8090-C94C65E98FFE";
name = "May 6, 26 at 13:26";
paths = (
{
closed = 1;
nodes = (
"539 300 OFFCURVE",
"484 327 OFFCURVE",
"463 335 CURVE",
"463 343 LINE",
"489 357 OFFCURVE",
"565 405 OFFCURVE",
"565 517 CURVE SMOOTH",
"565 651 OFFCURVE",
"477 721 OFFCURVE",
"314 721 CURVE SMOOTH",
"53 721 LINE",
"53 0 LINE",
"249 0 LINE",
"249 288 LINE",
"260 288 LINE SMOOTH",
"332 288 OFFCURVE",
"357 285 OFFCURVE",
"365 198 CURVE SMOOTH",
"379 0 LINE",
"589 0 LINE",
"556 199 LINE SMOOTH"
);
},
{
closed = 1;
nodes = (
"249 420 LINE",
"249 563 LINE",
"294 563 LINE SMOOTH",
"341 563 OFFCURVE",
"365 533 OFFCURVE",
"365 491 CURVE SMOOTH",
"365 450 OFFCURVE",
"341 420 OFFCURVE",
"294 420 CURVE SMOOTH"
);
}
);
width = 601;
},
{
associatedMasterId = "4050705C-5704-4184-B7B7-497C68798CAB";
layerId = "F29B49F5-FF9A-44B5-A81B-EF32FFA92833";
name = "May 8, 26 at 10:05";
paths = (
{
closed = 0;
nodes = (
"365 198 LINE",
"373 132 OFFCURVE",
"374 66 OFFCURVE",
"381 0 CURVE",
"585 0 LINE",
"573 66 OFFCURVE",
"565 133 OFFCURVE",
"556 199 CURVE SMOOTH"
);
},
{
closed = 1;
nodes = (
"248 468 OFFCURVE",
"247 515 OFFCURVE",
"248 563 CURVE",
"294 563 LINE SMOOTH",
"341 563 OFFCURVE",
"365 533 OFFCURVE",
"365 491 CURVE SMOOTH",
"365 450 OFFCURVE",
"341 420 OFFCURVE",
"294 420 CURVE SMOOTH",
"247 420 LINE"
);
},
{
closed = 1;
nodes = (
"565 651 OFFCURVE",
"477 721 OFFCURVE",
"314 721 CURVE SMOOTH",
"53 721 LINE",
"55 679 OFFCURVE",
"55 477 OFFCURVE",
"55 355 CURVE SMOOTH",
"55 237 OFFCURVE",
"55 48 OFFCURVE",
"53 0 CURVE",
"249 0 LINE",
"248 93 OFFCURVE",
"248 185 OFFCURVE",
"247 278 CURVE",
"309 278 LINE SMOOTH",
"504 278 OFFCURVE",
"565 389 OFFCURVE",
"565 514 CURVE SMOOTH"
);
},
{
closed = 1;
nodes = (
"647 0 LINE",
"612 45 OFFCURVE",
"556 165 OFFCURVE",
"493 339 CURVE",
"318 285 LINE",
"364 129 OFFCURVE",
"399 45 OFFCURVE",
"433 0 CURVE"
);
}
);
width = 601;
},
{
layerId = "A498EE73-B8E0-478F-AD48-BB28716BB127";
paths = (
{
closed = 1;
nodes = (
"141.5 0 LINE",
"140.5 95.25 OFFCURVE",
"140.5 186.25 OFFCURVE",
"139.5 281.5 CURVE",
"237.5 281.5 LINE SMOOTH",
"377.25 281.5 OFFCURVE",
"458.25 357 OFFCURVE",
"458.25 501.75 CURVE SMOOTH",
"458.25 651.25 OFFCURVE",
"377.75 721 OFFCURVE",
"244.75 721 CURVE SMOOTH",
"210.25 721 OFFCURVE",
"123.25 721 OFFCURVE",
"36.25 721 CURVE",
"38.25 679 OFFCURVE",
"38.25 477 OFFCURVE",
"38.25 355 CURVE SMOOTH",
"38.25 237 OFFCURVE",
"38.25 48 OFFCURVE",
"36.25 0 CURVE"
);
},
{
closed = 1;
nodes = (
"466 0 LINE",
"340.5 346.5 LINE",
"255 300 LINE",
"353.5 0 LINE"
);
},
{
closed = 1;
nodes = (
"140.5 451.25 OFFCURVE",
"139.5 547.25 OFFCURVE",
"140.5 630.5 CURVE",
"155.5 630.5 OFFCURVE",
"217.25 630.5 OFFCURVE",
"232.25 630.5 CURVE SMOOTH",
"314.5 630.5 OFFCURVE",
"352 582.75 OFFCURVE",
"352 501.75 CURVE SMOOTH",
"352 424.5 OFFCURVE",
"327.25 368 OFFCURVE",
"232.25 368 CURVE SMOOTH",
"216.25 368 OFFCURVE",
"155.5 368 OFFCURVE",
"139.5 368 CURVE"
);
}
);
width = 480;
},
{
layerId = "04E65C73-A9C2-4E63-92BC-18A513B12E25";
paths = (
{
closed = 1;
nodes = (
"152.25 0 LINE",
"151 32.75 OFFCURVE",
"150.25 137 OFFCURVE",
"150.25 254.5 CURVE",
"366.25 254.5 LINE SMOOTH",
"566 254.5 OFFCURVE",
"642.25 350 OFFCURVE",
"642.25 488.25 CURVE SMOOTH",
"642.25 638.5 OFFCURVE",
"549.75 721 OFFCURVE",
"366 721 CURVE SMOOTH",
"300.75 721 OFFCURVE",
"125.5 721 OFFCURVE",
"36.25 721 CURVE",
"37.25 680.25 OFFCURVE",
"38.25 532.75 OFFCURVE",
"38.25 370 CURVE SMOOTH",
"38.25 199 OFFCURVE",
"37.25 35.25 OFFCURVE",
"36.25 0 CURVE"
);
},
{
closed = 1;
nodes = (
"657.75 0 LINE",
"464.25 339.75 LINE",
"368.75 297.75 LINE",
"530.75 0 LINE"
);
},
{
closed = 1;
nodes = (
"150.25 466.5 OFFCURVE",
"151 571.5 OFFCURVE",
"152.25 624.5 CURVE",
"178.75 624.5 OFFCURVE",
"322 624.5 OFFCURVE",
"344.75 624.5 CURVE SMOOTH",
"466 624.5 OFFCURVE",
"527 580.5 OFFCURVE",
"527 486.75 CURVE SMOOTH",
"527 389.5 OFFCURVE",
"469.75 348.5 OFFCURVE",
"344.75 348.5 CURVE SMOOTH",
"289.25 348.5 OFFCURVE",
"167.25 348.5 OFFCURVE",
"150.25 349.5 CURVE"
);
}
);
width = 671.75;
}
);
leftMetricsKey = H;
note = R;
rightKerningGroup = R;
},
{
glyphname = V.001;
lastChange = "2026-05-28 22:11:58 +0000";
layers = (
{
layerId = m003;
paths = (
{
closed = 1;
nodes = (
"410 0 LINE",
"495 240 OFFCURVE",
"581 481 OFFCURVE",
"670 721 CURVE",
"487 721 LINE",
"439 567 OFFCURVE",
"385 404 OFFCURVE",
"333 250 CURVE",
"333 250 LINE",
"280 407 OFFCURVE",
"228 564 OFFCURVE",
"179 721 CURVE",
"-4 721 LINE",
"85 481 OFFCURVE",
"172 240 OFFCURVE",
"257 0 CURVE"
);
}
);
width = 666;
},
{
layerId = "4050705C-5704-4184-B7B7-497C68798CAB";
paths = (
{
closed = 1;
nodes = (
"384 0 LINE",
"453 240 OFFCURVE",
"521 481 OFFCURVE",
"590 721 CURVE",
"377 721 LINE",
"350 571 OFFCURVE",
"324 421 OFFCURVE",
"293 249 CURVE",
"266 399 OFFCURVE",
"236 571 OFFCURVE",
"209 721 CURVE",
"-4 721 LINE",
"65 481 OFFCURVE",
"133 240 OFFCURVE",
"202 0 CURVE"
);
}
);
width = 586;
},
{
layerId = "A498EE73-B8E0-478F-AD48-BB28716BB127";
paths = (
{
closed = 1;
nodes = (
"384 0 LINE",
"453 240 OFFCURVE",
"521 481 OFFCURVE",
"590 721 CURVE",
"377 721 LINE",
"350 571 OFFCURVE",
"324 421 OFFCURVE",
"293 249 CURVE",
"266 399 OFFCURVE",
"236 571 OFFCURVE",
"209 721 CURVE",
"-4 721 LINE",
"65 481 OFFCURVE",
"133 240 OFFCURVE",
"202 0 CURVE"
);
}
);
width = 586;
},
{
layerId = "04E65C73-A9C2-4E63-92BC-18A513B12E25";
paths = (
{
closed = 1;
nodes = (
"410 0 LINE",
"495 240 OFFCURVE",
"581 481 OFFCURVE",
"670 721 CURVE",
"487 721 LINE",
"439 567 OFFCURVE",
"385 404 OFFCURVE",
"333 250 CURVE",
"333 250 LINE",
"280 407 OFFCURVE",
"228 564 OFFCURVE",
"179 721 CURVE",
"-4 721 LINE",
"85 481 OFFCURVE",
"172 240 OFFCURVE",
"257 0 CURVE"
);
}
);
width = 666;
}
);
leftKerningGroup = V;
note = V;
rightKerningGroup = V;
},
{
glyphname = W.001;
lastChange = "2026-05-28 22:11:58 +0000";
layers = (
{
layerId = m003;
paths = (
{
closed = 1;
nodes = (
"423 406 LINE",
"457 330 LINE",
"563 0 LINE",
"739 0 LINE",
"813 240 OFFCURVE",
"889 481 OFFCURVE",
"967 721 CURVE",
"775 721 LINE",
"736 560 OFFCURVE",
"694 400 OFFCURVE",
"651 239 CURVE",
"605 400 OFFCURVE",
"560 560 OFFCURVE",
"518 721 CURVE",
"336 721 LINE"
);
},
{
closed = 1;
nodes = (
"437 581 LINE",
"400 463 OFFCURVE",
"361 346 OFFCURVE",
"319 231 CURVE",
"270 394 OFFCURVE",
"223 558 OFFCURVE",
"178 721 CURVE",
"-4 721 LINE",
"74 481 OFFCURVE",
"149 240 OFFCURVE",
"223 0 CURVE",
"399 0 LINE",
"436 118 OFFCURVE",
"475 237 OFFCURVE",
"516 355 CURVE"
);
}
);
width = 963;
},
{
layerId = "4050705C-5704-4184-B7B7-497C68798CAB";
paths = (
{
closed = 1;
nodes = (
"367 416 LINE",
"401 308 LINE",
"469 0 LINE",
"674 0 LINE",
"733 240 OFFCURVE",
"791 481 OFFCURVE",
"850 721 CURVE",
"644 721 LINE",
"622 556 OFFCURVE",
"601 391 OFFCURVE",
"579 226 CURVE",
"555 391 OFFCURVE",
"531 556 OFFCURVE",
"507 721 CURVE",
"309 721 LINE"
);
},
{
closed = 1;
nodes = (
"364 598 LINE",
"338 474 OFFCURVE",
"313 350 OFFCURVE",
"287 226 CURVE",
"259 391 OFFCURVE",
"230 556 OFFCURVE",
"202 721 CURVE",
"-4 721 LINE",
"55 481 OFFCURVE",
"113 240 OFFCURVE",
"172 0 CURVE",
"377 0 LINE",
"400 117 OFFCURVE",
"424 233 OFFCURVE",
"447 350 CURVE"
);
}
);
width = 846;
},
{
layerId = "A498EE73-B8E0-478F-AD48-BB28716BB127";
paths = (
{
closed = 1;
nodes = (
"367 416 LINE",
"401 308 LINE",
"469 0 LINE",
"674 0 LINE",
"733 240 OFFCURVE",
"791 481 OFFCURVE",
"850 721 CURVE",
"644 721 LINE",
"622 556 OFFCURVE",
"601 391 OFFCURVE",
"579 226 CURVE",
"555 391 OFFCURVE",
"531 556 OFFCURVE",
"507 721 CURVE",
"309 721 LINE"
);
},
{
closed = 1;
nodes = (
"364 598 LINE",
"338 474 OFFCURVE",
"313 350 OFFCURVE",
"287 226 CURVE",
"259 391 OFFCURVE",
"230 556 OFFCURVE",
"202 721 CURVE",
"-4 721 LINE",
"55 481 OFFCURVE",
"113 240 OFFCURVE",
"172 0 CURVE",
"377 0 LINE",
"400 117 OFFCURVE",
"424 233 OFFCURVE",
"447 350 CURVE"
);
}
);
width = 846;
},
{
layerId = "04E65C73-A9C2-4E63-92BC-18A513B12E25";
paths = (
{
closed = 1;
nodes = (
"445.5 406 LINE",
"479.5 330 LINE",
"585.5 0 LINE",
"761.5 0 LINE",
"835.5 240 OFFCURVE",
"911.5 481 OFFCURVE",
"989.5 721 CURVE",
"797.5 721 LINE",
"758.5 560 OFFCURVE",
"716.5 400 OFFCURVE",
"673.5 239 CURVE",
"627.5 400 OFFCURVE",
"582.5 560 OFFCURVE",
"540.5 721 CURVE",
"358.5 721 LINE"
);
},
{
closed = 1;
nodes = (
"459.5 581 LINE",
"422.5 463 OFFCURVE",
"383.5 346 OFFCURVE",
"341.5 231 CURVE",
"292.5 394 OFFCURVE",
"245.5 558 OFFCURVE",
"200.5 721 CURVE",
"18.5 721 LINE",
"96.5 481 OFFCURVE",
"171.5 240 OFFCURVE",
"245.5 0 CURVE",
"421.5 0 LINE",
"458.5 118 OFFCURVE",
"497.5 237 OFFCURVE",
"538.5 355 CURVE"
);
}
);
width = 1008;
}
);
},
{
glyphname = a;
lastChange = "2026-05-28 22:11:58 +0000";
layers = (
{
layerId = m003;
paths = (
{
closed = 1;
nodes = (
"545 0 LINE",
"545 335 LINE SMOOTH",
"545 482 OFFCURVE",
"456 565 OFFCURVE",
"300 565 CURVE SMOOTH",
"227 565 OFFCURVE",
"155 551 OFFCURVE",
"85 531 CURVE",
"85 378 LINE",
"142 409 OFFCURVE",
"203 421 OFFCURVE",
"268 421 CURVE SMOOTH",
"383 421 OFFCURVE",
"369 349 OFFCURVE",
"369 349 CURVE",
"356 350 OFFCURVE",
"15 392 OFFCURVE",
"15 160 CURVE SMOOTH",
"15 58 OFFCURVE",
"84 -11 OFFCURVE",
"204 -11 CURVE SMOOTH",
"352 -11 OFFCURVE",
"373 112 OFFCURVE",
"373 112 CURVE",
"381 112 LINE",
"377 62 LINE SMOOTH",
"375 41 OFFCURVE",
"374 21 OFFCURVE",
"373 0 CURVE"
);
},
{
closed = 1;
nodes = (
"373 173 OFFCURVE",
"337 126 OFFCURVE",
"263 126 CURVE SMOOTH",
"220 126 OFFCURVE",
"194 144 OFFCURVE",
"194 181 CURVE SMOOTH",
"194 226 OFFCURVE",
"245 255 OFFCURVE",
"330 255 CURVE SMOOTH",
"347 255 OFFCURVE",
"362 254 OFFCURVE",
"373 253 CURVE",
"373 244 LINE SMOOTH"
);
}
);
width = 594;
},
{
layerId = "4050705C-5704-4184-B7B7-497C68798CAB";
paths = (
{
closed = 1;
nodes = (
"237 565 OFFCURVE",
"174 554 OFFCURVE",
"109 542 CURVE",
"109 383 LINE",
"159 408 OFFCURVE",
"212 418 OFFCURVE",
"268 418 CURVE SMOOTH",
"372 418 OFFCURVE",
"367 349 OFFCURVE",
"367 349 CURVE",
"354 350 OFFCURVE",
"39 392 OFFCURVE",
"39 160 CURVE SMOOTH",
"39 58 OFFCURVE",
"95 -11 OFFCURVE",
"202 -11 CURVE SMOOTH",
"326 -11 OFFCURVE",
"354 84 OFFCURVE",
"359 107 CURVE",
"366 107 LINE",
"363 62 LINE SMOOTH",
"362 41 OFFCURVE",
"360 21 OFFCURVE",
"359 0 CURVE",
"548 0 LINE",
"548 341 LINE SMOOTH",
"548 488 OFFCURVE",
"477 565 OFFCURVE",
"303 565 CURVE SMOOTH"
);
},
{
closed = 1;
nodes = (
"249 126 OFFCURVE",
"223 152 OFFCURVE",
"223 186 CURVE SMOOTH",
"223 231 OFFCURVE",
"252 255 OFFCURVE",
"321 255 CURVE SMOOTH",
"336 255 OFFCURVE",
"357 254 OFFCURVE",
"367 253 CURVE",
"367 244 LINE SMOOTH",
"367 173 OFFCURVE",
"344 126 OFFCURVE",
"285 126 CURVE SMOOTH"
);
}
);
width = 597;
},
{
layerId = "A498EE73-B8E0-478F-AD48-BB28716BB127";
paths = (
{
closed = 1;
nodes = (
"237 565 OFFCURVE",
"174 554 OFFCURVE",
"109 542 CURVE",
"109 383 LINE",
"159 408 OFFCURVE",
"212 418 OFFCURVE",
"268 418 CURVE SMOOTH",
"372 418 OFFCURVE",
"367 349 OFFCURVE",
"367 349 CURVE",
"354 350 OFFCURVE",
"39 392 OFFCURVE",
"39 160 CURVE SMOOTH",
"39 58 OFFCURVE",
"95 -11 OFFCURVE",
"202 -11 CURVE SMOOTH",
"326 -11 OFFCURVE",
"354 84 OFFCURVE",
"359 107 CURVE",
"366 107 LINE",
"363 62 LINE SMOOTH",
"362 41 OFFCURVE",
"360 21 OFFCURVE",
"359 0 CURVE",
"548 0 LINE",
"548 341 LINE SMOOTH",
"548 488 OFFCURVE",
"477 565 OFFCURVE",
"303 565 CURVE SMOOTH"
);
},
{
closed = 1;
nodes = (
"249 126 OFFCURVE",
"223 152 OFFCURVE",
"223 186 CURVE SMOOTH",
"223 231 OFFCURVE",
"252 255 OFFCURVE",
"321 255 CURVE SMOOTH",
"336 255 OFFCURVE",
"357 254 OFFCURVE",
"367 253 CURVE",
"367 244 LINE SMOOTH",
"367 173 OFFCURVE",
"344 126 OFFCURVE",
"285 126 CURVE SMOOTH"
);
}
);
width = 597;
},
{
layerId = "04E65C73-A9C2-4E63-92BC-18A513B12E25";
paths = (
{
closed = 1;
nodes = (
"545 0 LINE",
"545 335 LINE SMOOTH",
"545 482 OFFCURVE",
"456 565 OFFCURVE",
"300 565 CURVE SMOOTH",
"227 565 OFFCURVE",
"155 551 OFFCURVE",
"85 531 CURVE",
"85 378 LINE",
"142 409 OFFCURVE",
"203 421 OFFCURVE",
"268 421 CURVE SMOOTH",
"383 421 OFFCURVE",
"369 349 OFFCURVE",
"369 349 CURVE",
"356 350 OFFCURVE",
"15 392 OFFCURVE",
"15 160 CURVE SMOOTH",
"15 58 OFFCURVE",
"84 -11 OFFCURVE",
"204 -11 CURVE SMOOTH",
"352 -11 OFFCURVE",
"373 112 OFFCURVE",
"373 112 CURVE",
"381 112 LINE",
"377 62 LINE SMOOTH",
"375 41 OFFCURVE",
"374 21 OFFCURVE",
"373 0 CURVE"
);
},
{
closed = 1;
nodes = (
"373 173 OFFCURVE",
"337 126 OFFCURVE",
"263 126 CURVE SMOOTH",
"220 126 OFFCURVE",
"194 144 OFFCURVE",
"194 181 CURVE SMOOTH",
"194 226 OFFCURVE",
"245 255 OFFCURVE",
"330 255 CURVE SMOOTH",
"347 255 OFFCURVE",
"362 254 OFFCURVE",
"373 253 CURVE",
"373 244 LINE SMOOTH"
);
}
);
width = 594;
}
);
leftKerningGroup = a;
note = a;
rightKerningGroup = a;
unicode = 0061;
},
{
glyphname = b;
lastChange = "2026-05-28 22:11:58 +0000";
layers = (
{
layerId = m003;
paths = (
{
closed = 1;
nodes = (
"224 -3 LINE",
"221 59 LINE",
"217 109 LINE",
"225 109 LINE",
"225 109 OFFCURVE",
"242 -15 OFFCURVE",
"396 -15 CURVE SMOOTH",
"528 -15 OFFCURVE",
"609 106 OFFCURVE",
"609 273 CURVE SMOOTH",
"609 446 OFFCURVE",
"519 561 OFFCURVE",
"391 561 CURVE SMOOTH",
"257 561 OFFCURVE",
"225 447 OFFCURVE",
"225 447 CURVE SMOOTH",
"217 447 LINE",
"221 498 LINE SMOOTH",
"224 531 OFFCURVE",
"225 563 OFFCURVE",
"225 596 CURVE SMOOTH",
"225 718 LINE",
"53 718 LINE",
"53 -3 LINE"
);
},
{
closed = 1;
nodes = (
"225 363 OFFCURVE",
"267 413 OFFCURVE",
"328 413 CURVE SMOOTH",
"389 413 OFFCURVE",
"430 363 OFFCURVE",
"430 273 CURVE SMOOTH",
"430 183 OFFCURVE",
"389 133 OFFCURVE",
"328 133 CURVE SMOOTH",
"267 133 OFFCURVE",
"225 183 OFFCURVE",
"225 273 CURVE SMOOTH"
);
}
);
width = 628;
},
{
layerId = "4050705C-5704-4184-B7B7-497C68798CAB";
paths = (
{
closed = 1;
nodes = (
"265 565 OFFCURVE",
"242 450 OFFCURVE",
"242 450 CURVE SMOOTH",
"234 450 LINE",
"238 501 LINE SMOOTH",
"241 534 OFFCURVE",
"242 566 OFFCURVE",
"242 599 CURVE SMOOTH",
"242 721 LINE",
"53 721 LINE",
"53 0 LINE",
"242 0 LINE",
"241 21 OFFCURVE",
"240 41 OFFCURVE",
"238 62 CURVE SMOOTH",
"235 107 LINE",
"242 107 LINE",
"242 107 OFFCURVE",
"256 -11 OFFCURVE",
"381 -11 CURVE SMOOTH",
"492 -11 OFFCURVE",
"557 111 OFFCURVE",
"557 279 CURVE SMOOTH",
"557 442 OFFCURVE",
"504 565 OFFCURVE",
"388 565 CURVE SMOOTH"
);
},
{
closed = 1;
nodes = (
"262 151 OFFCURVE",
"235 187 OFFCURVE",
"235 279 CURVE SMOOTH",
"235 371 OFFCURVE",
"262 406 OFFCURVE",
"301 406 CURVE SMOOTH",
"341 406 OFFCURVE",
"368 371 OFFCURVE",
"368 279 CURVE SMOOTH",
"368 187 OFFCURVE",
"341 151 OFFCURVE",
"301 151 CURVE SMOOTH"
);
}
);
width = 586;
},
{
layerId = "A498EE73-B8E0-478F-AD48-BB28716BB127";
paths = (
{
closed = 1;
nodes = (
"265 565 OFFCURVE",
"242 450 OFFCURVE",
"242 450 CURVE SMOOTH",
"234 450 LINE",
"238 501 LINE SMOOTH",
"241 534 OFFCURVE",
"242 566 OFFCURVE",
"242 599 CURVE SMOOTH",
"242 721 LINE",
"53 721 LINE",
"53 0 LINE",
"242 0 LINE",
"241 21 OFFCURVE",
"240 41 OFFCURVE",
"238 62 CURVE SMOOTH",
"235 107 LINE",
"242 107 LINE",
"242 107 OFFCURVE",
"256 -11 OFFCURVE",
"381 -11 CURVE SMOOTH",
"492 -11 OFFCURVE",
"557 111 OFFCURVE",
"557 279 CURVE SMOOTH",
"557 442 OFFCURVE",
"504 565 OFFCURVE",
"388 565 CURVE SMOOTH"
);
},
{
closed = 1;
nodes = (
"262 151 OFFCURVE",
"235 187 OFFCURVE",
"235 279 CURVE SMOOTH",
"235 371 OFFCURVE",
"262 406 OFFCURVE",
"301 406 CURVE SMOOTH",
"341 406 OFFCURVE",
"368 371 OFFCURVE",
"368 279 CURVE SMOOTH",
"368 187 OFFCURVE",
"341 151 OFFCURVE",
"301 151 CURVE SMOOTH"
);
}
);
width = 586;
},
{
layerId = "04E65C73-A9C2-4E63-92BC-18A513B12E25";
paths = (
{
closed = 1;
nodes = (
"224 -3 LINE",
"221 59 LINE",
"217 109 LINE",
"225 109 LINE",
"225 109 OFFCURVE",
"242 -15 OFFCURVE",
"396 -15 CURVE SMOOTH",
"528 -15 OFFCURVE",
"609 106 OFFCURVE",
"609 273 CURVE SMOOTH",
"609 446 OFFCURVE",
"519 561 OFFCURVE",
"391 561 CURVE SMOOTH",
"257 561 OFFCURVE",
"225 447 OFFCURVE",
"225 447 CURVE SMOOTH",
"217 447 LINE",
"221 498 LINE SMOOTH",
"224 531 OFFCURVE",
"225 563 OFFCURVE",
"225 596 CURVE SMOOTH",
"225 718 LINE",
"53 718 LINE",
"53 -3 LINE"
);
},
{
closed = 1;
nodes = (
"225 363 OFFCURVE",
"267 413 OFFCURVE",
"328 413 CURVE SMOOTH",
"389 413 OFFCURVE",
"430 363 OFFCURVE",
"430 273 CURVE SMOOTH",
"430 183 OFFCURVE",
"389 133 OFFCURVE",
"328 133 CURVE SMOOTH",
"267 133 OFFCURVE",
"225 183 OFFCURVE",
"225 273 CURVE SMOOTH"
);
}
);
width = 628;
}
);
note = b;
rightKerningGroup = b;
unicode = 0062;
},
{
glyphname = c;
lastChange = "2026-05-28 22:11:58 +0000";
layers = (
{
layerId = m003;
paths = (
{
closed = 1;
nodes = (
"370 -11 OFFCURVE",
"432 5 OFFCURVE",
"496 21 CURVE",
"496 178 LINE",
"444 150 OFFCURVE",
"388 137 OFFCURVE",
"329 137 CURVE SMOOTH",
"245 137 OFFCURVE",
"205 180 OFFCURVE",
"205 277 CURVE SMOOTH",
"205 374 OFFCURVE",
"245 417 OFFCURVE",
"329 417 CURVE SMOOTH",
"388 417 OFFCURVE",
"441 397 OFFCURVE",
"496 376 CURVE",
"496 533 LINE",
"435 557 OFFCURVE",
"370 565 OFFCURVE",
"304 565 CURVE SMOOTH",
"113 565 OFFCURVE",
"26 437 OFFCURVE",
"26 277 CURVE SMOOTH",
"26 117 OFFCURVE",
"113 -11 OFFCURVE",
"304 -11 CURVE SMOOTH"
);
}
);
width = 523;
},
{
layerId = "4050705C-5704-4184-B7B7-497C68798CAB";
paths = (
{
closed = 1;
nodes = (
"345 -9 OFFCURVE",
"395 -3 OFFCURVE",
"444 11 CURVE",
"444 185 LINE",
"405 165 OFFCURVE",
"369 147 OFFCURVE",
"325 147 CURVE SMOOTH",
"254 147 OFFCURVE",
"223 191 OFFCURVE",
"223 280 CURVE SMOOTH",
"223 368 OFFCURVE",
"254 412 OFFCURVE",
"325 412 CURVE SMOOTH",
"368 412 OFFCURVE",
"408 400 OFFCURVE",
"444 376 CURVE",
"444 548 LINE",
"394 558 OFFCURVE",
"345 568 OFFCURVE",
"294 568 CURVE SMOOTH",
"139 568 OFFCURVE",
"34 457 OFFCURVE",
"34 280 CURVE SMOOTH",
"34 102 OFFCURVE",
"139 -9 OFFCURVE",
"294 -9 CURVE SMOOTH"
);
}
);
width = 495;
},
{
layerId = "A498EE73-B8E0-478F-AD48-BB28716BB127";
paths = (
{
closed = 1;
nodes = (
"345 -9 OFFCURVE",
"395 -3 OFFCURVE",
"444 11 CURVE",
"444 185 LINE",
"405 165 OFFCURVE",
"369 147 OFFCURVE",
"325 147 CURVE SMOOTH",
"254 147 OFFCURVE",
"223 191 OFFCURVE",
"223 280 CURVE SMOOTH",
"223 368 OFFCURVE",
"254 412 OFFCURVE",
"325 412 CURVE SMOOTH",
"368 412 OFFCURVE",
"408 400 OFFCURVE",
"444 376 CURVE",
"444 548 LINE",
"394 558 OFFCURVE",
"345 568 OFFCURVE",
"294 568 CURVE SMOOTH",
"139 568 OFFCURVE",
"34 457 OFFCURVE",
"34 280 CURVE SMOOTH",
"34 102 OFFCURVE",
"139 -9 OFFCURVE",
"294 -9 CURVE SMOOTH"
);
}
);
width = 495;
},
{
layerId = "04E65C73-A9C2-4E63-92BC-18A513B12E25";
paths = (
{
closed = 1;
nodes = (
"370 -11 OFFCURVE",
"432 5 OFFCURVE",
"496 21 CURVE",
"496 178 LINE",
"444 150 OFFCURVE",
"388 137 OFFCURVE",
"329 137 CURVE SMOOTH",
"245 137 OFFCURVE",
"205 180 OFFCURVE",
"205 277 CURVE SMOOTH",
"205 374 OFFCURVE",
"245 417 OFFCURVE",
"329 417 CURVE SMOOTH",
"388 417 OFFCURVE",
"441 397 OFFCURVE",
"496 376 CURVE",
"496 533 LINE",
"435 557 OFFCURVE",
"370 565 OFFCURVE",
"304 565 CURVE SMOOTH",
"113 565 OFFCURVE",
"26 437 OFFCURVE",
"26 277 CURVE SMOOTH",
"26 117 OFFCURVE",
"113 -11 OFFCURVE",
"304 -11 CURVE SMOOTH"
);
}
);
width = 523;
}
);
leftKerningGroup = c;
note = c;
rightKerningGroup = c;
unicode = 0063;
},
{
glyphname = d;
lastChange = "2026-05-28 22:11:58 +0000";
layers = (
{
layerId = m003;
paths = (
{
closed = 1;
nodes = (
"418 85 LINE",
"414 43 LINE",
"411 -3 LINE",
"582 -3 LINE",
"582 718 LINE",
"410 718 LINE",
"410 594 LINE SMOOTH",
"410 563 OFFCURVE",
"411 531 OFFCURVE",
"414 501 CURVE SMOOTH",
"418 459 LINE",
"410 459 LINE SMOOTH",
"410 459 OFFCURVE",
"376 561 OFFCURVE",
"251 561 CURVE SMOOTH",
"123 561 OFFCURVE",
"26 446 OFFCURVE",
"26 273 CURVE SMOOTH",
"26 106 OFFCURVE",
"115 -15 OFFCURVE",
"250 -15 CURVE SMOOTH",
"375 -15 OFFCURVE",
"410 85 OFFCURVE",
"410 85 CURVE"
);
},
{
closed = 1;
nodes = (
"246 133 OFFCURVE",
"205 183 OFFCURVE",
"205 273 CURVE SMOOTH",
"205 363 OFFCURVE",
"246 413 OFFCURVE",
"307 413 CURVE SMOOTH",
"368 413 OFFCURVE",
"410 363 OFFCURVE",
"410 273 CURVE SMOOTH",
"410 183 OFFCURVE",
"368 133 OFFCURVE",
"307 133 CURVE SMOOTH"
);
}
);
width = 635;
},
{
layerId = "4050705C-5704-4184-B7B7-497C68798CAB";
paths = (
{
closed = 1;
nodes = (
"30 111 OFFCURVE",
"102 -11 OFFCURVE",
"213 -11 CURVE",
"333 -11 OFFCURVE",
"345 107 OFFCURVE",
"345 107 CURVE",
"352 107 LINE",
"349 62 LINE",
"347 41 OFFCURVE",
"346 21 OFFCURVE",
"345 0 CURVE",
"534 0 LINE",
"534 721 LINE",
"345 721 LINE",
"345 599 LINE",
"345 566 OFFCURVE",
"346 534 OFFCURVE",
"349 501 CURVE",
"353 450 LINE",
"345 450 LINE",
"345 450 OFFCURVE",
"332 565 OFFCURVE",
"209 565 CURVE",
"93 565 OFFCURVE",
"30 442 OFFCURVE",
"30 279 CURVE"
);
},
{
closed = 1;
nodes = (
"219 371 OFFCURVE",
"246 406 OFFCURVE",
"286 406 CURVE SMOOTH",
"325 406 OFFCURVE",
"352 371 OFFCURVE",
"352 279 CURVE SMOOTH",
"352 187 OFFCURVE",
"325 151 OFFCURVE",
"286 151 CURVE SMOOTH",
"246 151 OFFCURVE",
"219 187 OFFCURVE",
"219 279 CURVE SMOOTH"
);
}
);
width = 587;
},
{
layerId = "A498EE73-B8E0-478F-AD48-BB28716BB127";
paths = (
{
closed = 1;
nodes = (
"30 111 OFFCURVE",
"102 -11 OFFCURVE",
"213 -11 CURVE",
"333 -11 OFFCURVE",
"345 107 OFFCURVE",
"345 107 CURVE",
"352 107 LINE",
"349 62 LINE",
"347 41 OFFCURVE",
"346 21 OFFCURVE",
"345 0 CURVE",
"534 0 LINE",
"534 721 LINE",
"345 721 LINE",
"345 599 LINE",
"345 566 OFFCURVE",
"346 534 OFFCURVE",
"349 501 CURVE",
"353 450 LINE",
"345 450 LINE",
"345 450 OFFCURVE",
"332 565 OFFCURVE",
"209 565 CURVE",
"93 565 OFFCURVE",
"30 442 OFFCURVE",
"30 279 CURVE"
);
},
{
closed = 1;
nodes = (
"219 371 OFFCURVE",
"246 406 OFFCURVE",
"286 406 CURVE SMOOTH",
"325 406 OFFCURVE",
"352 371 OFFCURVE",
"352 279 CURVE SMOOTH",
"352 187 OFFCURVE",
"325 151 OFFCURVE",
"286 151 CURVE SMOOTH",
"246 151 OFFCURVE",
"219 187 OFFCURVE",
"219 279 CURVE SMOOTH"
);
}
);
width = 587;
},
{
layerId = "04E65C73-A9C2-4E63-92BC-18A513B12E25";
paths = (
{
closed = 1;
nodes = (
"418 85 LINE",
"414 43 LINE",
"411 -3 LINE",
"582 -3 LINE",
"582 718 LINE",
"410 718 LINE",
"410 594 LINE SMOOTH",
"410 563 OFFCURVE",
"411 531 OFFCURVE",
"414 501 CURVE SMOOTH",
"418 459 LINE",
"410 459 LINE SMOOTH",
"410 459 OFFCURVE",
"376 561 OFFCURVE",
"251 561 CURVE SMOOTH",
"123 561 OFFCURVE",
"26 446 OFFCURVE",
"26 273 CURVE SMOOTH",
"26 106 OFFCURVE",
"115 -15 OFFCURVE",
"250 -15 CURVE SMOOTH",
"375 -15 OFFCURVE",
"410 85 OFFCURVE",
"410 85 CURVE"
);
},
{
closed = 1;
nodes = (
"246 133 OFFCURVE",
"205 183 OFFCURVE",
"205 273 CURVE SMOOTH",
"205 363 OFFCURVE",
"246 413 OFFCURVE",
"307 413 CURVE SMOOTH",
"368 413 OFFCURVE",
"410 363 OFFCURVE",
"410 273 CURVE SMOOTH",
"410 183 OFFCURVE",
"368 133 OFFCURVE",
"307 133 CURVE SMOOTH"
);
}
);
width = 635;
}
);
leftKerningGroup = d;
note = d;
rightKerningGroup = d;
unicode = 0064;
},
{
glyphname = e;
lastChange = "2026-05-29 16:18:17 +0000";
layers = (
{
layerId = m003;
paths = (
{
closed = 1;
nodes = (
"475 -11 OFFCURVE",
"543 4 OFFCURVE",
"604 27 CURVE",
"635 200 LINE",
"569 173 OFFCURVE",
"498 159 OFFCURVE",
"400 159 CURVE SMOOTH",
"282 159 OFFCURVE",
"226 192 OFFCURVE",
"217 227 CURVE",
"367 227 OFFCURVE",
"516 227 OFFCURVE",
"666 227 CURVE",
"668 243 OFFCURVE",
"669 260 OFFCURVE",
"669 277 CURVE SMOOTH",
"669 431 OFFCURVE",
"572 565 OFFCURVE",
"344 565 CURVE SMOOTH",
"126 565 OFFCURVE",
"10 437 OFFCURVE",
"10 277 CURVE SMOOTH",
"10 117 OFFCURVE",
"136 -11 OFFCURVE",
"380 -11 CURVE SMOOTH"
);
},
{
closed = 1;
nodes = (
"230 368 OFFCURVE",
"270 395 OFFCURVE",
"344 395 CURVE SMOOTH",
"417 395 OFFCURVE",
"454 368 OFFCURVE",
"466 323 CURVE",
"383 323 OFFCURVE",
"300 323 OFFCURVE",
"217 323 CURVE"
);
}
);
width = 677;
},
{
layerId = "4050705C-5704-4184-B7B7-497C68798CAB";
paths = (
{
closed = 1;
nodes = (
"353 -11 OFFCURVE",
"413 0 OFFCURVE",
"458 17 CURVE",
"472 181 LINE",
"426 151 OFFCURVE",
"367 138 OFFCURVE",
"310 138 CURVE SMOOTH",
"243 138 OFFCURVE",
"204 162 OFFCURVE",
"195 226 CURVE",
"302 228 OFFCURVE",
"409 228 OFFCURVE",
"516 226 CURVE",
"517 238 OFFCURVE",
"518 251 OFFCURVE",
"518 276 CURVE SMOOTH",
"518 438 OFFCURVE",
"441 565 OFFCURVE",
"264 565 CURVE SMOOTH",
"87 565 OFFCURVE",
"10 438 OFFCURVE",
"10 276 CURVE SMOOTH",
"10 94 OFFCURVE",
"98 -11 OFFCURVE",
"294 -11 CURVE SMOOTH"
);
},
{
closed = 1;
nodes = (
"196 392 OFFCURVE",
"231 418 OFFCURVE",
"264 418 CURVE SMOOTH",
"297 418 OFFCURVE",
"332 393 OFFCURVE",
"332 324 CURVE",
"287 322 OFFCURVE",
"241 322 OFFCURVE",
"196 324 CURVE"
);
}
);
width = 526;
},
{
associatedMasterId = m003;
layerId = "79144B7C-02DA-44A2-9835-328DD0937057";
name = "May 20, 26 at 16:48";
paths = (
{
closed = 1;
nodes = (
"386 -11 OFFCURVE",
"455 10 OFFCURVE",
"526 32 CURVE",
"526 180 LINE",
"466 145 OFFCURVE",
"401 129 OFFCURVE",
"331 129 CURVE SMOOTH",
"245 129 OFFCURVE",
"203 167 OFFCURVE",
"198 228 CURVE",
"567 228 LINE",
"569 244 OFFCURVE",
"570 260 OFFCURVE",
"570 277 CURVE SMOOTH",
"570 431 OFFCURVE",
"489 565 OFFCURVE",
"299 565 CURVE SMOOTH",
"118 565 OFFCURVE",
"21 437 OFFCURVE",
"21 277 CURVE SMOOTH",
"21 117 OFFCURVE",
"120 -11 OFFCURVE",
"311 -11 CURVE SMOOTH"
);
},
{
closed = 1;
nodes = (
"208 386 OFFCURVE",
"240 425 OFFCURVE",
"299 425 CURVE SMOOTH",
"358 425 OFFCURVE",
"387 386 OFFCURVE",
"397 322 CURVE",
"198 322 LINE"
);
},
{
closed = 1;
nodes = (
"591 -11 OFFCURVE",
"695 117 OFFCURVE",
"695 277 CURVE SMOOTH",
"695 437 OFFCURVE",
"591 565 OFFCURVE",
"363 565 CURVE SMOOTH",
"134 565 OFFCURVE",
"29 437 OFFCURVE",
"29 277 CURVE SMOOTH",
"29 117 OFFCURVE",
"134 -11 OFFCURVE",
"363 -11 CURVE SMOOTH"
);
},
{
closed = 1;
nodes = (
"286 157 OFFCURVE",
"238 200 OFFCURVE",
"238 277 CURVE SMOOTH",
"238 354 OFFCURVE",
"286 397 OFFCURVE",
"363 397 CURVE SMOOTH",
"439 397 OFFCURVE",
"486 354 OFFCURVE",
"486 277 CURVE SMOOTH",
"486 200 OFFCURVE",
"439 157 OFFCURVE",
"363 157 CURVE SMOOTH"
);
}
);
width = 591;
},
{
layerId = "A498EE73-B8E0-478F-AD48-BB28716BB127";
paths = (
{
closed = 1;
nodes = (
"300 -9 OFFCURVE",
"338 0 OFFCURVE",
"378 19 CURVE",
"388 118 LINE",
"341 90 OFFCURVE",
"302 78 OFFCURVE",
"256 78 CURVE SMOOTH",
"173.667 78 OFFCURVE",
"124 122.667 OFFCURVE",
"112.333 229.667 CURVE",
"219 231.667 OFFCURVE",
"325.667 231.667 OFFCURVE",
"432.667 229.667 CURVE",
"434.667 245 OFFCURVE",
"434.667 262 OFFCURVE",
"434.667 278 CURVE SMOOTH",
"434.667 440 OFFCURVE",
"369 567 OFFCURVE",
"220.667 567 CURVE SMOOTH",
"80.333 567 OFFCURVE",
"9.333 440 OFFCURVE",
"9.333 278 CURVE SMOOTH",
"9.333 96 OFFCURVE",
"89.667 -9 OFFCURVE",
"244 -9 CURVE SMOOTH"
);
},
{
closed = 1;
nodes = (
"113.333 415.333 OFFCURVE",
"158 480 OFFCURVE",
"220.667 480 CURVE SMOOTH",
"285.667 480 OFFCURVE",
"331.333 416.333 OFFCURVE",
"334.333 310 CURVE",
"260 308.667 OFFCURVE",
"187 308.667 OFFCURVE",
"112.667 310 CURVE"
);
}
);
width = 443.66667;
},
{
layerId = "04E65C73-A9C2-4E63-92BC-18A513B12E25";
paths = (
{
closed = 1;
nodes = (
"418 -9 OFFCURVE",
"486 9 OFFCURVE",
"534 36 CURVE",
"556 147 LINE",
"505 109 OFFCURVE",
"442 84 OFFCURVE",
"345 84 CURVE SMOOTH",
"217 84 OFFCURVE",
"135 140 OFFCURVE",
"114 226 CURVE",
"184 227 OFFCURVE",
"501 229 OFFCURVE",
"614 229 CURVE",
"614.667 241 OFFCURVE",
"615.667 257.667 OFFCURVE",
"615.667 277.667 CURVE SMOOTH",
"615.667 443.667 OFFCURVE",
"500 567 OFFCURVE",
"317 567 CURVE SMOOTH",
"130 567 OFFCURVE",
"9.333 444.667 OFFCURVE",
"9.333 277.667 CURVE SMOOTH",
"9.333 108 OFFCURVE",
"138 -9 OFFCURVE",
"340 -9 CURVE SMOOTH"
);
},
{
closed = 1;
nodes = (
"128 409 OFFCURVE",
"204 473 OFFCURVE",
"317 473 CURVE SMOOTH",
"424 473 OFFCURVE",
"500 410 OFFCURVE",
"512 316 CURVE",
"380 315 OFFCURVE",
"247 315 OFFCURVE",
"115 314 CURVE"
);
}
);
width = 625;
},
{
associatedMasterId = "04E65C73-A9C2-4E63-92BC-18A513B12E25";
layerId = "BB9E3DF9-BF0D-4333-A4F6-BCA62F43C6F8";
name = "{600, 200}";
paths = (
{
closed = 1;
nodes = (
"456 -10 OFFCURVE",
"532 6 OFFCURVE",
"595 33 CURVE",
"602 182 LINE",
"538 149 OFFCURVE",
"467 134 OFFCURVE",
"382 134 CURVE SMOOTH",
"267 134 OFFCURVE",
"205 170 OFFCURVE",
"187 218 CURVE",
"310 218 OFFCURVE",
"511 218 OFFCURVE",
"648 218 CURVE",
"649 228 OFFCURVE",
"651 250 OFFCURVE",
"651 277 CURVE SMOOTH",
"651 435 OFFCURVE",
"548 566 OFFCURVE",
"335 566 CURVE SMOOTH",
"127 566 OFFCURVE",
"10 440 OFFCURVE",
"10 277 CURVE SMOOTH",
"10 114 OFFCURVE",
"137 -10 OFFCURVE",
"367 -10 CURVE SMOOTH"
);
},
{
closed = 1;
nodes = (
"200 383 OFFCURVE",
"251 421 OFFCURVE",
"335 421 CURVE SMOOTH",
"416 421 OFFCURVE",
"466 384 OFFCURVE",
"480 327 CURVE",
"383 327 OFFCURVE",
"284 327 OFFCURVE",
"185 326 CURVE"
);
}
);
width = 660;
}
);
leftKerningGroup = e;
leftMetricsKey = o;
note = e;
rightKerningGroup = e;
unicode = 0065;
},
{
glyphname = f;
lastChange = "2026-05-28 22:11:58 +0000";
layers = (
{
layerId = m003;
paths = (
{
closed = 1;
nodes = (
"369 605 OFFCURVE",
"405 596 OFFCURVE",
"441 586 CURVE",
"453 722 LINE",
"404 733 OFFCURVE",
"354 740 OFFCURVE",
"303 740 CURVE SMOOTH",
"172 740 OFFCURVE",
"99 680 OFFCURVE",
"99 550 CURVE",
"23 550 LINE",
"23 405 LINE",
"99 405 LINE",
"99 0 LINE",
"271 0 LINE",
"271 405 LINE",
"419 405 LINE",
"419 550 LINE",
"271 550 LINE",
"271 586 OFFCURVE",
"296 605 OFFCURVE",
"332 605 CURVE SMOOTH"
);
}
);
width = 465;
},
{
layerId = "4050705C-5704-4184-B7B7-497C68798CAB";
paths = (
{
closed = 1;
nodes = (
"395 609 OFFCURVE",
"424 602 OFFCURVE",
"453 594 CURVE",
"465 737 LINE",
"416 750 OFFCURVE",
"366 755 OFFCURVE",
"315 755 CURVE SMOOTH",
"184 755 OFFCURVE",
"111 684 OFFCURVE",
"111 554 CURVE",
"23 554 LINE",
"23 416 LINE",
"111 416 LINE",
"111 0 LINE",
"300 0 LINE",
"300 416 LINE",
"421 416 LINE",
"421 554 LINE",
"300 554 LINE",
"300 591 OFFCURVE",
"328 609 OFFCURVE",
"365 609 CURVE SMOOTH"
);
}
);
width = 477;
},
{
layerId = "A498EE73-B8E0-478F-AD48-BB28716BB127";
paths = (
{
closed = 1;
nodes = (
"395 609 OFFCURVE",
"424 602 OFFCURVE",
"453 594 CURVE",
"465 737 LINE",
"416 750 OFFCURVE",
"366 755 OFFCURVE",
"315 755 CURVE SMOOTH",
"184 755 OFFCURVE",
"111 684 OFFCURVE",
"111 554 CURVE",
"23 554 LINE",
"23 416 LINE",
"111 416 LINE",
"111 0 LINE",
"300 0 LINE",
"300 416 LINE",
"421 416 LINE",
"421 554 LINE",
"300 554 LINE",
"300 591 OFFCURVE",
"328 609 OFFCURVE",
"365 609 CURVE SMOOTH"
);
}
);
width = 477;
},
{
layerId = "04E65C73-A9C2-4E63-92BC-18A513B12E25";
paths = (
{
closed = 1;
nodes = (
"369 605 OFFCURVE",
"405 596 OFFCURVE",
"441 586 CURVE",
"453 722 LINE",
"404 733 OFFCURVE",
"354 740 OFFCURVE",
"303 740 CURVE SMOOTH",
"172 740 OFFCURVE",
"99 680 OFFCURVE",
"99 550 CURVE",
"23 550 LINE",
"23 405 LINE",
"99 405 LINE",
"99 0 LINE",
"271 0 LINE",
"271 405 LINE",
"419 405 LINE",
"419 550 LINE",
"271 550 LINE",
"271 586 OFFCURVE",
"296 605 OFFCURVE",
"332 605 CURVE SMOOTH"
);
}
);
width = 465;
}
);
leftKerningGroup = f;
note = f;
rightKerningGroup = f;
unicode = 0066;
},
{
glyphname = g;
lastChange = "2026-05-28 22:11:58 +0000";
layers = (
{
layerId = m003;
paths = (
{
closed = 1;
nodes = (
"413 551 LINE",
"414 530 OFFCURVE",
"415 510 OFFCURVE",
"417 489 CURVE SMOOTH",
"421 439 LINE",
"413 439 LINE SMOOTH",
"413 439 OFFCURVE",
"401 563 OFFCURVE",
"253 563 CURVE SMOOTH",
"125 563 OFFCURVE",
"29 450 OFFCURVE",
"29 277 CURVE SMOOTH",
"29 110 OFFCURVE",
"118 15 OFFCURVE",
"253 15 CURVE SMOOTH",
"400 15 OFFCURVE",
"413 139 OFFCURVE",
"413 139 CURVE",
"421 139 LINE",
"421 139 OFFCURVE",
"416 110 OFFCURVE",
"415 89 CURVE SMOOTH",
"414 68 OFFCURVE",
"414 50 OFFCURVE",
"413 40 CURVE",
"411 -30 OFFCURVE",
"346 -62 OFFCURVE",
"260 -62 CURVE SMOOTH",
"198 -62 OFFCURVE",
"147 -39 OFFCURVE",
"91 -13 CURVE",
"91 -183 LINE",
"155 -212 OFFCURVE",
"224 -216 OFFCURVE",
"294 -216 CURVE SMOOTH",
"469 -216 OFFCURVE",
"585 -131 OFFCURVE",
"585 50 CURVE SMOOTH",
"585 551 LINE"
);
},
{
closed = 1;
nodes = (
"247 161 OFFCURVE",
"208 207 OFFCURVE",
"208 289 CURVE SMOOTH",
"208 371 OFFCURVE",
"247 417 OFFCURVE",
"311 417 CURVE SMOOTH",
"374 417 OFFCURVE",
"413 371 OFFCURVE",
"413 289 CURVE SMOOTH",
"413 207 OFFCURVE",
"374 161 OFFCURVE",
"311 161 CURVE SMOOTH"
);
}
);
width = 637;
},
{
layerId = "4050705C-5704-4184-B7B7-497C68798CAB";
paths = (
{
closed = 1;
nodes = (
"345 538 OFFCURVE",
"347 521 OFFCURVE",
"348 503 CURVE SMOOTH",
"352 452 LINE",
"344 452 LINE SMOOTH",
"344 452 OFFCURVE",
"331 567 OFFCURVE",
"208 567 CURVE SMOOTH",
"92 567 OFFCURVE",
"29 444 OFFCURVE",
"29 281 CURVE SMOOTH",
"29 113 OFFCURVE",
"101 2 OFFCURVE",
"212 2 CURVE SMOOTH",
"327 2 OFFCURVE",
"344 109 OFFCURVE",
"344 109 CURVE",
"351 109 LINE",
"348 64 LINE",
"347 58 OFFCURVE",
"347 51 OFFCURVE",
"346 45 CURVE",
"343 -26 OFFCURVE",
"306 -64 OFFCURVE",
"223 -64 CURVE SMOOTH",
"179 -64 OFFCURVE",
"140 -51 OFFCURVE",
"98 -37 CURVE",
"98 -196 LINE",
"145 -207 OFFCURVE",
"194 -211 OFFCURVE",
"242 -211 CURVE SMOOTH",
"417 -211 OFFCURVE",
"533 -126 OFFCURVE",
"533 55 CURVE SMOOTH",
"533 556 LINE",
"345 556 LINE"
);
},
{
closed = 1;
nodes = (
"245 153 OFFCURVE",
"218 189 OFFCURVE",
"218 281 CURVE SMOOTH",
"218 373 OFFCURVE",
"245 408 OFFCURVE",
"285 408 CURVE SMOOTH",
"324 408 OFFCURVE",
"351 373 OFFCURVE",
"351 281 CURVE SMOOTH",
"351 189 OFFCURVE",
"324 153 OFFCURVE",
"285 153 CURVE SMOOTH"
);
}
);
width = 586;
},
{
layerId = "A498EE73-B8E0-478F-AD48-BB28716BB127";
paths = (
{
closed = 1;
nodes = (
"345 538 OFFCURVE",
"347 521 OFFCURVE",
"348 503 CURVE SMOOTH",
"352 452 LINE",
"344 452 LINE SMOOTH",
"344 452 OFFCURVE",
"331 567 OFFCURVE",
"208 567 CURVE SMOOTH",
"92 567 OFFCURVE",
"29 444 OFFCURVE",
"29 281 CURVE SMOOTH",
"29 113 OFFCURVE",
"101 2 OFFCURVE",
"212 2 CURVE SMOOTH",
"327 2 OFFCURVE",
"344 109 OFFCURVE",
"344 109 CURVE",
"351 109 LINE",
"348 64 LINE",
"347 58 OFFCURVE",
"347 51 OFFCURVE",
"346 45 CURVE",
"343 -26 OFFCURVE",
"306 -64 OFFCURVE",
"223 -64 CURVE SMOOTH",
"179 -64 OFFCURVE",
"140 -51 OFFCURVE",
"98 -37 CURVE",
"98 -196 LINE",
"145 -207 OFFCURVE",
"194 -211 OFFCURVE",
"242 -211 CURVE SMOOTH",
"417 -211 OFFCURVE",
"533 -126 OFFCURVE",
"533 55 CURVE SMOOTH",
"533 556 LINE",
"345 556 LINE"
);
},
{
closed = 1;
nodes = (
"245 153 OFFCURVE",
"218 189 OFFCURVE",
"218 281 CURVE SMOOTH",
"218 373 OFFCURVE",
"245 408 OFFCURVE",
"285 408 CURVE SMOOTH",
"324 408 OFFCURVE",
"351 373 OFFCURVE",
"351 281 CURVE SMOOTH",
"351 189 OFFCURVE",
"324 153 OFFCURVE",
"285 153 CURVE SMOOTH"
);
}
);
width = 586;
},
{
layerId = "04E65C73-A9C2-4E63-92BC-18A513B12E25";
paths = (
{
closed = 1;
nodes = (
"413 551 LINE",
"414 530 OFFCURVE",
"415 510 OFFCURVE",
"417 489 CURVE SMOOTH",
"421 439 LINE",
"413 439 LINE SMOOTH",
"413 439 OFFCURVE",
"401 563 OFFCURVE",
"253 563 CURVE SMOOTH",
"125 563 OFFCURVE",
"29 450 OFFCURVE",
"29 277 CURVE SMOOTH",
"29 110 OFFCURVE",
"118 15 OFFCURVE",
"253 15 CURVE SMOOTH",
"400 15 OFFCURVE",
"413 139 OFFCURVE",
"413 139 CURVE",
"421 139 LINE",
"421 139 OFFCURVE",
"416 110 OFFCURVE",
"415 89 CURVE SMOOTH",
"414 68 OFFCURVE",
"414 50 OFFCURVE",
"413 40 CURVE",
"411 -30 OFFCURVE",
"346 -62 OFFCURVE",
"260 -62 CURVE SMOOTH",
"198 -62 OFFCURVE",
"147 -39 OFFCURVE",
"91 -13 CURVE",
"91 -183 LINE",
"155 -212 OFFCURVE",
"224 -216 OFFCURVE",
"294 -216 CURVE SMOOTH",
"469 -216 OFFCURVE",
"585 -131 OFFCURVE",
"585 50 CURVE SMOOTH",
"585 551 LINE"
);
},
{
closed = 1;
nodes = (
"247 161 OFFCURVE",
"208 207 OFFCURVE",
"208 289 CURVE SMOOTH",
"208 371 OFFCURVE",
"247 417 OFFCURVE",
"311 417 CURVE SMOOTH",
"374 417 OFFCURVE",
"413 371 OFFCURVE",
"413 289 CURVE SMOOTH",
"413 207 OFFCURVE",
"374 161 OFFCURVE",
"311 161 CURVE SMOOTH"
);
}
);
width = 637;
}
);
leftKerningGroup = g;
note = g;
rightKerningGroup = g;
unicode = 0067;
},
{
glyphname = h;
lastChange = "2026-05-29 16:35:34 +0000";
layers = (
{
layerId = m003;
paths = (
{
closed = 1;
nodes = (
"262 0 LINE",
"261 140 OFFCURVE",
"260 189 OFFCURVE",
"260 249 CURVE SMOOTH",
"260 342 OFFCURVE",
"306 385 OFFCURVE",
"396 385 CURVE SMOOTH",
"467 385 OFFCURVE",
"503 351 OFFCURVE",
"503 274 CURVE SMOOTH",
"503 183 OFFCURVE",
"503 101 OFFCURVE",
"503 0 CURVE",
"735 0 LINE",
"734 109 OFFCURVE",
"734 219 OFFCURVE",
"735 298 CURVE SMOOTH",
"736 485 OFFCURVE",
"653 564 OFFCURVE",
"482 564 CURVE SMOOTH",
"373 564 OFFCURVE",
"305 531 OFFCURVE",
"260 490 CURVE",
"260 507 OFFCURVE",
"260 690 OFFCURVE",
"262 720 CURVE",
"30 720 LINE",
"32 536 OFFCURVE",
"32 184 OFFCURVE",
"30 0 CURVE"
);
}
);
width = 760;
},
{
layerId = "4050705C-5704-4184-B7B7-497C68798CAB";
paths = (
{
closed = 1;
nodes = (
"219 0 LINE",
"218 149 OFFCURVE",
"217 223 OFFCURVE",
"217 297 CURVE SMOOTH",
"217 367 OFFCURVE",
"242 406 OFFCURVE",
"288 406 CURVE SMOOTH",
"328 406 OFFCURVE",
"347 379 OFFCURVE",
"347 317 CURVE SMOOTH",
"347 238 OFFCURVE",
"347 160 OFFCURVE",
"345 0 CURVE",
"534 0 LINE",
"532 180 OFFCURVE",
"532 267 OFFCURVE",
"532 356 CURVE SMOOTH",
"532 496 OFFCURVE",
"477 565 OFFCURVE",
"363 565 CURVE SMOOTH",
"301 565 OFFCURVE",
"255 546 OFFCURVE",
"217 500 CURVE",
"217 563 OFFCURVE",
"218 616 OFFCURVE",
"219 720 CURVE",
"30 720 LINE",
"32 480 OFFCURVE",
"32 240 OFFCURVE",
"30 0 CURVE"
);
}
);
width = 561;
},
{
layerId = "A498EE73-B8E0-478F-AD48-BB28716BB127";
paths = (
{
closed = 1;
nodes = (
"126 0 LINE",
"125.75 109.5 OFFCURVE",
"124.75 219.75 OFFCURVE",
"124.75 340.5 CURVE SMOOTH",
"124.75 415.5 OFFCURVE",
"168.5 474.25 OFFCURVE",
"248.25 474.25 CURVE SMOOTH",
"317.75 474.25 OFFCURVE",
"339.5 429.5 OFFCURVE",
"340.25 353 CURVE SMOOTH",
"341.75 227.5 OFFCURVE",
"340.75 114.25 OFFCURVE",
"339 0 CURVE",
"439.5 0 LINE",
"437.75 123.5 OFFCURVE",
"436.75 247.5 OFFCURVE",
"438.25 371 CURVE SMOOTH",
"439.75 490 OFFCURVE",
"390 565 OFFCURVE",
"273 565 CURVE SMOOTH",
"201 565 OFFCURVE",
"153 535 OFFCURVE",
"124 497 CURVE",
"125 564 OFFCURVE",
"126 642 OFFCURVE",
"126 720.25 CURVE",
"25.5 720.25 LINE",
"28.25 480.25 OFFCURVE",
"28.25 240 OFFCURVE",
"25.5 0 CURVE"
);
}
);
width = 463;
},
{
layerId = "04E65C73-A9C2-4E63-92BC-18A513B12E25";
paths = (
{
closed = 1;
nodes = (
"137.5 0 LINE",
"136.5 143.25 OFFCURVE",
"135.5 227.75 OFFCURVE",
"135.5 311 CURVE SMOOTH",
"135.5 399.25 OFFCURVE",
"218.75 474 OFFCURVE",
"350.25 474 CURVE SMOOTH",
"460 474 OFFCURVE",
"514 426.75 OFFCURVE",
"515.75 327.25 CURVE SMOOTH",
"516.75 251.75 OFFCURVE",
"516.75 181.25 OFFCURVE",
"514.25 0 CURVE",
"625.5 0 LINE",
"624.5 156.25 OFFCURVE",
"623.75 249.75 OFFCURVE",
"624 341.5 CURVE SMOOTH",
"624.25 465.5 OFFCURVE",
"548.5 564.75 OFFCURVE",
"381 564.75 CURVE SMOOTH",
"259 564.75 OFFCURVE",
"173.75 509.25 OFFCURVE",
"135.5 442.5 CURVE",
"135.5 493.5 OFFCURVE",
"137 669 OFFCURVE",
"138 720 CURVE",
"26 720 LINE",
"28 521 OFFCURVE",
"28.25 198.75 OFFCURVE",
"26.25 0 CURVE"
);
}
);
width = 648.25;
}
);
leftMetricsKey = n;
note = h;
rightKerningGroup = h;
rightMetricsKey = n;
unicode = 0068;
},
{
glyphname = i;
lastChange = "2026-05-28 22:11:58 +0000";
layers = (
{
layerId = m003;
paths = (
{
closed = 1;
nodes = (
"76 735 OFFCURVE",
"30 716 OFFCURVE",
"30 656 CURVE SMOOTH",
"30 596 OFFCURVE",
"76 577 OFFCURVE",
"131 577 CURVE SMOOTH",
"187 577 OFFCURVE",
"232 596 OFFCURVE",
"232 656 CURVE SMOOTH",
"232 716 OFFCURVE",
"187 735 OFFCURVE",
"131 735 CURVE SMOOTH"
);
},
{
closed = 1;
nodes = (
"195 539 OFFCURVE",
"166 533 OFFCURVE",
"131 533 CURVE SMOOTH",
"97 533 OFFCURVE",
"68 539 OFFCURVE",
"45 552 CURVE",
"45 0 LINE",
"218 0 LINE",
"218 552 LINE"
);
}
);
width = 262;
},
{
layerId = "4050705C-5704-4184-B7B7-497C68798CAB";
paths = (
{
closed = 1;
nodes = (
"222 590 OFFCURVE",
"267 613 OFFCURVE",
"267 672 CURVE SMOOTH",
"267 733 OFFCURVE",
"222 755 OFFCURVE",
"158 755 CURVE SMOOTH",
"94 755 OFFCURVE",
"49 733 OFFCURVE",
"49 672 CURVE SMOOTH",
"49 613 OFFCURVE",
"94 590 OFFCURVE",
"158 590 CURVE SMOOTH"
);
},
{
closed = 1;
nodes = (
"63 0 LINE",
"252 0 LINE",
"252 554 LINE",
"63 554 LINE"
);
}
);
width = 316;
},
{
layerId = "A498EE73-B8E0-478F-AD48-BB28716BB127";
paths = (
{
closed = 1;
nodes = (
"222 590 OFFCURVE",
"267 613 OFFCURVE",
"267 672 CURVE SMOOTH",
"267 733 OFFCURVE",
"222 755 OFFCURVE",
"158 755 CURVE SMOOTH",
"94 755 OFFCURVE",
"49 733 OFFCURVE",
"49 672 CURVE SMOOTH",
"49 613 OFFCURVE",
"94 590 OFFCURVE",
"158 590 CURVE SMOOTH"
);
},
{
closed = 1;
nodes = (
"63 0 LINE",
"252 0 LINE",
"252 554 LINE",
"63 554 LINE"
);
}
);
width = 316;
},
{
layerId = "04E65C73-A9C2-4E63-92BC-18A513B12E25";
paths = (
{
closed = 1;
nodes = (
"76 735 OFFCURVE",
"30 716 OFFCURVE",
"30 656 CURVE SMOOTH",
"30 596 OFFCURVE",
"76 577 OFFCURVE",
"131 577 CURVE SMOOTH",
"187 577 OFFCURVE",
"232 596 OFFCURVE",
"232 656 CURVE SMOOTH",
"232 716 OFFCURVE",
"187 735 OFFCURVE",
"131 735 CURVE SMOOTH"
);
},
{
closed = 1;
nodes = (
"195 539 OFFCURVE",
"166 533 OFFCURVE",
"131 533 CURVE SMOOTH",
"97 533 OFFCURVE",
"68 539 OFFCURVE",
"45 552 CURVE",
"45 0 LINE",
"218 0 LINE",
"218 552 LINE"
);
}
);
width = 262;
}
);
leftKerningGroup = i;
note = i;
unicode = 0069;
},
{
glyphname = j;
lastChange = "2026-05-28 22:11:58 +0000";
layers = (
{
layerId = m003;
paths = (
{
closed = 1;
nodes = (
"304 577 OFFCURVE",
"350 596 OFFCURVE",
"350 656 CURVE SMOOTH",
"350 716 OFFCURVE",
"304 735 OFFCURVE",
"248 735 CURVE SMOOTH",
"193 735 OFFCURVE",
"147 716 OFFCURVE",
"147 656 CURVE SMOOTH",
"147 596 OFFCURVE",
"193 577 OFFCURVE",
"248 577 CURVE SMOOTH"
);
},
{
closed = 1;
nodes = (
"312 540 OFFCURVE",
"283 533 OFFCURVE",
"248 533 CURVE SMOOTH",
"214 533 OFFCURVE",
"185 540 OFFCURVE",
"162 552 CURVE",
"162 1 LINE SMOOTH",
"162 -34 OFFCURVE",
"138 -57 OFFCURVE",
"103 -57 CURVE SMOOTH",
"62 -57 OFFCURVE",
"28 -38 OFFCURVE",
"-7 -18 CURVE",
"-20 -185 LINE",
"28 -206 OFFCURVE",
"78 -216 OFFCURVE",
"130 -216 CURVE SMOOTH",
"261 -216 OFFCURVE",
"335 -142 OFFCURVE",
"335 -12 CURVE SMOOTH",
"335 552 LINE"
);
}
);
width = 398;
},
{
layerId = "4050705C-5704-4184-B7B7-497C68798CAB";
paths = (
{
closed = 1;
nodes = (
"304 599 OFFCURVE",
"349 622 OFFCURVE",
"349 681 CURVE",
"349 742 OFFCURVE",
"304 764 OFFCURVE",
"240 764 CURVE",
"176 764 OFFCURVE",
"131 742 OFFCURVE",
"131 681 CURVE",
"131 622 OFFCURVE",
"176 599 OFFCURVE",
"240 599 CURVE"
);
},
{
closed = 1;
nodes = (
"145 17 LINE SMOOTH",
"145 -19 OFFCURVE",
"121 -41 OFFCURVE",
"85 -41 CURVE SMOOTH",
"52 -41 OFFCURVE",
"22 -29 OFFCURVE",
"-9 -17 CURVE",
"-20 -182 LINE",
"29 -197 OFFCURVE",
"79 -204 OFFCURVE",
"130 -204 CURVE SMOOTH",
"260 -204 OFFCURVE",
"334 -130 OFFCURVE",
"334 1 CURVE SMOOTH",
"334 563 LINE",
"145 563 LINE"
);
}
);
width = 397;
},
{
layerId = "A498EE73-B8E0-478F-AD48-BB28716BB127";
paths = (
{
closed = 1;
nodes = (
"304 599 OFFCURVE",
"349 622 OFFCURVE",
"349 681 CURVE",
"349 742 OFFCURVE",
"304 764 OFFCURVE",
"240 764 CURVE",
"176 764 OFFCURVE",
"131 742 OFFCURVE",
"131 681 CURVE",
"131 622 OFFCURVE",
"176 599 OFFCURVE",
"240 599 CURVE"
);
},
{
closed = 1;
nodes = (
"145 17 LINE SMOOTH",
"145 -19 OFFCURVE",
"121 -41 OFFCURVE",
"85 -41 CURVE SMOOTH",
"52 -41 OFFCURVE",
"22 -29 OFFCURVE",
"-9 -17 CURVE",
"-20 -182 LINE",
"29 -197 OFFCURVE",
"79 -204 OFFCURVE",
"130 -204 CURVE SMOOTH",
"260 -204 OFFCURVE",
"334 -130 OFFCURVE",
"334 1 CURVE SMOOTH",
"334 563 LINE",
"145 563 LINE"
);
}
);
width = 397;
},
{
layerId = "04E65C73-A9C2-4E63-92BC-18A513B12E25";
paths = (
{
closed = 1;
nodes = (
"304 577 OFFCURVE",
"350 596 OFFCURVE",
"350 656 CURVE SMOOTH",
"350 716 OFFCURVE",
"304 735 OFFCURVE",
"248 735 CURVE SMOOTH",
"193 735 OFFCURVE",
"147 716 OFFCURVE",
"147 656 CURVE SMOOTH",
"147 596 OFFCURVE",
"193 577 OFFCURVE",
"248 577 CURVE SMOOTH"
);
},
{
closed = 1;
nodes = (
"312 540 OFFCURVE",
"283 533 OFFCURVE",
"248 533 CURVE SMOOTH",
"214 533 OFFCURVE",
"185 540 OFFCURVE",
"162 552 CURVE",
"162 1 LINE SMOOTH",
"162 -34 OFFCURVE",
"138 -57 OFFCURVE",
"103 -57 CURVE SMOOTH",
"62 -57 OFFCURVE",
"28 -38 OFFCURVE",
"-7 -18 CURVE",
"-20 -185 LINE",
"28 -206 OFFCURVE",
"78 -216 OFFCURVE",
"130 -216 CURVE SMOOTH",
"261 -216 OFFCURVE",
"335 -142 OFFCURVE",
"335 -12 CURVE SMOOTH",
"335 552 LINE"
);
}
);
width = 398;
}
);
note = j;
unicode = 006A;
},
{
glyphname = k;
lastChange = "2026-05-28 22:11:58 +0000";
layers = (
{
layerId = m003;
paths = (
{
closed = 1;
nodes = (
"621 0 LINE",
"393 317 LINE",
"611 552 LINE",
"404 552 LINE",
"224 360 LINE",
"224 721 LINE",
"52 721 LINE",
"52 0 LINE",
"224 0 LINE",
"224 134 LINE",
"283 197 LINE",
"407 0 LINE"
);
}
);
width = 617;
},
{
layerId = "4050705C-5704-4184-B7B7-497C68798CAB";
paths = (
{
closed = 1;
nodes = (
"326 0 LINE",
"553 0 LINE",
"404 283 LINE",
"543 554 LINE",
"332 554 LINE",
"249 358 LINE",
"242 358 LINE",
"242 721 LINE",
"53 721 LINE",
"53 0 LINE",
"242 0 LINE",
"242 204 LINE",
"249 204 LINE"
);
}
);
width = 544;
},
{
layerId = "A498EE73-B8E0-478F-AD48-BB28716BB127";
paths = (
{
closed = 1;
nodes = (
"326 0 LINE",
"553 0 LINE",
"404 283 LINE",
"543 554 LINE",
"332 554 LINE",
"249 358 LINE",
"242 358 LINE",
"242 721 LINE",
"53 721 LINE",
"53 0 LINE",
"242 0 LINE",
"242 204 LINE",
"249 204 LINE"
);
}
);
width = 544;
},
{
layerId = "04E65C73-A9C2-4E63-92BC-18A513B12E25";
paths = (
{
closed = 1;
nodes = (
"621 0 LINE",
"393 317 LINE",
"611 552 LINE",
"404 552 LINE",
"224 360 LINE",
"224 721 LINE",
"52 721 LINE",
"52 0 LINE",
"224 0 LINE",
"224 134 LINE",
"283 197 LINE",
"407 0 LINE"
);
}
);
width = 617;
}
);
note = k;
rightKerningGroup = k;
unicode = 006B;
},
{
glyphname = l;
lastChange = "2026-05-28 22:11:58 +0000";
layers = (
{
layerId = m003;
paths = (
{
closed = 1;
nodes = (
"56 721 LINE",
"56 0 LINE",
"228 0 LINE",
"228 721 LINE"
);
}
);
width = 284;
},
{
layerId = "4050705C-5704-4184-B7B7-497C68798CAB";
paths = (
{
closed = 1;
nodes = (
"52 0 LINE",
"241 0 LINE",
"241 721 LINE",
"52 721 LINE"
);
}
);
width = 293;
},
{
layerId = "A498EE73-B8E0-478F-AD48-BB28716BB127";
paths = (
{
closed = 1;
nodes = (
"52 0 LINE",
"241 0 LINE",
"241 721 LINE",
"52 721 LINE"
);
}
);
width = 293;
},
{
layerId = "04E65C73-A9C2-4E63-92BC-18A513B12E25";
paths = (
{
closed = 1;
nodes = (
"56 721 LINE",
"56 0 LINE",
"228 0 LINE",
"228 721 LINE"
);
}
);
width = 284;
}
);
note = l;
unicode = 006C;
},
{
glyphname = m;
lastChange = "2026-05-28 22:11:58 +0000";
layers = (
{
layerId = m003;
paths = (
{
closed = 1;
nodes = (
"216 438 LINE",
"221 489 LINE",
"224 550 LINE",
"52 550 LINE",
"52 0 LINE",
"224 0 LINE",
"224 288 LINE SMOOTH",
"224 359 OFFCURVE",
"254 407 OFFCURVE",
"322 407 CURVE SMOOTH",
"374 407 OFFCURVE",
"400 377 OFFCURVE",
"400 314 CURVE SMOOTH",
"400 0 LINE",
"572 0 LINE",
"572 299 LINE",
"575 364 OFFCURVE",
"606 407 OFFCURVE",
"670 407 CURVE SMOOTH",
"722 407 OFFCURVE",
"748 377 OFFCURVE",
"748 314 CURVE SMOOTH",
"748 0 LINE",
"920 0 LINE",
"920 328 LINE SMOOTH",
"920 480 OFFCURVE",
"864 562 OFFCURVE",
"734 562 CURVE SMOOTH",
"600 562 OFFCURVE",
"558 438 OFFCURVE",
"558 438 CURVE SMOOTH",
"550 438 LINE",
"538 518 OFFCURVE",
"480 562 OFFCURVE",
"395 562 CURVE SMOOTH",
"252 562 OFFCURVE",
"225 438 OFFCURVE",
"224 438 CURVE SMOOTH"
);
}
);
width = 969;
},
{
layerId = "4050705C-5704-4184-B7B7-497C68798CAB";
paths = (
{
closed = 1;
nodes = (
"568 565 OFFCURVE",
"548 450 OFFCURVE",
"548 450 CURVE SMOOTH",
"541 450 LINE SMOOTH",
"541 450 OFFCURVE",
"531 565 OFFCURVE",
"395 565 CURVE SMOOTH",
"263 565 OFFCURVE",
"239 450 OFFCURVE",
"239 450 CURVE SMOOTH",
"232 450 LINE",
"235 492 LINE SMOOTH",
"237 513 OFFCURVE",
"238 533 OFFCURVE",
"239 554 CURVE",
"50 554 LINE",
"50 0 LINE",
"239 0 LINE",
"239 307 LINE SMOOTH",
"239 363 OFFCURVE",
"257 406 OFFCURVE",
"305 406 CURVE SMOOTH",
"346 406 OFFCURVE",
"365 378 OFFCURVE",
"365 325 CURVE SMOOTH",
"365 0 LINE",
"554 0 LINE",
"554 307 LINE SMOOTH",
"554 363 OFFCURVE",
"572 406 OFFCURVE",
"620 406 CURVE SMOOTH",
"661 406 OFFCURVE",
"680 378 OFFCURVE",
"680 325 CURVE SMOOTH",
"680 0 LINE",
"869 0 LINE",
"869 346 LINE SMOOTH",
"869 474 OFFCURVE",
"824 565 OFFCURVE",
"695 565 CURVE SMOOTH"
);
}
);
width = 919;
},
{
layerId = "A498EE73-B8E0-478F-AD48-BB28716BB127";
paths = (
{
closed = 1;
nodes = (
"568 565 OFFCURVE",
"548 450 OFFCURVE",
"548 450 CURVE SMOOTH",
"541 450 LINE SMOOTH",
"541 450 OFFCURVE",
"531 565 OFFCURVE",
"395 565 CURVE SMOOTH",
"263 565 OFFCURVE",
"239 450 OFFCURVE",
"239 450 CURVE SMOOTH",
"232 450 LINE",
"235 492 LINE SMOOTH",
"237 513 OFFCURVE",
"238 533 OFFCURVE",
"239 554 CURVE",
"50 554 LINE",
"50 0 LINE",
"239 0 LINE",
"239 307 LINE SMOOTH",
"239 363 OFFCURVE",
"257 406 OFFCURVE",
"305 406 CURVE SMOOTH",
"346 406 OFFCURVE",
"365 378 OFFCURVE",
"365 325 CURVE SMOOTH",
"365 0 LINE",
"554 0 LINE",
"554 307 LINE SMOOTH",
"554 363 OFFCURVE",
"572 406 OFFCURVE",
"620 406 CURVE SMOOTH",
"661 406 OFFCURVE",
"680 378 OFFCURVE",
"680 325 CURVE SMOOTH",
"680 0 LINE",
"869 0 LINE",
"869 346 LINE SMOOTH",
"869 474 OFFCURVE",
"824 565 OFFCURVE",
"695 565 CURVE SMOOTH"
);
}
);
width = 919;
},
{
layerId = "04E65C73-A9C2-4E63-92BC-18A513B12E25";
paths = (
{
closed = 1;
nodes = (
"216 438 LINE",
"221 489 LINE",
"224 550 LINE",
"52 550 LINE",
"52 0 LINE",
"224 0 LINE",
"224 288 LINE SMOOTH",
"224 359 OFFCURVE",
"254 407 OFFCURVE",
"322 407 CURVE SMOOTH",
"374 407 OFFCURVE",
"400 377 OFFCURVE",
"400 314 CURVE SMOOTH",
"400 0 LINE",
"572 0 LINE",
"572 299 LINE",
"575 364 OFFCURVE",
"606 407 OFFCURVE",
"670 407 CURVE SMOOTH",
"722 407 OFFCURVE",
"748 377 OFFCURVE",
"748 314 CURVE SMOOTH",
"748 0 LINE",
"920 0 LINE",
"920 328 LINE SMOOTH",
"920 480 OFFCURVE",
"864 562 OFFCURVE",
"734 562 CURVE SMOOTH",
"600 562 OFFCURVE",
"558 438 OFFCURVE",
"558 438 CURVE SMOOTH",
"550 438 LINE",
"538 518 OFFCURVE",
"480 562 OFFCURVE",
"395 562 CURVE SMOOTH",
"252 562 OFFCURVE",
"225 438 OFFCURVE",
"224 438 CURVE SMOOTH"
);
}
);
width = 969;
}
);
leftKerningGroup = m;
note = m;
rightKerningGroup = m;
unicode = 006D;
},
{
glyphname = n;
lastChange = "2026-05-29 16:36:55 +0000";
layers = (
{
layerId = m003;
paths = (
{
closed = 1;
nodes = (
"262 0 LINE",
"260 80 OFFCURVE",
"259 179 OFFCURVE",
"260 249 CURVE SMOOTH",
"261 342 OFFCURVE",
"306 385 OFFCURVE",
"396 385 CURVE SMOOTH",
"467 385 OFFCURVE",
"503 351 OFFCURVE",
"503 274 CURVE SMOOTH",
"503 183 OFFCURVE",
"503 101 OFFCURVE",
"503 0 CURVE",
"735 0 LINE",
"734 109 OFFCURVE",
"734 219 OFFCURVE",
"735 288 CURVE SMOOTH",
"736 485 OFFCURVE",
"652 564 OFFCURVE",
"482 564 CURVE SMOOTH",
"373 564 OFFCURVE",
"305 531 OFFCURVE",
"260 490 CURVE",
"260 507 OFFCURVE",
"260 524 OFFCURVE",
"262 554 CURVE",
"30 554 LINE",
"32 370 OFFCURVE",
"32 184 OFFCURVE",
"30 0 CURVE"
);
}
);
width = 760;
},
{
layerId = "4050705C-5704-4184-B7B7-497C68798CAB";
paths = (
{
closed = 1;
nodes = (
"219 0 LINE",
"218 99 OFFCURVE",
"218 198 OFFCURVE",
"217 297 CURVE SMOOTH",
"217 367 OFFCURVE",
"242 406 OFFCURVE",
"288 406 CURVE SMOOTH",
"328 406 OFFCURVE",
"347 378 OFFCURVE",
"347 317 CURVE SMOOTH",
"347 211 OFFCURVE",
"345 106 OFFCURVE",
"345 0 CURVE",
"534 0 LINE",
"531 359 OFFCURVE",
"531 285 OFFCURVE",
"532 356 CURVE SMOOTH",
"532 496 OFFCURVE",
"477 565 OFFCURVE",
"363 565 CURVE SMOOTH",
"299 565 OFFCURVE",
"254 545 OFFCURVE",
"217 500 CURVE",
"217 518 OFFCURVE",
"218 532 OFFCURVE",
"219 554 CURVE",
"30 554 LINE",
"33 369 OFFCURVE",
"33 185 OFFCURVE",
"30 0 CURVE"
);
}
);
width = 561;
},
{
associatedMasterId = m003;
layerId = "0070B93F-829E-4144-B480-E7F3004972B1";
name = "May 20, 26 at 16:43";
paths = (
{
closed = 1;
nodes = (
"259 564 OFFCURVE",
"224 438 OFFCURVE",
"224 438 CURVE SMOOTH",
"216 438 LINE",
"220 479 LINE",
"222 494 OFFCURVE",
"223 534 OFFCURVE",
"223 550 CURVE",
"52 550 LINE",
"52 0 LINE",
"224 0 LINE",
"224 268 LINE SMOOTH",
"224 361 OFFCURVE",
"262 404 OFFCURVE",
"333 404 CURVE SMOOTH",
"387 404 OFFCURVE",
"415 372 OFFCURVE",
"415 303 CURVE SMOOTH",
"415 0 LINE",
"587 0 LINE",
"587 328 LINE SMOOTH",
"587 479 OFFCURVE",
"534 564 OFFCURVE",
"403 564 CURVE SMOOTH"
);
}
);
visible = 1;
width = 632;
},
{
layerId = "A498EE73-B8E0-478F-AD48-BB28716BB127";
paths = (
{
closed = 1;
nodes = (
"125 513 OFFCURVE",
"125 528 OFFCURVE",
"126 554 CURVE",
"25.5 554 LINE",
"27.75 369 OFFCURVE",
"27.75 185 OFFCURVE",
"25.5 0 CURVE",
"126 0 LINE",
"125 113.25 OFFCURVE",
"123 227 OFFCURVE",
"124 340.5 CURVE SMOOTH",
"125 415 OFFCURVE",
"168.5 474.25 OFFCURVE",
"248.25 474.25 CURVE SMOOTH",
"312.5 474.25 OFFCURVE",
"340.25 439.25 OFFCURVE",
"341 353 CURVE SMOOTH",
"341.75 235 OFFCURVE",
"339.75 118 OFFCURVE",
"339 0 CURVE",
"439.5 0 LINE",
"438.5 123.5 OFFCURVE",
"437.25 247.5 OFFCURVE",
"437 361 CURVE SMOOTH",
"437.75 490 OFFCURVE",
"390.5 565 OFFCURVE",
"273 565 CURVE SMOOTH",
"201 565 OFFCURVE",
"153 535 OFFCURVE",
"124 497 CURVE"
);
}
);
width = 463;
},
{
layerId = "04E65C73-A9C2-4E63-92BC-18A513B12E25";
paths = (
{
closed = 1;
nodes = (
"137.5 0 LINE",
"136.5 91.5 OFFCURVE",
"135.5 229.5 OFFCURVE",
"135.5 313.5 CURVE SMOOTH",
"135.5 400 OFFCURVE",
"218.75 474 OFFCURVE",
"350.25 474 CURVE SMOOTH",
"460 474 OFFCURVE",
"515 431.25 OFFCURVE",
"515.75 331.75 CURVE SMOOTH",
"516.5 233.75 OFFCURVE",
"516.5 106.25 OFFCURVE",
"514.25 0 CURVE",
"625.5 0 LINE",
"624.5 103.75 OFFCURVE",
"623.75 249.75 OFFCURVE",
"624 341.5 CURVE SMOOTH",
"624.25 478.25 OFFCURVE",
"535.5 564.75 OFFCURVE",
"384.75 564.75 CURVE SMOOTH",
"259 564.75 OFFCURVE",
"173.75 509.25 OFFCURVE",
"135.5 442.5 CURVE",
"135.5 479.75 OFFCURVE",
"137.25 516.75 OFFCURVE",
"137.5 554 CURVE",
"26.25 554 LINE",
"28.25 369.25 OFFCURVE",
"28.25 184.75 OFFCURVE",
"26.25 0 CURVE"
);
}
);
width = 648.25;
}
);
leftKerningGroup = n;
note = n;
rightKerningGroup = n;
unicode = 006E;
},
{
glyphname = o;
lastChange = "2026-05-29 14:15:02 +0000";
layers = (
{
layerId = m003;
paths = (
{
closed = 1;
nodes = (
"623 -11 OFFCURVE",
"736 117 OFFCURVE",
"736 277 CURVE SMOOTH",
"736 437 OFFCURVE",
"623 565 OFFCURVE",
"374 565 CURVE SMOOTH",
"124 565 OFFCURVE",
"10 437 OFFCURVE",
"10 277 CURVE SMOOTH",
"10 117 OFFCURVE",
"124 -11 OFFCURVE",
"374 -11 CURVE SMOOTH"
);
},
{
closed = 1;
nodes = (
"290 156 OFFCURVE",
"238 199 OFFCURVE",
"238 277 CURVE SMOOTH",
"238 354 OFFCURVE",
"290 397 OFFCURVE",
"373 397 CURVE SMOOTH",
"455 397 OFFCURVE",
"506 354 OFFCURVE",
"506 277 CURVE SMOOTH",
"506 199 OFFCURVE",
"455 156 OFFCURVE",
"373 156 CURVE SMOOTH"
);
}
);
width = 746;
},
{
layerId = "4050705C-5704-4184-B7B7-497C68798CAB";
paths = (
{
closed = 1;
nodes = (
"441 -9 OFFCURVE",
"519 117 OFFCURVE",
"519 278 CURVE SMOOTH",
"519 440 OFFCURVE",
"441 567 OFFCURVE",
"264 567 CURVE SMOOTH",
"87 567 OFFCURVE",
"10 440 OFFCURVE",
"10 278 CURVE SMOOTH",
"10 117 OFFCURVE",
"87 -9 OFFCURVE",
"264 -9 CURVE SMOOTH"
);
},
{
closed = 1;
nodes = (
"225 147 OFFCURVE",
"199 178 OFFCURVE",
"199 278 CURVE SMOOTH",
"199 380 OFFCURVE",
"225 411 OFFCURVE",
"264 411 CURVE SMOOTH",
"303 411 OFFCURVE",
"329 380 OFFCURVE",
"329 278 CURVE SMOOTH",
"329 178 OFFCURVE",
"303 147 OFFCURVE",
"264 147 CURVE SMOOTH"
);
}
);
width = 529;
},
{
layerId = "A498EE73-B8E0-478F-AD48-BB28716BB127";
paths = (
{
closed = 1;
nodes = (
"362 -9 OFFCURVE",
"443 98 OFFCURVE",
"443.25 278 CURVE SMOOTH",
"443 459 OFFCURVE",
"362 567 OFFCURVE",
"225.75 567 CURVE SMOOTH",
"89 567 OFFCURVE",
"9 460 OFFCURVE",
"9.25 278 CURVE SMOOTH",
"9 97 OFFCURVE",
"90 -9 OFFCURVE",
"225.75 -9 CURVE SMOOTH"
);
},
{
closed = 1;
nodes = (
"151 81 OFFCURVE",
"111 151 OFFCURVE",
"110.5 278 CURVE SMOOTH",
"111 407 OFFCURVE",
"151 477 OFFCURVE",
"225.75 477 CURVE SMOOTH",
"301 477 OFFCURVE",
"342 407 OFFCURVE",
"341.75 278 CURVE SMOOTH",
"342 150 OFFCURVE",
"301 81 OFFCURVE",
"225.75 81 CURVE SMOOTH"
);
}
);
width = 453;
},
{
layerId = "04E65C73-A9C2-4E63-92BC-18A513B12E25";
paths = (
{
closed = 1;
nodes = (
"513.5 -9.5 OFFCURVE",
"632.5 111 OFFCURVE",
"632.5 277.75 CURVE SMOOTH",
"632.5 445.25 OFFCURVE",
"512.75 566.5 OFFCURVE",
"320.75 566.5 CURVE SMOOTH",
"129.25 566.5 OFFCURVE",
"9.25 444.5 OFFCURVE",
"9.25 277.75 CURVE SMOOTH",
"9.25 112.5 OFFCURVE",
"130 -9.5 OFFCURVE",
"320.75 -9.5 CURVE SMOOTH"
);
},
{
closed = 1;
nodes = (
"202.25 83.25 OFFCURVE",
"120.25 162.25 OFFCURVE",
"120.25 277.75 CURVE SMOOTH",
"120.25 394.5 OFFCURVE",
"202.25 473.5 OFFCURVE",
"320.5 473.5 CURVE SMOOTH",
"440.75 473.5 OFFCURVE",
"521 395.25 OFFCURVE",
"521 277.75 CURVE SMOOTH",
"521 160.75 OFFCURVE",
"440 83.25 OFFCURVE",
"320.5 83.25 CURVE SMOOTH"
);
}
);
width = 641.75;
}
);
leftKerningGroup = o;
note = o;
rightKerningGroup = e;
unicode = 006F;
},
{
glyphname = p;
lastChange = "2026-05-29 16:11:03 +0000";
layers = (
{
layerId = m003;
paths = (
{
closed = 1;
nodes = (
"262 -168 LINE",
"262 -93 OFFCURVE",
"262 -17 OFFCURVE",
"262 58 CURVE",
"303 22 OFFCURVE",
"381 -11 OFFCURVE",
"477 -11 CURVE SMOOTH",
"673 -11 OFFCURVE",
"786 102 OFFCURVE",
"786 277 CURVE SMOOTH",
"786 444 OFFCURVE",
"676 565 OFFCURVE",
"477 565 CURVE SMOOTH",
"386 565 OFFCURVE",
"313 537 OFFCURVE",
"262 495 CURVE",
"262 514 OFFCURVE",
"262 535 OFFCURVE",
"262 554 CURVE",
"30 554 LINE",
"30 314 OFFCURVE",
"30 72 OFFCURVE",
"30 -168 CURVE"
);
},
{
closed = 1;
nodes = (
"322 156 OFFCURVE",
"270 199 OFFCURVE",
"270 277 CURVE SMOOTH",
"270 354 OFFCURVE",
"322 397 OFFCURVE",
"405 397 CURVE SMOOTH",
"487 397 OFFCURVE",
"538 354 OFFCURVE",
"538 277 CURVE SMOOTH",
"538 199 OFFCURVE",
"487 156 OFFCURVE",
"405 156 CURVE SMOOTH"
);
}
);
width = 796;
},
{
layerId = "4050705C-5704-4184-B7B7-497C68798CAB";
paths = (
{
closed = 1;
nodes = (
"219 -167 LINE",
"219 -90 OFFCURVE",
"217 -13 OFFCURVE",
"217 47 CURVE",
"238 13 OFFCURVE",
"275 -11 OFFCURVE",
"335 -11 CURVE SMOOTH",
"464 -11 OFFCURVE",
"534 112 OFFCURVE",
"534 275 CURVE SMOOTH",
"534 443 OFFCURVE",
"464 565 OFFCURVE",
"338 565 CURVE SMOOTH",
"275 565 OFFCURVE",
"237 536 OFFCURVE",
"217 500 CURVE",
"217 516 OFFCURVE",
"218 531 OFFCURVE",
"219 554 CURVE",
"30 554 LINE",
"32 314 OFFCURVE",
"32 73 OFFCURVE",
"30 -167 CURVE"
);
},
{
closed = 1;
nodes = (
"239 148 OFFCURVE",
"212 183 OFFCURVE",
"212 275 CURVE SMOOTH",
"212 367 OFFCURVE",
"239 403 OFFCURVE",
"278 403 CURVE SMOOTH",
"318 403 OFFCURVE",
"345 367 OFFCURVE",
"345 275 CURVE SMOOTH",
"345 183 OFFCURVE",
"318 148 OFFCURVE",
"278 148 CURVE SMOOTH"
);
}
);
width = 544;
},
{
associatedMasterId = m003;
layerId = "44674952-CDFC-4338-B515-61C7597C38CC";
name = "May 21, 26 at 08:31";
paths = (
{
closed = 1;
nodes = (
"254 -168 LINE",
"254 -83 OFFCURVE",
"254 3 OFFCURVE",
"254 88 CURVE",
"294 38 OFFCURVE",
"378 -11 OFFCURVE",
"479 -11 CURVE SMOOTH",
"641 -11 OFFCURVE",
"748 102 OFFCURVE",
"748 277 CURVE SMOOTH",
"748 444 OFFCURVE",
"644 565 OFFCURVE",
"479 565 CURVE SMOOTH",
"378 565 OFFCURVE",
"307 521 OFFCURVE",
"254 465 CURVE",
"254 494 OFFCURVE",
"254 525 OFFCURVE",
"254 554 CURVE",
"52 554 LINE",
"52 314 OFFCURVE",
"52 72 OFFCURVE",
"52 -168 CURVE"
);
},
{
closed = 1;
nodes = (
"312 137 OFFCURVE",
"254 187 OFFCURVE",
"254 277 CURVE SMOOTH",
"254 367 OFFCURVE",
"312 417 OFFCURVE",
"397 417 CURVE SMOOTH",
"482 417 OFFCURVE",
"539 367 OFFCURVE",
"539 277 CURVE SMOOTH",
"539 187 OFFCURVE",
"482 137 OFFCURVE",
"397 137 CURVE SMOOTH"
);
},
{
closed = 1;
nodes = (
"320 157 OFFCURVE",
"272 200 OFFCURVE",
"272 277 CURVE SMOOTH",
"272 354 OFFCURVE",
"320 397 OFFCURVE",
"397 397 CURVE SMOOTH",
"473 397 OFFCURVE",
"520 354 OFFCURVE",
"520 277 CURVE SMOOTH",
"520 200 OFFCURVE",
"473 157 OFFCURVE",
"397 157 CURVE SMOOTH"
);
}
);
visible = 1;
width = 777;
},
{
layerId = "A498EE73-B8E0-478F-AD48-BB28716BB127";
paths = (
{
closed = 1;
nodes = (
"124.5 -158.75 LINE",
"124 -104 OFFCURVE",
"123 25 OFFCURVE",
"123 51 CURVE",
"155 12 OFFCURVE",
"203 -11 OFFCURVE",
"262 -11 CURVE SMOOTH",
"392 -11 OFFCURVE",
"468 95 OFFCURVE",
"468 277.25 CURVE SMOOTH",
"468 458 OFFCURVE",
"392 565 OFFCURVE",
"262 565 CURVE SMOOTH",
"200 565 OFFCURVE",
"155 539 OFFCURVE",
"123 493 CURVE",
"123 509 OFFCURVE",
"125 531 OFFCURVE",
"124.5 554 CURVE",
"25.5 554 LINE",
"27 316 OFFCURVE",
"27 79 OFFCURVE",
"25.5 -158.75 CURVE"
);
},
{
closed = 1;
nodes = (
"166 79 OFFCURVE",
"123 149 OFFCURVE",
"123 276 CURVE SMOOTH",
"123 405 OFFCURVE",
"166 475 OFFCURVE",
"245 475 CURVE SMOOTH",
"325 475 OFFCURVE",
"367 406 OFFCURVE",
"367 276 CURVE SMOOTH",
"367 148 OFFCURVE",
"324 79 OFFCURVE",
"245 79 CURVE SMOOTH"
);
}
);
width = 478;
},
{
layerId = "04E65C73-A9C2-4E63-92BC-18A513B12E25";
paths = (
{
closed = 1;
nodes = (
"137.5 -159 LINE",
"136.75 -113 OFFCURVE",
"136 45 OFFCURVE",
"136 110.5 CURVE",
"185.25 35.25 OFFCURVE",
"265.5 -9.5 OFFCURVE",
"366.25 -9.5 CURVE SMOOTH",
"533.5 -9.5 OFFCURVE",
"651.75 108.75 OFFCURVE",
"651.75 277.75 CURVE SMOOTH",
"651.75 445.5 OFFCURVE",
"534.25 566.5 OFFCURVE",
"366.25 566.5 CURVE SMOOTH",
"264.5 566.5 OFFCURVE",
"185.5 523.5 OFFCURVE",
"136 446.25 CURVE",
"137.5 499.25 OFFCURVE",
"137.5 525.75 OFFCURVE",
"137.5 554 CURVE",
"26.25 554 LINE",
"27 316.25 OFFCURVE",
"27 78.75 OFFCURVE",
"26.25 -159 CURVE"
);
},
{
closed = 1;
nodes = (
"223.75 83.25 OFFCURVE",
"139.5 159.25 OFFCURVE",
"139.5 278.5 CURVE SMOOTH",
"139.5 401.25 OFFCURVE",
"217 473.5 OFFCURVE",
"341.25 473.5 CURVE SMOOTH",
"457.75 473.5 OFFCURVE",
"535.75 396 OFFCURVE",
"535.75 277.75 CURVE SMOOTH",
"535.75 159.25 OFFCURVE",
"460 83.25 OFFCURVE",
"345.75 83.25 CURVE SMOOTH"
);
}
);
width = 661;
}
);
leftKerningGroup = m;
leftMetricsKey = n;
note = p;
rightKerningGroup = p;
rightMetricsKey = o;
unicode = 0070;
},
{
glyphname = q;
lastChange = "2026-05-28 22:11:58 +0000";
layers = (
{
layerId = m003;
paths = (
{
closed = 1;
nodes = (
"413 553 LINE",
"416 491 LINE",
"420 441 LINE",
"412 441 LINE SMOOTH",
"412 441 OFFCURVE",
"401 565 OFFCURVE",
"253 565 CURVE SMOOTH",
"125 565 OFFCURVE",
"28 447 OFFCURVE",
"28 277 CURVE SMOOTH",
"28 100 OFFCURVE",
"117 -11 OFFCURVE",
"252 -11 CURVE SMOOTH",
"377 -11 OFFCURVE",
"412 103 OFFCURVE",
"412 103 CURVE",
"420 103 LINE",
"416 52 LINE SMOOTH",
"413 19 OFFCURVE",
"412 -13 OFFCURVE",
"412 -46 CURVE SMOOTH",
"412 -168 LINE",
"584 -168 LINE",
"584 553 LINE"
);
},
{
closed = 1;
nodes = (
"412 187 OFFCURVE",
"370 137 OFFCURVE",
"309 137 CURVE SMOOTH",
"248 137 OFFCURVE",
"207 187 OFFCURVE",
"207 277 CURVE SMOOTH",
"207 367 OFFCURVE",
"248 417 OFFCURVE",
"309 417 CURVE SMOOTH",
"370 417 OFFCURVE",
"412 367 OFFCURVE",
"412 277 CURVE SMOOTH"
);
}
);
width = 636;
},
{
layerId = "4050705C-5704-4184-B7B7-497C68798CAB";
paths = (
{
closed = 1;
nodes = (
"331 -11 OFFCURVE",
"344 104 OFFCURVE",
"344 104 CURVE",
"352 104 LINE",
"348 53 LINE",
"345 20 OFFCURVE",
"344 -12 OFFCURVE",
"344 -45 CURVE",
"344 -167 LINE",
"533 -167 LINE",
"533 554 LINE",
"344 554 LINE",
"345 533 OFFCURVE",
"346 513 OFFCURVE",
"348 492 CURVE",
"351 447 LINE",
"344 447 LINE",
"344 447 OFFCURVE",
"322 565 OFFCURVE",
"202 565 CURVE",
"91 565 OFFCURVE",
"29 443 OFFCURVE",
"29 275 CURVE",
"29 112 OFFCURVE",
"92 -11 OFFCURVE",
"208 -11 CURVE"
);
},
{
closed = 1;
nodes = (
"324 403 OFFCURVE",
"351 367 OFFCURVE",
"351 275 CURVE SMOOTH",
"351 183 OFFCURVE",
"324 148 OFFCURVE",
"285 148 CURVE SMOOTH",
"245 148 OFFCURVE",
"218 183 OFFCURVE",
"218 275 CURVE SMOOTH",
"218 367 OFFCURVE",
"245 403 OFFCURVE",
"285 403 CURVE SMOOTH"
);
}
);
width = 585;
},
{
layerId = "A498EE73-B8E0-478F-AD48-BB28716BB127";
paths = (
{
closed = 1;
nodes = (
"331 -11 OFFCURVE",
"344 104 OFFCURVE",
"344 104 CURVE",
"352 104 LINE",
"348 53 LINE",
"345 20 OFFCURVE",
"344 -12 OFFCURVE",
"344 -45 CURVE",
"344 -167 LINE",
"533 -167 LINE",
"533 554 LINE",
"344 554 LINE",
"345 533 OFFCURVE",
"346 513 OFFCURVE",
"348 492 CURVE",
"351 447 LINE",
"344 447 LINE",
"344 447 OFFCURVE",
"322 565 OFFCURVE",
"202 565 CURVE",
"91 565 OFFCURVE",
"29 443 OFFCURVE",
"29 275 CURVE",
"29 112 OFFCURVE",
"92 -11 OFFCURVE",
"208 -11 CURVE"
);
},
{
closed = 1;
nodes = (
"324 403 OFFCURVE",
"351 367 OFFCURVE",
"351 275 CURVE SMOOTH",
"351 183 OFFCURVE",
"324 148 OFFCURVE",
"285 148 CURVE SMOOTH",
"245 148 OFFCURVE",
"218 183 OFFCURVE",
"218 275 CURVE SMOOTH",
"218 367 OFFCURVE",
"245 403 OFFCURVE",
"285 403 CURVE SMOOTH"
);
}
);
width = 585;
},
{
layerId = "04E65C73-A9C2-4E63-92BC-18A513B12E25";
paths = (
{
closed = 1;
nodes = (
"413 553 LINE",
"416 491 LINE",
"420 441 LINE",
"412 441 LINE SMOOTH",
"412 441 OFFCURVE",
"401 565 OFFCURVE",
"253 565 CURVE SMOOTH",
"125 565 OFFCURVE",
"28 447 OFFCURVE",
"28 277 CURVE SMOOTH",
"28 100 OFFCURVE",
"117 -11 OFFCURVE",
"252 -11 CURVE SMOOTH",
"377 -11 OFFCURVE",
"412 103 OFFCURVE",
"412 103 CURVE",
"420 103 LINE",
"416 52 LINE SMOOTH",
"413 19 OFFCURVE",
"412 -13 OFFCURVE",
"412 -46 CURVE SMOOTH",
"412 -168 LINE",
"584 -168 LINE",
"584 553 LINE"
);
},
{
closed = 1;
nodes = (
"412 187 OFFCURVE",
"370 137 OFFCURVE",
"309 137 CURVE SMOOTH",
"248 137 OFFCURVE",
"207 187 OFFCURVE",
"207 277 CURVE SMOOTH",
"207 367 OFFCURVE",
"248 417 OFFCURVE",
"309 417 CURVE SMOOTH",
"370 417 OFFCURVE",
"412 367 OFFCURVE",
"412 277 CURVE SMOOTH"
);
}
);
width = 636;
}
);
unicode = 0071;
},
{
glyphname = r;
lastChange = "2026-05-28 22:11:58 +0000";
layers = (
{
layerId = m003;
paths = (
{
closed = 1;
nodes = (
"314 564 OFFCURVE",
"225 530 OFFCURVE",
"225 437 CURVE",
"217 437 LINE",
"221 488 LINE",
"224 550 LINE",
"52 550 LINE",
"52 0 LINE",
"224 0 LINE",
"224 294 LINE SMOOTH",
"224 362 OFFCURVE",
"255 393 OFFCURVE",
"314 393 CURVE SMOOTH",
"352 393 OFFCURVE",
"386 381 OFFCURVE",
"421 368 CURVE",
"407 564 LINE"
);
}
);
width = 441;
},
{
layerId = "4050705C-5704-4184-B7B7-497C68798CAB";
paths = (
{
closed = 1;
nodes = (
"318 565 OFFCURVE",
"288 521 OFFCURVE",
"241 450 CURVE SMOOTH",
"234 450 LINE",
"237 492 LINE SMOOTH",
"239 513 OFFCURVE",
"240 533 OFFCURVE",
"241 554 CURVE",
"52 554 LINE",
"52 0 LINE",
"241 0 LINE",
"241 339 LINE SMOOTH",
"241 380 OFFCURVE",
"263 406 OFFCURVE",
"314 406 CURVE SMOOTH",
"350 406 OFFCURVE",
"383 396 OFFCURVE",
"418 386 CURVE",
"403 565 LINE"
);
}
);
width = 414;
},
{
layerId = "A498EE73-B8E0-478F-AD48-BB28716BB127";
paths = (
{
closed = 1;
nodes = (
"318 565 OFFCURVE",
"288 521 OFFCURVE",
"241 450 CURVE SMOOTH",
"234 450 LINE",
"237 492 LINE SMOOTH",
"239 513 OFFCURVE",
"240 533 OFFCURVE",
"241 554 CURVE",
"52 554 LINE",
"52 0 LINE",
"241 0 LINE",
"241 339 LINE SMOOTH",
"241 380 OFFCURVE",
"263 406 OFFCURVE",
"314 406 CURVE SMOOTH",
"350 406 OFFCURVE",
"383 396 OFFCURVE",
"418 386 CURVE",
"403 565 LINE"
);
}
);
width = 414;
},
{
layerId = "04E65C73-A9C2-4E63-92BC-18A513B12E25";
paths = (
{
closed = 1;
nodes = (
"314 564 OFFCURVE",
"225 530 OFFCURVE",
"225 437 CURVE",
"217 437 LINE",
"221 488 LINE",
"224 550 LINE",
"52 550 LINE",
"52 0 LINE",
"224 0 LINE",
"224 294 LINE SMOOTH",
"224 362 OFFCURVE",
"255 393 OFFCURVE",
"314 393 CURVE SMOOTH",
"352 393 OFFCURVE",
"386 381 OFFCURVE",
"421 368 CURVE",
"407 564 LINE"
);
}
);
width = 441;
}
);
leftKerningGroup = r;
note = r;
rightKerningGroup = r;
unicode = 0072;
},
{
glyphname = s;
lastChange = "2026-05-29 16:37:33 +0000";
layers = (
{
layerId = m003;
paths = (
{
closed = 1;
nodes = (
"553 -11 OFFCURVE",
"627 63 OFFCURVE",
"627 170 CURVE SMOOTH",
"627 391 OFFCURVE",
"243 341 OFFCURVE",
"243 389 CURVE SMOOTH",
"243 402 OFFCURVE",
"256 410 OFFCURVE",
"327 410 CURVE SMOOTH",
"424 410 OFFCURVE",
"513 393 OFFCURVE",
"586 362 CURVE",
"586 532 LINE",
"506 554 OFFCURVE",
"420 565 OFFCURVE",
"316 565 CURVE SMOOTH",
"105 565 OFFCURVE",
"26 487 OFFCURVE",
"26 390 CURVE SMOOTH",
"26 173 OFFCURVE",
"408 225 OFFCURVE",
"408 168 CURVE SMOOTH",
"408 155 OFFCURVE",
"393 144 OFFCURVE",
"319 144 CURVE SMOOTH",
"219 144 OFFCURVE",
"115 162 OFFCURVE",
"20 200 CURVE",
"20 26 LINE",
"112 1 OFFCURVE",
"210 -11 OFFCURVE",
"316 -11 CURVE SMOOTH"
);
}
);
width = 645;
},
{
layerId = "4050705C-5704-4184-B7B7-497C68798CAB";
paths = (
{
closed = 1;
nodes = (
"386 -11 OFFCURVE",
"456 58 OFFCURVE",
"456 157 CURVE SMOOTH",
"456 345 OFFCURVE",
"208 337 OFFCURVE",
"208 387 CURVE SMOOTH",
"208 404 OFFCURVE",
"226 416 OFFCURVE",
"279 416 CURVE SMOOTH",
"322 416 OFFCURVE",
"371 407 OFFCURVE",
"432 382 CURVE",
"432 544 LINE",
"374 558 OFFCURVE",
"332 565 OFFCURVE",
"267 565 CURVE SMOOTH",
"112 565 OFFCURVE",
"20 502 OFFCURVE",
"20 392 CURVE SMOOTH",
"20 213 OFFCURVE",
"268 228 OFFCURVE",
"268 169 CURVE SMOOTH",
"268 146 OFFCURVE",
"249 138 OFFCURVE",
"204 138 CURVE SMOOTH",
"148 138 OFFCURVE",
"77 149 OFFCURVE",
"20 175 CURVE",
"20 7 LINE",
"75 -5 OFFCURVE",
"135 -11 OFFCURVE",
"209 -11 CURVE SMOOTH"
);
}
);
width = 474;
},
{
layerId = "A498EE73-B8E0-478F-AD48-BB28716BB127";
paths = (
{
closed = 1;
nodes = (
"312 -11 OFFCURVE",
"387 45 OFFCURVE",
"387 144.25 CURVE SMOOTH",
"387 330 OFFCURVE",
"120 318 OFFCURVE",
"120 413 CURVE SMOOTH",
"120 453 OFFCURVE",
"156 475 OFFCURVE",
"227 475 CURVE SMOOTH",
"273 475 OFFCURVE",
"319 464 OFFCURVE",
"356 446 CURVE",
"356 545 LINE",
"319 558 OFFCURVE",
"267 565 OFFCURVE",
"213 565 CURVE SMOOTH",
"94 565 OFFCURVE",
"18 505 OFFCURVE",
"18.5 409.5 CURVE SMOOTH",
"19 242 OFFCURVE",
"286 262 OFFCURVE",
"286 145 CURVE SMOOTH",
"286 100 OFFCURVE",
"249 76 OFFCURVE",
"183 78 CURVE SMOOTH",
"124 79 OFFCURVE",
"84 88 OFFCURVE",
"19 115 CURVE",
"18.5 13 LINE",
"63 -3 OFFCURVE",
"119 -11 OFFCURVE",
"180.25 -11 CURVE SMOOTH"
);
}
);
width = 404;
},
{
layerId = "04E65C73-A9C2-4E63-92BC-18A513B12E25";
paths = (
{
closed = 1;
nodes = (
"495 -11 OFFCURVE",
"547 70 OFFCURVE",
"547 155 CURVE SMOOTH",
"547 402 OFFCURVE",
"132 301 OFFCURVE",
"132 410 CURVE SMOOTH",
"132 444 OFFCURVE",
"166 472 OFFCURVE",
"280 472 CURVE SMOOTH",
"359 472 OFFCURVE",
"429 459 OFFCURVE",
"511 422 CURVE",
"511 526 LINE",
"443 551 OFFCURVE",
"364 565 OFFCURVE",
"271 565 CURVE SMOOTH",
"82 565 OFFCURVE",
"24 492 OFFCURVE",
"24 404 CURVE SMOOTH",
"24 188 OFFCURVE",
"439 305 OFFCURVE",
"439 155 CURVE SMOOTH",
"439 109 OFFCURVE",
"396 81 OFFCURVE",
"284 83 CURVE SMOOTH",
"184 84 OFFCURVE",
"105 102 OFFCURVE",
"19 142 CURVE",
"18.5 32 LINE",
"87 5 OFFCURVE",
"189 -11 OFFCURVE",
"281 -11 CURVE SMOOTH"
);
}
);
width = 565;
}
);
leftKerningGroup = s;
note = s;
rightKerningGroup = s;
unicode = 0073;
},
{
glyphname = t;
lastChange = "2026-05-28 22:11:58 +0000";
layers = (
{
layerId = m003;
paths = (
{
closed = 1;
nodes = (
"98 662 LINE",
"98 550 LINE",
"22 550 LINE",
"22 405 LINE",
"98 405 LINE",
"98 194 LINE SMOOTH",
"98 63 OFFCURVE",
"172 -11 OFFCURVE",
"302 -11 CURVE SMOOTH",
"355 -11 OFFCURVE",
"402 8 OFFCURVE",
"452 27 CURVE",
"441 177 LINE",
"406 157 OFFCURVE",
"370 142 OFFCURVE",
"330 142 CURVE SMOOTH",
"289 142 OFFCURVE",
"270 160 OFFCURVE",
"270 200 CURVE SMOOTH",
"270 405 LINE",
"451 405 LINE",
"451 550 LINE",
"270 550 LINE",
"270 675 LINE"
);
}
);
width = 478;
},
{
layerId = "4050705C-5704-4184-B7B7-497C68798CAB";
paths = (
{
closed = 1;
nodes = (
"98 667 LINE",
"98 556 LINE",
"22 556 LINE",
"22 420 LINE",
"98 420 LINE",
"98 196 LINE SMOOTH",
"98 65 OFFCURVE",
"172 -9 OFFCURVE",
"302 -9 CURVE SMOOTH",
"354 -9 OFFCURVE",
"402 6 OFFCURVE",
"452 21 CURVE",
"441 187 LINE",
"413 166 OFFCURVE",
"382 154 OFFCURVE",
"347 154 CURVE SMOOTH",
"306 154 OFFCURVE",
"287 172 OFFCURVE",
"287 212 CURVE SMOOTH",
"287 420 LINE",
"451 420 LINE",
"451 556 LINE",
"287 556 LINE",
"287 681 LINE"
);
}
);
width = 478;
},
{
layerId = "A498EE73-B8E0-478F-AD48-BB28716BB127";
paths = (
{
closed = 1;
nodes = (
"98 667 LINE",
"98 556 LINE",
"22 556 LINE",
"22 420 LINE",
"98 420 LINE",
"98 196 LINE SMOOTH",
"98 65 OFFCURVE",
"172 -9 OFFCURVE",
"302 -9 CURVE SMOOTH",
"354 -9 OFFCURVE",
"402 6 OFFCURVE",
"452 21 CURVE",
"441 187 LINE",
"413 166 OFFCURVE",
"382 154 OFFCURVE",
"347 154 CURVE SMOOTH",
"306 154 OFFCURVE",
"287 172 OFFCURVE",
"287 212 CURVE SMOOTH",
"287 420 LINE",
"451 420 LINE",
"451 556 LINE",
"287 556 LINE",
"287 681 LINE"
);
}
);
width = 478;
},
{
layerId = "04E65C73-A9C2-4E63-92BC-18A513B12E25";
paths = (
{
closed = 1;
nodes = (
"98 662 LINE",
"98 550 LINE",
"22 550 LINE",
"22 405 LINE",
"98 405 LINE",
"98 194 LINE SMOOTH",
"98 63 OFFCURVE",
"172 -11 OFFCURVE",
"302 -11 CURVE SMOOTH",
"355 -11 OFFCURVE",
"402 8 OFFCURVE",
"452 27 CURVE",
"441 177 LINE",
"406 157 OFFCURVE",
"370 142 OFFCURVE",
"330 142 CURVE SMOOTH",
"289 142 OFFCURVE",
"270 160 OFFCURVE",
"270 200 CURVE SMOOTH",
"270 405 LINE",
"451 405 LINE",
"451 550 LINE",
"270 550 LINE",
"270 675 LINE"
);
}
);
width = 478;
}
);
leftKerningGroup = t;
note = t;
rightKerningGroup = t;
unicode = 0074;
},
{
glyphname = u;
lastChange = "2026-05-28 22:11:58 +0000";
layers = (
{
layerId = m003;
paths = (
{
closed = 1;
nodes = (
"408 281 LINE SMOOTH",
"408 189 OFFCURVE",
"371 146 OFFCURVE",
"299 146 CURVE SMOOTH",
"245 146 OFFCURVE",
"218 178 OFFCURVE",
"218 247 CURVE SMOOTH",
"218 550 LINE",
"45 550 LINE",
"45 218 LINE SMOOTH",
"45 67 OFFCURVE",
"112 -12 OFFCURVE",
"235 -12 CURVE SMOOTH",
"379 -12 OFFCURVE",
"408 112 OFFCURVE",
"408 112 CURVE",
"416 112 LINE",
"412 62 LINE",
"409 0 LINE",
"580 0 LINE",
"580 550 LINE",
"408 550 LINE"
);
}
);
width = 632;
},
{
layerId = "4050705C-5704-4184-B7B7-497C68798CAB";
paths = (
{
closed = 1;
nodes = (
"335 -9 OFFCURVE",
"368 106 OFFCURVE",
"368 106 CURVE",
"375 106 LINE",
"372 64 LINE SMOOTH",
"370 43 OFFCURVE",
"369 23 OFFCURVE",
"368 2 CURVE",
"557 2 LINE",
"557 556 LINE",
"368 556 LINE",
"368 259 LINE SMOOTH",
"368 208 OFFCURVE",
"355 150 OFFCURVE",
"302 150 CURVE SMOOTH",
"258 150 OFFCURVE",
"242 179 OFFCURVE",
"242 239 CURVE SMOOTH",
"242 556 LINE",
"53 556 LINE",
"53 200 LINE SMOOTH",
"53 72 OFFCURVE",
"96 -9 OFFCURVE",
"206 -9 CURVE SMOOTH"
);
}
);
width = 607;
},
{
layerId = "A498EE73-B8E0-478F-AD48-BB28716BB127";
paths = (
{
closed = 1;
nodes = (
"335 -9 OFFCURVE",
"368 106 OFFCURVE",
"368 106 CURVE",
"375 106 LINE",
"372 64 LINE SMOOTH",
"370 43 OFFCURVE",
"369 23 OFFCURVE",
"368 2 CURVE",
"557 2 LINE",
"557 556 LINE",
"368 556 LINE",
"368 259 LINE SMOOTH",
"368 208 OFFCURVE",
"355 150 OFFCURVE",
"302 150 CURVE SMOOTH",
"258 150 OFFCURVE",
"242 179 OFFCURVE",
"242 239 CURVE SMOOTH",
"242 556 LINE",
"53 556 LINE",
"53 200 LINE SMOOTH",
"53 72 OFFCURVE",
"96 -9 OFFCURVE",
"206 -9 CURVE SMOOTH"
);
}
);
width = 607;
},
{
layerId = "04E65C73-A9C2-4E63-92BC-18A513B12E25";
paths = (
{
closed = 1;
nodes = (
"408 281 LINE SMOOTH",
"408 189 OFFCURVE",
"371 146 OFFCURVE",
"299 146 CURVE SMOOTH",
"245 146 OFFCURVE",
"218 178 OFFCURVE",
"218 247 CURVE SMOOTH",
"218 550 LINE",
"45 550 LINE",
"45 218 LINE SMOOTH",
"45 67 OFFCURVE",
"112 -12 OFFCURVE",
"235 -12 CURVE SMOOTH",
"379 -12 OFFCURVE",
"408 112 OFFCURVE",
"408 112 CURVE",
"416 112 LINE",
"412 62 LINE",
"409 0 LINE",
"580 0 LINE",
"580 550 LINE",
"408 550 LINE"
);
}
);
width = 632;
}
);
leftKerningGroup = u;
note = u;
rightKerningGroup = u;
unicode = 0075;
},
{
glyphname = v;
lastChange = "2026-05-28 22:11:58 +0000";
layers = (
{
layerId = m003;
paths = (
{
closed = 1;
nodes = (
"405 552 LINE",
"291 223 LINE",
"178 552 LINE",
"-4 552 LINE",
"212 0 LINE",
"370 0 LINE",
"586 552 LINE"
);
}
);
width = 582;
},
{
layerId = "4050705C-5704-4184-B7B7-497C68798CAB";
paths = (
{
closed = 1;
nodes = (
"270 218 LINE",
"263 218 LINE",
"200 554 LINE",
"-4 554 LINE",
"172 0 LINE",
"361 0 LINE",
"537 554 LINE",
"332 554 LINE"
);
}
);
width = 533;
},
{
layerId = "A498EE73-B8E0-478F-AD48-BB28716BB127";
paths = (
{
closed = 1;
nodes = (
"270 218 LINE",
"263 218 LINE",
"200 554 LINE",
"-4 554 LINE",
"172 0 LINE",
"361 0 LINE",
"537 554 LINE",
"332 554 LINE"
);
}
);
width = 533;
},
{
layerId = "04E65C73-A9C2-4E63-92BC-18A513B12E25";
paths = (
{
closed = 1;
nodes = (
"405 552 LINE",
"291 223 LINE",
"178 552 LINE",
"-4 552 LINE",
"212 0 LINE",
"370 0 LINE",
"586 552 LINE"
);
}
);
width = 582;
}
);
leftKerningGroup = v;
note = v;
rightKerningGroup = v;
unicode = 0076;
},
{
glyphname = w;
lastChange = "2026-05-28 22:11:58 +0000";
layers = (
{
layerId = m003;
paths = (
{
closed = 1;
nodes = (
"654 552 LINE",
"575 259 LINE",
"496 552 LINE",
"335 552 LINE",
"256 259 LINE",
"177 552 LINE",
"-4 552 LINE",
"175 0 LINE",
"337 0 LINE",
"416 293 LINE",
"495 0 LINE",
"656 0 LINE",
"835 552 LINE"
);
}
);
width = 831;
},
{
layerId = "4050705C-5704-4184-B7B7-497C68798CAB";
paths = (
{
closed = 1;
nodes = (
"541 249 LINE",
"533 249 LINE",
"490 554 LINE",
"294 554 LINE",
"251 249 LINE",
"244 249 LINE",
"200 554 LINE",
"-4 554 LINE",
"150 0 LINE",
"339 0 LINE",
"388 332 LINE",
"396 332 LINE",
"445 0 LINE",
"634 0 LINE",
"788 554 LINE",
"584 554 LINE"
);
}
);
width = 784;
},
{
layerId = "A498EE73-B8E0-478F-AD48-BB28716BB127";
paths = (
{
closed = 1;
nodes = (
"541 249 LINE",
"533 249 LINE",
"490 554 LINE",
"294 554 LINE",
"251 249 LINE",
"244 249 LINE",
"200 554 LINE",
"-4 554 LINE",
"150 0 LINE",
"339 0 LINE",
"388 332 LINE",
"396 332 LINE",
"445 0 LINE",
"634 0 LINE",
"788 554 LINE",
"584 554 LINE"
);
}
);
width = 784;
},
{
layerId = "04E65C73-A9C2-4E63-92BC-18A513B12E25";
paths = (
{
closed = 1;
nodes = (
"654 552 LINE",
"575 259 LINE",
"496 552 LINE",
"335 552 LINE",
"256 259 LINE",
"177 552 LINE",
"-4 552 LINE",
"175 0 LINE",
"337 0 LINE",
"416 293 LINE",
"495 0 LINE",
"656 0 LINE",
"835 552 LINE"
);
}
);
width = 831;
}
);
unicode = 0077;
},
{
glyphname = x;
lastChange = "2026-05-28 22:11:58 +0000";
layers = (
{
layerId = m003;
paths = (
{
closed = 1;
nodes = (
"388 552 LINE",
"300 409 LINE",
"212 552 LINE",
"9 552 LINE",
"197 285 LINE",
"-4 0 LINE",
"204 0 LINE",
"300 159 LINE",
"397 0 LINE",
"604 0 LINE",
"403 285 LINE",
"592 552 LINE"
);
}
);
width = 600;
},
{
layerId = "4050705C-5704-4184-B7B7-497C68798CAB";
paths = (
{
closed = 1;
nodes = (
"572 0 LINE",
"407 282 LINE",
"561 554 LINE",
"357 554 LINE",
"296 399 LINE",
"288 399 LINE",
"225 554 LINE",
"21 554 LINE",
"178 282 LINE",
"12 0 LINE",
"217 0 LINE",
"288 173 LINE",
"296 173 LINE",
"368 0 LINE"
);
}
);
width = 584;
},
{
layerId = "A498EE73-B8E0-478F-AD48-BB28716BB127";
paths = (
{
closed = 1;
nodes = (
"572 0 LINE",
"407 282 LINE",
"561 554 LINE",
"357 554 LINE",
"296 399 LINE",
"288 399 LINE",
"225 554 LINE",
"21 554 LINE",
"178 282 LINE",
"12 0 LINE",
"217 0 LINE",
"288 173 LINE",
"296 173 LINE",
"368 0 LINE"
);
}
);
width = 584;
},
{
layerId = "04E65C73-A9C2-4E63-92BC-18A513B12E25";
paths = (
{
closed = 1;
nodes = (
"388 552 LINE",
"300 409 LINE",
"212 552 LINE",
"9 552 LINE",
"197 285 LINE",
"-4 0 LINE",
"204 0 LINE",
"300 159 LINE",
"397 0 LINE",
"604 0 LINE",
"403 285 LINE",
"592 552 LINE"
);
}
);
width = 600;
}
);
unicode = 0078;
},
{
glyphname = y;
lastChange = "2026-05-28 22:11:58 +0000";
layers = (
{
layerId = m003;
paths = (
{
closed = 1;
nodes = (
"412 534 LINE",
"296 169 LINE",
"178 534 LINE",
"-4 534 LINE",
"187 15 LINE SMOOTH",
"206 -36 OFFCURVE",
"191 -86 OFFCURVE",
"137 -86 CURVE SMOOTH",
"96 -86 OFFCURVE",
"63 -66 OFFCURVE",
"28 -44 CURVE",
"15 -213 LINE",
"64 -235 OFFCURVE",
"116 -243 OFFCURVE",
"170 -243 CURVE SMOOTH",
"291 -243 OFFCURVE",
"339 -178 OFFCURVE",
"382 -60 CURVE SMOOTH",
"593 534 LINE"
);
}
);
width = 589;
},
{
layerId = "4050705C-5704-4184-B7B7-497C68798CAB";
paths = (
{
closed = 1;
nodes = (
"294 218 LINE",
"286 218 LINE",
"224 554 LINE",
"20 554 LINE",
"182 43 LINE SMOOTH",
"198 -10 OFFCURVE",
"176 -50 OFFCURVE",
"103 -50 CURVE SMOOTH",
"70 -50 OFFCURVE",
"38 -42 OFFCURVE",
"6 -33 CURVE",
"20 -204 LINE",
"55 -209 OFFCURVE",
"89 -213 OFFCURVE",
"124 -213 CURVE SMOOTH",
"264 -213 OFFCURVE",
"336 -156 OFFCURVE",
"385 0 CURVE SMOOTH",
"561 554 LINE",
"356 554 LINE"
);
}
);
width = 567;
},
{
layerId = "A498EE73-B8E0-478F-AD48-BB28716BB127";
paths = (
{
closed = 1;
nodes = (
"294 218 LINE",
"286 218 LINE",
"224 554 LINE",
"20 554 LINE",
"182 43 LINE SMOOTH",
"198 -10 OFFCURVE",
"176 -50 OFFCURVE",
"103 -50 CURVE SMOOTH",
"70 -50 OFFCURVE",
"38 -42 OFFCURVE",
"6 -33 CURVE",
"20 -204 LINE",
"55 -209 OFFCURVE",
"89 -213 OFFCURVE",
"124 -213 CURVE SMOOTH",
"264 -213 OFFCURVE",
"336 -156 OFFCURVE",
"385 0 CURVE SMOOTH",
"561 554 LINE",
"356 554 LINE"
);
}
);
width = 567;
},
{
layerId = "04E65C73-A9C2-4E63-92BC-18A513B12E25";
paths = (
{
closed = 1;
nodes = (
"412 534 LINE",
"296 169 LINE",
"178 534 LINE",
"-4 534 LINE",
"187 15 LINE SMOOTH",
"206 -36 OFFCURVE",
"191 -86 OFFCURVE",
"137 -86 CURVE SMOOTH",
"96 -86 OFFCURVE",
"63 -66 OFFCURVE",
"28 -44 CURVE",
"15 -213 LINE",
"64 -235 OFFCURVE",
"116 -243 OFFCURVE",
"170 -243 CURVE SMOOTH",
"291 -243 OFFCURVE",
"339 -178 OFFCURVE",
"382 -60 CURVE SMOOTH",
"593 534 LINE"
);
}
);
width = 589;
}
);
leftKerningGroup = y;
note = y;
rightKerningGroup = y;
unicode = 0079;
},
{
glyphname = z;
lastChange = "2026-05-28 22:11:58 +0000";
layers = (
{
layerId = m003;
paths = (
{
closed = 1;
nodes = (
"22 552 LINE",
"22 396 LINE",
"256 396 LINE",
"16 142 LINE",
"16 0 LINE",
"477 0 LINE",
"489 157 LINE",
"239 157 LINE",
"479 410 LINE",
"479 552 LINE"
);
}
);
width = 505;
},
{
layerId = "4050705C-5704-4184-B7B7-497C68798CAB";
paths = (
{
closed = 1;
nodes = (
"442 414 LINE",
"442 554 LINE",
"34 554 LINE",
"34 399 LINE",
"230 399 LINE",
"16 141 LINE",
"16 0 LINE",
"446 0 LINE",
"459 156 LINE",
"228 156 LINE"
);
}
);
width = 475;
},
{
layerId = "A498EE73-B8E0-478F-AD48-BB28716BB127";
paths = (
{
closed = 1;
nodes = (
"442 414 LINE",
"442 554 LINE",
"34 554 LINE",
"34 399 LINE",
"230 399 LINE",
"16 141 LINE",
"16 0 LINE",
"446 0 LINE",
"459 156 LINE",
"228 156 LINE"
);
}
);
width = 475;
},
{
layerId = "04E65C73-A9C2-4E63-92BC-18A513B12E25";
paths = (
{
closed = 1;
nodes = (
"22 552 LINE",
"22 396 LINE",
"256 396 LINE",
"16 142 LINE",
"16 0 LINE",
"477 0 LINE",
"489 157 LINE",
"239 157 LINE",
"479 410 LINE",
"479 552 LINE"
);
}
);
width = 505;
}
);
leftKerningGroup = z;
note = z;
rightKerningGroup = z;
unicode = 007A;
},
{
glyphname = e.001;
lastChange = "2026-05-28 22:11:58 +0000";
layers = (
{
layerId = m003;
paths = (
{
closed = 1;
nodes = (
"386 -11 OFFCURVE",
"455 10 OFFCURVE",
"526 32 CURVE",
"526 180 LINE",
"466 145 OFFCURVE",
"401 129 OFFCURVE",
"331 129 CURVE SMOOTH",
"245 129 OFFCURVE",
"203 167 OFFCURVE",
"198 228 CURVE",
"567 228 LINE",
"569 244 OFFCURVE",
"570 260 OFFCURVE",
"570 277 CURVE SMOOTH",
"570 431 OFFCURVE",
"489 565 OFFCURVE",
"299 565 CURVE SMOOTH",
"118 565 OFFCURVE",
"21 437 OFFCURVE",
"21 277 CURVE SMOOTH",
"21 117 OFFCURVE",
"120 -11 OFFCURVE",
"311 -11 CURVE SMOOTH"
);
},
{
closed = 1;
nodes = (
"208 386 OFFCURVE",
"240 425 OFFCURVE",
"299 425 CURVE SMOOTH",
"358 425 OFFCURVE",
"387 386 OFFCURVE",
"397 322 CURVE",
"198 322 LINE"
);
}
);
width = 591;
},
{
layerId = "4050705C-5704-4184-B7B7-497C68798CAB";
paths = (
{
closed = 1;
nodes = (
"169 183 LINE",
"537 294 LINE",
"533 442 OFFCURVE",
"460 567 OFFCURVE",
"283 567 CURVE SMOOTH",
"106 567 OFFCURVE",
"29 440 OFFCURVE",
"29 278 CURVE SMOOTH",
"29 96 OFFCURVE",
"114 -9 OFFCURVE",
"293 -9 CURVE SMOOTH",
"356 -9 OFFCURVE",
"416 5 OFFCURVE",
"477 19 CURVE",
"477 178 LINE",
"428 150 OFFCURVE",
"374 138 OFFCURVE",
"317 138 CURVE SMOOTH",
"247 138 OFFCURVE",
"208 182 OFFCURVE",
"208 277 CURVE SMOOTH",
"208 385 OFFCURVE",
"242 420 OFFCURVE",
"283 420 CURVE SMOOTH",
"316 420 OFFCURVE",
"344 398 OFFCURVE",
"349 334 CURVE",
"170 284 LINE"
);
}
);
width = 565;
},
{
associatedMasterId = "4050705C-5704-4184-B7B7-497C68798CAB";
layerId = "1EE6A78B-5FC8-4C0A-8F77-F21387513CCF";
name = "May 18, 26 at 12:27";
paths = (
{
closed = 1;
nodes = (
"169 223 LINE",
"537 278 LINE",
"537 440 OFFCURVE",
"460 567 OFFCURVE",
"283 567 CURVE SMOOTH",
"106 567 OFFCURVE",
"29 440 OFFCURVE",
"29 278 CURVE SMOOTH",
"29 96 OFFCURVE",
"114 -9 OFFCURVE",
"293 -9 CURVE SMOOTH",
"356 -9 OFFCURVE",
"416 5 OFFCURVE",
"477 19 CURVE",
"477 178 LINE",
"428 150 OFFCURVE",
"374 138 OFFCURVE",
"317 138 CURVE SMOOTH",
"247 138 OFFCURVE",
"208 182 OFFCURVE",
"208 277 CURVE SMOOTH",
"208 385 OFFCURVE",
"242 420 OFFCURVE",
"283 420 CURVE SMOOTH",
"316 420 OFFCURVE",
"351 394 OFFCURVE",
"351 324 CURVE",
"170 324 LINE"
);
}
);
visible = 1;
width = 565;
},
{
layerId = "A498EE73-B8E0-478F-AD48-BB28716BB127";
width = 482.5;
},
{
layerId = "04E65C73-A9C2-4E63-92BC-18A513B12E25";
paths = (
{
closed = 1;
nodes = (
"386 -11 OFFCURVE",
"455 10 OFFCURVE",
"526 32 CURVE",
"526 180 LINE",
"466 145 OFFCURVE",
"401 129 OFFCURVE",
"331 129 CURVE SMOOTH",
"245 129 OFFCURVE",
"203 167 OFFCURVE",
"198 228 CURVE",
"567 228 LINE",
"569 244 OFFCURVE",
"570 260 OFFCURVE",
"570 277 CURVE SMOOTH",
"570 431 OFFCURVE",
"489 565 OFFCURVE",
"299 565 CURVE SMOOTH",
"118 565 OFFCURVE",
"21 437 OFFCURVE",
"21 277 CURVE SMOOTH",
"21 117 OFFCURVE",
"120 -11 OFFCURVE",
"311 -11 CURVE SMOOTH"
);
},
{
closed = 1;
nodes = (
"208 386 OFFCURVE",
"240 425 OFFCURVE",
"299 425 CURVE SMOOTH",
"358 425 OFFCURVE",
"387 386 OFFCURVE",
"397 322 CURVE",
"198 322 LINE"
);
}
);
width = 591;
}
);
leftKerningGroup = e;
note = e;
rightKerningGroup = e;
},
{
glyphname = s.mid;
lastChange = "2026-05-28 22:11:58 +0000";
layers = (
{
layerId = m003;
paths = (
{
closed = 1;
nodes = (
"557 -11 OFFCURVE",
"639 54 OFFCURVE",
"639 166 CURVE SMOOTH",
"639 358 OFFCURVE",
"251 335 OFFCURVE",
"251 390 CURVE SMOOTH",
"251 409 OFFCURVE",
"274 425 OFFCURVE",
"335 425 CURVE SMOOTH",
"435 425 OFFCURVE",
"530 406 OFFCURVE",
"618 372 CURVE",
"618 533 LINE",
"522 558 OFFCURVE",
"418 565 OFFCURVE",
"314 565 CURVE SMOOTH",
"124 565 OFFCURVE",
"44 493 OFFCURVE",
"44 391 CURVE SMOOTH",
"44 191 OFFCURVE",
"430 228 OFFCURVE",
"430 164 CURVE SMOOTH",
"430 141 OFFCURVE",
"392 129 OFFCURVE",
"327 129 CURVE SMOOTH",
"239 129 OFFCURVE",
"140 147 OFFCURVE",
"42 190 CURVE",
"42 26 LINE",
"127 2 OFFCURVE",
"220 -11 OFFCURVE",
"325 -11 CURVE SMOOTH"
);
}
);
width = 681;
},
{
layerId = "4050705C-5704-4184-B7B7-497C68798CAB";
paths = (
{
closed = 1;
nodes = (
"360 -11 OFFCURVE",
"462 39 OFFCURVE",
"462 157 CURVE SMOOTH",
"462 354 OFFCURVE",
"224 325 OFFCURVE",
"224 380 CURVE SMOOTH",
"224 412 OFFCURVE",
"263 409 OFFCURVE",
"295 409 CURVE SMOOTH",
"348 409 OFFCURVE",
"398 395 OFFCURVE",
"449 381 CURVE",
"449 547 LINE",
"388 559 OFFCURVE",
"326 565 OFFCURVE",
"263 565 CURVE SMOOTH",
"127 565 OFFCURVE",
"26 511 OFFCURVE",
"26 396 CURVE SMOOTH",
"26 202 OFFCURVE",
"264 238 OFFCURVE",
"264 179 CURVE SMOOTH",
"264 147 OFFCURVE",
"223 148 OFFCURVE",
"191 148 CURVE SMOOTH",
"133 148 OFFCURVE",
"80 166 OFFCURVE",
"26 185 CURVE",
"26 7 LINE",
"91 -7 OFFCURVE",
"157 -11 OFFCURVE",
"223 -11 CURVE SMOOTH"
);
}
);
width = 489;
},
{
layerId = "A498EE73-B8E0-478F-AD48-BB28716BB127";
paths = (
{
closed = 1;
nodes = (
"316.5 -11 OFFCURVE",
"394.5 42.75 OFFCURVE",
"394.5 144.25 CURVE SMOOTH",
"394.5 325.5 OFFCURVE",
"133.25 315.25 OFFCURVE",
"133.25 410.75 CURVE SMOOTH",
"133.25 454.75 OFFCURVE",
"174.5 475.75 OFFCURVE",
"234.25 475.75 CURVE SMOOTH",
"281.25 475.75 OFFCURVE",
"314 467.75 OFFCURVE",
"369.5 447 CURVE",
"369.5 544.75 LINE",
"320.5 559 OFFCURVE",
"276.5 565 OFFCURVE",
"224.75 565 CURVE SMOOTH",
"106 565 OFFCURVE",
"26 507.25 OFFCURVE",
"26 409.5 CURVE SMOOTH",
"26 238.75 OFFCURVE",
"287.25 259.75 OFFCURVE",
"287.25 147.5 CURVE SMOOTH",
"287.25 102 OFFCURVE",
"246.25 76 OFFCURVE",
"179.75 77.5 CURVE SMOOTH",
"127.75 78.25 OFFCURVE",
"87.5 89.5 OFFCURVE",
"26 116 CURVE",
"26 13 LINE",
"73 -3.25 OFFCURVE",
"130 -11 OFFCURVE",
"187.75 -11 CURVE SMOOTH"
);
}
);
width = 421.5;
},
{
layerId = "04E65C73-A9C2-4E63-92BC-18A513B12E25";
paths = (
{
closed = 1;
nodes = (
"484.25 -11 OFFCURVE",
"578.25 42.75 OFFCURVE",
"578.25 151.75 CURVE SMOOTH",
"578.25 373.75 OFFCURVE",
"152.75 287 OFFCURVE",
"152.75 405 CURVE SMOOTH",
"152.75 448.75 OFFCURVE",
"199.75 479.75 OFFCURVE",
"314.75 479.75 CURVE SMOOTH",
"422.25 479.75 OFFCURVE",
"500.75 450.25 OFFCURVE",
"555.75 426 CURVE",
"555.75 524.75 LINE",
"492 546 OFFCURVE",
"405.25 565 OFFCURVE",
"308 565 CURVE SMOOTH",
"149.5 565 OFFCURVE",
"42.5 506.5 OFFCURVE",
"42.5 402.25 CURVE SMOOTH",
"42.5 198.5 OFFCURVE",
"467.5 288 OFFCURVE",
"467.5 152.75 CURVE SMOOTH",
"467.5 105 OFFCURVE",
"419.75 71.25 OFFCURVE",
"297 72.75 CURVE SMOOTH",
"188 73.5 OFFCURVE",
"108.5 102 OFFCURVE",
"42 133.75 CURVE",
"42 32 LINE",
"104.5 7.25 OFFCURVE",
"198.25 -11 OFFCURVE",
"301 -11 CURVE SMOOTH"
);
}
);
width = 620.25;
}
);
leftKerningGroup = s;
note = s;
rightKerningGroup = s;
},
{
glyphname = s.001;
lastChange = "2026-05-28 22:11:58 +0000";
layers = (
{
layerId = m003;
paths = (
{
closed = 1;
nodes = (
"554 -11 OFFCURVE",
"639 47 OFFCURVE",
"639 146 CURVE SMOOTH",
"639 345 OFFCURVE",
"251 299 OFFCURVE",
"251 360 CURVE SMOOTH",
"251 379 OFFCURVE",
"277 395 OFFCURVE",
"345 395 CURVE SMOOTH",
"441 395 OFFCURVE",
"533 376 OFFCURVE",
"618 342 CURVE",
"618 533 LINE",
"525 558 OFFCURVE",
"425 565 OFFCURVE",
"324 565 CURVE SMOOTH",
"127 565 OFFCURVE",
"44 501 OFFCURVE",
"44 411 CURVE SMOOTH",
"44 204 OFFCURVE",
"430 264 OFFCURVE",
"430 194 CURVE SMOOTH",
"430 171 OFFCURVE",
"388 159 OFFCURVE",
"317 159 CURVE SMOOTH",
"232 159 OFFCURVE",
"137 177 OFFCURVE",
"42 220 CURVE",
"42 26 LINE",
"124 2 OFFCURVE",
"214 -11 OFFCURVE",
"315 -11 CURVE SMOOTH"
);
}
);
width = 681;
},
{
layerId = "4050705C-5704-4184-B7B7-497C68798CAB";
paths = (
{
closed = 1;
nodes = (
"360 -11 OFFCURVE",
"462 39 OFFCURVE",
"462 157 CURVE SMOOTH",
"462 354 OFFCURVE",
"224 325 OFFCURVE",
"224 380 CURVE SMOOTH",
"224 412 OFFCURVE",
"263 409 OFFCURVE",
"295 409 CURVE SMOOTH",
"348 409 OFFCURVE",
"398 395 OFFCURVE",
"449 381 CURVE",
"449 547 LINE",
"388 559 OFFCURVE",
"326 565 OFFCURVE",
"263 565 CURVE SMOOTH",
"127 565 OFFCURVE",
"26 511 OFFCURVE",
"26 396 CURVE SMOOTH",
"26 202 OFFCURVE",
"264 238 OFFCURVE",
"264 179 CURVE SMOOTH",
"264 147 OFFCURVE",
"223 148 OFFCURVE",
"191 148 CURVE SMOOTH",
"133 148 OFFCURVE",
"80 166 OFFCURVE",
"26 185 CURVE",
"26 7 LINE",
"91 -7 OFFCURVE",
"157 -11 OFFCURVE",
"223 -11 CURVE SMOOTH"
);
}
);
width = 489;
},
{
layerId = "A498EE73-B8E0-478F-AD48-BB28716BB127";
paths = (
{
closed = 1;
nodes = (
"316.5 -11 OFFCURVE",
"394.5 42.75 OFFCURVE",
"394.5 144.25 CURVE SMOOTH",
"394.5 325.5 OFFCURVE",
"133.25 315.25 OFFCURVE",
"133.25 410.75 CURVE SMOOTH",
"133.25 454.75 OFFCURVE",
"174.5 475.75 OFFCURVE",
"234.25 475.75 CURVE SMOOTH",
"281.25 475.75 OFFCURVE",
"314 467.75 OFFCURVE",
"369.5 447 CURVE",
"369.5 544.75 LINE",
"320.5 559 OFFCURVE",
"276.5 565 OFFCURVE",
"224.75 565 CURVE SMOOTH",
"106 565 OFFCURVE",
"26 507.25 OFFCURVE",
"26 409.5 CURVE SMOOTH",
"26 238.75 OFFCURVE",
"287.25 259.75 OFFCURVE",
"287.25 147.5 CURVE SMOOTH",
"287.25 102 OFFCURVE",
"246.25 76 OFFCURVE",
"179.75 77.5 CURVE SMOOTH",
"127.75 78.25 OFFCURVE",
"87.5 89.5 OFFCURVE",
"26 116 CURVE",
"26 13 LINE",
"73 -3.25 OFFCURVE",
"130 -11 OFFCURVE",
"187.75 -11 CURVE SMOOTH"
);
}
);
width = 421.5;
},
{
layerId = "04E65C73-A9C2-4E63-92BC-18A513B12E25";
paths = (
{
closed = 1;
nodes = (
"483.5 -11 OFFCURVE",
"578.25 41 OFFCURVE",
"578.25 146.75 CURVE SMOOTH",
"578.25 370.5 OFFCURVE",
"152.75 278 OFFCURVE",
"152.75 397.5 CURVE SMOOTH",
"152.75 441.25 OFFCURVE",
"200.5 472.25 OFFCURVE",
"317.25 472.25 CURVE SMOOTH",
"423.75 472.25 OFFCURVE",
"501.5 442.75 OFFCURVE",
"555.75 418.5 CURVE",
"555.75 524.75 LINE",
"492.75 546 OFFCURVE",
"407 565 OFFCURVE",
"310.5 565 CURVE SMOOTH",
"150.25 565 OFFCURVE",
"42.5 508.5 OFFCURVE",
"42.5 407.25 CURVE SMOOTH",
"42.5 201.75 OFFCURVE",
"467.5 297 OFFCURVE",
"467.5 160.25 CURVE SMOOTH",
"467.5 112.5 OFFCURVE",
"418.75 78.75 OFFCURVE",
"294.5 80.25 CURVE SMOOTH",
"186.25 81 OFFCURVE",
"107.75 109.5 OFFCURVE",
"42 141.25 CURVE",
"42 32 LINE",
"103.75 7.25 OFFCURVE",
"196.75 -11 OFFCURVE",
"298.5 -11 CURVE SMOOTH"
);
}
);
width = 620.25;
}
);
leftKerningGroup = s;
note = s;
rightKerningGroup = s;
},
{
glyphname = f_f.liga;
lastChange = "2026-05-28 22:11:58 +0000";
layers = (
{
layerId = m003;
paths = (
{
closed = 1;
nodes = (
"752 605 OFFCURVE",
"788 596 OFFCURVE",
"824 586 CURVE",
"836 722 LINE",
"787 733 OFFCURVE",
"737 740 OFFCURVE",
"686 740 CURVE SMOOTH",
"568 740 OFFCURVE",
"482 668 OFFCURVE",
"482 550 CURVE",
"270 550 LINE",
"270 590 OFFCURVE",
"287 605 OFFCURVE",
"331 605 CURVE SMOOTH",
"368 605 OFFCURVE",
"404 596 OFFCURVE",
"440 586 CURVE",
"452 722 LINE",
"403 733 OFFCURVE",
"353 740 OFFCURVE",
"302 740 CURVE SMOOTH",
"172 740 OFFCURVE",
"98 680 OFFCURVE",
"98 550 CURVE",
"22 550 LINE",
"22 405 LINE",
"98 405 LINE",
"98 0 LINE",
"270 0 LINE",
"270 405 LINE",
"482 405 LINE",
"482 0 LINE",
"654 0 LINE",
"654 405 LINE",
"802 405 LINE",
"802 550 LINE",
"654 550 LINE",
"654 586 OFFCURVE",
"679 605 OFFCURVE",
"715 605 CURVE SMOOTH"
);
}
);
width = 858;
},
{
layerId = "4050705C-5704-4184-B7B7-497C68798CAB";
width = 600;
},
{
layerId = "A498EE73-B8E0-478F-AD48-BB28716BB127";
width = 600;
},
{
layerId = "04E65C73-A9C2-4E63-92BC-18A513B12E25";
paths = (
{
closed = 1;
nodes = (
"752 605 OFFCURVE",
"788 596 OFFCURVE",
"824 586 CURVE",
"836 722 LINE",
"787 733 OFFCURVE",
"737 740 OFFCURVE",
"686 740 CURVE SMOOTH",
"568 740 OFFCURVE",
"482 668 OFFCURVE",
"482 550 CURVE",
"270 550 LINE",
"270 590 OFFCURVE",
"287 605 OFFCURVE",
"331 605 CURVE SMOOTH",
"368 605 OFFCURVE",
"404 596 OFFCURVE",
"440 586 CURVE",
"452 722 LINE",
"403 733 OFFCURVE",
"353 740 OFFCURVE",
"302 740 CURVE SMOOTH",
"172 740 OFFCURVE",
"98 680 OFFCURVE",
"98 550 CURVE",
"22 550 LINE",
"22 405 LINE",
"98 405 LINE",
"98 0 LINE",
"270 0 LINE",
"270 405 LINE",
"482 405 LINE",
"482 0 LINE",
"654 0 LINE",
"654 405 LINE",
"802 405 LINE",
"802 550 LINE",
"654 550 LINE",
"654 586 OFFCURVE",
"679 605 OFFCURVE",
"715 605 CURVE SMOOTH"
);
}
);
width = 858;
}
);
},
{
glyphname = f_t.liga;
lastChange = "2026-05-28 22:11:58 +0000";
layers = (
{
layerId = m003;
paths = (
{
closed = 1;
nodes = (
"802 158 OFFCURVE",
"766 143 OFFCURVE",
"726 143 CURVE SMOOTH",
"685 143 OFFCURVE",
"666 160 OFFCURVE",
"666 200 CURVE SMOOTH",
"666 405 LINE",
"847 405 LINE",
"847 550 LINE",
"666 550 LINE",
"666 675 LINE",
"494 662 LINE",
"494 550 LINE",
"270 550 LINE",
"270 591 OFFCURVE",
"287 605 OFFCURVE",
"331 605 CURVE SMOOTH",
"368 605 OFFCURVE",
"404 596 OFFCURVE",
"440 587 CURVE",
"452 722 LINE",
"403 733 OFFCURVE",
"353 740 OFFCURVE",
"302 740 CURVE SMOOTH",
"172 740 OFFCURVE",
"98 681 OFFCURVE",
"98 550 CURVE",
"22 550 LINE",
"22 405 LINE",
"98 405 LINE",
"98 0 LINE",
"270 0 LINE",
"270 405 LINE",
"494 405 LINE",
"494 194 LINE SMOOTH",
"494 63 OFFCURVE",
"567 -11 OFFCURVE",
"698 -11 CURVE SMOOTH",
"751 -11 OFFCURVE",
"798 8 OFFCURVE",
"847 27 CURVE",
"837 177 LINE"
);
}
);
width = 872;
},
{
layerId = "4050705C-5704-4184-B7B7-497C68798CAB";
width = 600;
},
{
layerId = "A498EE73-B8E0-478F-AD48-BB28716BB127";
width = 600;
},
{
layerId = "04E65C73-A9C2-4E63-92BC-18A513B12E25";
paths = (
{
closed = 1;
nodes = (
"802 158 OFFCURVE",
"766 143 OFFCURVE",
"726 143 CURVE SMOOTH",
"685 143 OFFCURVE",
"666 160 OFFCURVE",
"666 200 CURVE SMOOTH",
"666 405 LINE",
"847 405 LINE",
"847 550 LINE",
"666 550 LINE",
"666 675 LINE",
"494 662 LINE",
"494 550 LINE",
"270 550 LINE",
"270 591 OFFCURVE",
"287 605 OFFCURVE",
"331 605 CURVE SMOOTH",
"368 605 OFFCURVE",
"404 596 OFFCURVE",
"440 587 CURVE",
"452 722 LINE",
"403 733 OFFCURVE",
"353 740 OFFCURVE",
"302 740 CURVE SMOOTH",
"172 740 OFFCURVE",
"98 681 OFFCURVE",
"98 550 CURVE",
"22 550 LINE",
"22 405 LINE",
"98 405 LINE",
"98 0 LINE",
"270 0 LINE",
"270 405 LINE",
"494 405 LINE",
"494 194 LINE SMOOTH",
"494 63 OFFCURVE",
"567 -11 OFFCURVE",
"698 -11 CURVE SMOOTH",
"751 -11 OFFCURVE",
"798 8 OFFCURVE",
"847 27 CURVE",
"837 177 LINE"
);
}
);
width = 872;
}
);
},
{
glyphname = t_f.liga;
lastChange = "2026-05-28 22:11:58 +0000";
layers = (
{
layerId = m003;
paths = (
{
closed = 1;
nodes = (
"773 605 OFFCURVE",
"809 596 OFFCURVE",
"845 587 CURVE",
"857 722 LINE",
"808 733 OFFCURVE",
"758 740 OFFCURVE",
"707 740 CURVE SMOOTH",
"577 740 OFFCURVE",
"503 681 OFFCURVE",
"503 550 CURVE",
"271 550 LINE",
"271 675 LINE",
"99 662 LINE",
"99 550 LINE",
"22 550 LINE",
"22 405 LINE",
"99 405 LINE",
"99 194 LINE SMOOTH",
"99 63 OFFCURVE",
"172 -11 OFFCURVE",
"303 -11 CURVE SMOOTH",
"356 -11 OFFCURVE",
"403 8 OFFCURVE",
"452 27 CURVE",
"441 177 LINE",
"406 157 OFFCURVE",
"370 143 OFFCURVE",
"330 143 CURVE SMOOTH",
"290 143 OFFCURVE",
"271 160 OFFCURVE",
"271 200 CURVE SMOOTH",
"271 405 LINE",
"503 405 LINE",
"503 0 LINE",
"675 0 LINE",
"675 405 LINE",
"823 405 LINE",
"823 550 LINE",
"675 550 LINE",
"675 591 OFFCURVE",
"692 605 OFFCURVE",
"736 605 CURVE SMOOTH"
);
}
);
width = 879;
},
{
layerId = "4050705C-5704-4184-B7B7-497C68798CAB";
width = 600;
},
{
layerId = "A498EE73-B8E0-478F-AD48-BB28716BB127";
width = 600;
},
{
layerId = "04E65C73-A9C2-4E63-92BC-18A513B12E25";
paths = (
{
closed = 1;
nodes = (
"773 605 OFFCURVE",
"809 596 OFFCURVE",
"845 587 CURVE",
"857 722 LINE",
"808 733 OFFCURVE",
"758 740 OFFCURVE",
"707 740 CURVE SMOOTH",
"577 740 OFFCURVE",
"503 681 OFFCURVE",
"503 550 CURVE",
"271 550 LINE",
"271 675 LINE",
"99 662 LINE",
"99 550 LINE",
"22 550 LINE",
"22 405 LINE",
"99 405 LINE",
"99 194 LINE SMOOTH",
"99 63 OFFCURVE",
"172 -11 OFFCURVE",
"303 -11 CURVE SMOOTH",
"356 -11 OFFCURVE",
"403 8 OFFCURVE",
"452 27 CURVE",
"441 177 LINE",
"406 157 OFFCURVE",
"370 143 OFFCURVE",
"330 143 CURVE SMOOTH",
"290 143 OFFCURVE",
"271 160 OFFCURVE",
"271 200 CURVE SMOOTH",
"271 405 LINE",
"503 405 LINE",
"503 0 LINE",
"675 0 LINE",
"675 405 LINE",
"823 405 LINE",
"823 550 LINE",
"675 550 LINE",
"675 591 OFFCURVE",
"692 605 OFFCURVE",
"736 605 CURVE SMOOTH"
);
}
);
width = 879;
}
);
},
